<?xml version="1.0" standalone="no"?>
<!DOCTYPE svg PUBLIC "-//W3C//DTD SVG 20010904//EN"
 "http://www.w3.org/TR/2001/REC-SVG-20010904/DTD/svg10.dtd">
<svg version="1.0" xmlns="http://www.w3.org/2000/svg"
 width="400.000000pt" height="400.000000pt" viewBox="0 0 400.000000 400.000000"
 preserveAspectRatio="xMidYMid meet">
<metadata>
Created by potrace 1.14, written by Peter Selinger 2001-2017
</metadata>
<g transform="translate(0.000000,400.000000) scale(0.100000,-0.100000)"
fill="#000000" stroke="none">
<path d="M1558 3491 c-43 -10 -81 -20 -84 -24 -5 -5 113 -616 120 -624 6 -7
196 41 236 58 54 24 114 80 143 134 31 57 31 206 -1 286 -29 74 -80 131 -144
163 -63 31 -149 33 -270 7z m220 -57 c76 -31 121 -95 143 -202 23 -110 -16
-223 -94 -271 -28 -17 -176 -57 -182 -49 -4 7 -103 513 -101 516 2 1 23 6 47
11 71 14 147 12 187 -5z"/>
<path d="M2314 3256 c-112 -52 -164 -193 -113 -306 27 -60 45 -79 104 -106 55
-26 95 -29 160 -13 35 9 46 17 54 42 6 16 11 31 11 32 0 1 -25 -7 -56 -17 -90
-31 -174 -5 -210 64 -20 37 -23 133 -6 150 8 8 55 -4 163 -41 83 -28 154 -49
157 -47 3 3 7 28 10 56 15 157 -128 254 -274 186z m139 -40 c18 -7 40 -23 50
-34 18 -20 36 -102 23 -102 -5 0 -153 49 -225 75 -31 11 55 74 102 75 10 0 32
-6 50 -14z"/>
<path d="M1062 2958 c-121 -119 -123 -122 -104 -140 18 -19 20 -17 114 76 l95
96 11 -158 c7 -86 12 -179 12 -207 0 -51 16 -95 36 -102 6 -2 71 53 143 123
l132 127 -21 21 -21 21 -104 -106 -104 -107 -5 42 c-3 22 -10 122 -16 221 -16
251 -10 248 -168 93z"/>
<path d="M2756 2832 l-105 -210 22 -19 22 -20 175 63 c96 35 195 71 219 80
l43 16 -21 21 -21 21 -176 -67 c-98 -37 -179 -65 -182 -63 -4 4 58 125 144
282 l34 61 -24 22 -25 23 -105 -210z"/>
<path d="M622 2648 c-28 -28 -2 -72 39 -66 35 5 47 33 25 57 -21 24 -46 27
-64 9z"/>
<path d="M780 2559 c-7 -11 -9 -23 -6 -26 7 -8 389 -183 391 -180 8 10 26 49
23 51 -12 8 -384 176 -390 176 -4 0 -12 -9 -18 -21z"/>
<path d="M3275 2482 c-58 -28 -75 -65 -92 -205 -9 -73 -22 -134 -32 -152 -22
-39 -63 -59 -105 -51 -36 7 -89 57 -105 99 -19 48 -13 137 13 199 l23 57 -31
-6 c-38 -7 -50 -18 -65 -62 -14 -44 -14 -159 1 -202 20 -60 65 -116 111 -138
53 -26 99 -26 153 -2 50 23 80 78 89 166 21 201 40 245 111 245 27 0 44 -8 69
-33 56 -56 68 -153 29 -246 -8 -19 -13 -35 -12 -37 2 -1 19 1 38 5 30 6 36 12
48 51 8 27 11 71 9 108 -12 160 -135 259 -252 204z"/>
<path d="M670 2241 c0 -17 3 -31 8 -31 254 -16 260 -17 295 -39 79 -49 101
-143 48 -203 l-30 -33 -97 1 c-54 1 -130 5 -171 8 l-73 7 0 -30 c0 -28 3 -30
43 -35 23 -3 97 -8 163 -11 111 -6 125 -5 163 14 47 25 69 54 82 111 12 51 -3
112 -37 157 l-24 32 32 3 c25 2 34 8 36 25 4 27 -10 30 -188 38 -69 3 -153 8
-187 12 l-63 6 0 -32z"/>
<path d="M2888 1825 c-4 -20 -1 -26 16 -30 11 -3 108 -23 214 -44 l192 -38 6
24 c4 13 4 27 1 30 -7 6 -382 83 -408 83 -10 0 -19 -10 -21 -25z"/>
<path d="M3415 1731 c-11 -37 23 -69 61 -54 19 7 28 42 14 58 -18 22 -67 19
-75 -4z"/>
<path d="M1155 1691 c-20 -32 -30 -41 -43 -35 -104 44 -182 44 -276 1 -120
-55 -189 -136 -212 -248 -18 -89 1 -161 61 -228 117 -129 339 -115 483 31 85
86 114 208 72 305 -12 29 -30 59 -41 69 -19 17 -19 18 1 52 20 34 20 34 1 65
l-19 30 -27 -42z m-102 -82 c20 -5 37 -15 37 -21 0 -6 -14 -36 -31 -66 -27
-48 -29 -57 -19 -83 7 -16 16 -29 21 -29 4 0 24 29 44 65 20 36 40 67 45 70
12 8 50 -77 50 -111 0 -90 -63 -181 -162 -235 -57 -30 -71 -34 -143 -34 -96 0
-145 20 -182 76 -116 175 119 430 340 368z"/>
<path d="M2889 1658 c-13 -24 -21 -15 112 -124 84 -68 109 -109 109 -179 0
-60 -40 -105 -92 -105 -39 0 -50 7 -186 118 -100 82 -103 84 -122 67 -11 -10
-20 -21 -20 -24 0 -3 36 -35 81 -71 115 -92 146 -129 154 -184 13 -82 -26
-136 -96 -136 -32 0 -54 13 -151 91 -62 51 -119 96 -126 102 -10 8 -19 5 -34
-11 -12 -12 -20 -23 -17 -25 2 -2 53 -43 112 -91 142 -115 162 -126 219 -126
87 0 156 88 146 185 -5 38 -3 42 14 37 29 -7 105 26 132 59 29 34 50 101 43
136 -5 27 0 29 25 6 18 -16 20 -16 39 4 l21 20 -109 89 c-59 48 -134 110 -166
136 -32 26 -63 48 -68 48 -4 0 -14 -10 -20 -22z"/>
<path d="M2344 1304 c-8 -3 -4 -30 12 -86 13 -45 23 -83 21 -84 -2 -2 -20 1
-41 7 -77 21 -167 -21 -209 -100 -96 -176 66 -406 240 -340 37 14 73 47 89 84
l13 30 11 -32 c12 -34 46 -46 56 -20 3 10 -96 384 -137 515 -10 30 -26 38 -55
26z m31 -226 c17 -8 28 -24 36 -52 5 -23 14 -54 19 -70 51 -155 -96 -276 -209
-173 -80 74 -79 238 3 288 35 22 111 25 151 7z"/>
<path d="M1379 1202 l-17 -30 82 5 c69 4 86 1 114 -16 66 -42 90 -128 58 -205
l-14 -33 -143 73 c-79 40 -147 73 -150 74 -8 0 -25 -42 -33 -83 -22 -98 79
-207 191 -207 91 1 163 52 204 145 44 99 16 210 -70 270 -38 26 -52 30 -124
33 -82 3 -82 3 -98 -26z m24 -233 c23 -12 71 -37 106 -57 l63 -35 -38 -23
c-63 -38 -140 -26 -178 28 -18 25 -22 108 -6 108 6 0 30 -10 53 -21z"/>
<path d="M1880 1088 c0 -7 -14 -143 -30 -303 -16 -159 -30 -298 -30 -307 0
-13 8 -18 29 -18 28 0 28 1 34 68 4 37 18 175 32 307 14 132 25 246 25 253 0
7 -13 12 -30 12 -17 0 -30 -5 -30 -12z"/>
</g>
</svg>
