<svg width="54" height="55" viewBox="0 0 54 55" fill="none" xmlns="http://www.w3.org/2000/svg">
<path d="M28.7141 1.05519C24.7033 0.792415 20.6867 1.4705 16.9813 3.0359C13.276 4.60131 9.98327 7.01119 7.3632 10.0753C4.72875 13.1428 2.83462 16.7805 1.82846 20.7048C0.82231 24.6292 0.731325 28.7341 1.5626 32.6996C2.39388 36.6651 4.12495 40.3841 6.62087 43.5665C9.11679 46.7489 12.3101 49.3087 15.9519 51.0465C19.5828 52.7739 23.5638 53.628 27.5799 53.5412C31.5959 53.4543 35.5367 52.4289 39.0904 50.5461C39.2041 50.4882 39.3309 50.461 39.4582 50.4672C39.5854 50.4753 39.7084 50.5165 39.815 50.5868C43.1906 52.8571 47.1711 54.0466 51.2322 53.9986C51.3279 53.9986 51.4226 53.9796 51.511 53.9427C51.5994 53.9058 51.6796 53.8518 51.7472 53.7836C51.8147 53.7155 51.8682 53.6346 51.9046 53.5457C51.941 53.4567 51.9596 53.3614 51.9593 53.2652V44.3487C51.9614 44.1739 51.9019 44.004 51.7913 43.8692C51.6804 43.7357 51.5263 43.6458 51.356 43.6153C50.5203 43.4819 49.7042 43.2455 48.926 42.9115C48.8297 42.8684 48.7439 42.8048 48.6747 42.7249C48.6054 42.6451 48.5543 42.551 48.525 42.4492C48.4953 42.3473 48.4878 42.2401 48.503 42.1349C48.5181 42.0295 48.5558 41.9286 48.6133 41.8391C52.4485 36.0445 53.8459 28.9593 52.5003 22.132C51.1547 15.3046 47.1754 9.29042 41.4322 5.40377C37.6408 2.8431 33.2426 1.33721 28.6847 1.03917L28.7141 1.05519ZM11.283 27.2761C11.2756 24.1337 12.1939 21.0595 13.922 18.4411C15.6501 15.8227 18.1107 13.7772 20.9935 12.5626C23.8711 11.3576 27.0405 11.0414 30.0976 11.6543C33.1546 12.2672 35.9609 13.7815 38.1586 16.004C39.8074 17.6708 41.0696 19.6833 41.8547 21.8975C42.6399 24.1118 42.9286 26.4731 42.7003 28.8125C42.472 31.152 41.7322 33.4119 40.534 35.4305C39.3358 37.4491 37.7086 39.1766 35.7689 40.4894C32.7424 42.5309 29.1036 43.4501 25.4766 43.0894C21.8496 42.7286 18.4605 41.1104 15.8906 38.5123C12.9352 35.5262 11.2748 31.486 11.2719 27.2736L11.283 27.2761Z" stroke="#999999" stroke-linecap="round" stroke-linejoin="round"/>
</svg>
