<svg width="72" height="51" viewBox="0 0 72 51" fill="none" xmlns="http://www.w3.org/2000/svg">
<path d="M45.2143 9.33894C42.7571 10.7122 40.8171 12.8637 39.6654 15.4649C38.3666 13.6287 36.8319 11.9792 35.1037 10.5629C37.0857 7.24329 39.9861 4.61757 43.442 3.01755C47.024 1.3591 51.0334 0.881056 54.9304 1.64892C58.8277 2.41685 62.4271 4.39442 65.2415 7.31831C68.056 10.2424 69.9488 13.971 70.663 18.0015C71.3772 22.0319 70.8781 26.1674 69.2354 29.85C67.5928 33.5323 64.8864 36.5842 61.4832 38.5966C58.0802 40.609 54.142 41.4868 50.1985 41.1116C46.2547 40.7364 42.493 39.1256 39.4217 36.493L38.8624 36.0136L38.6234 36.7104C37.0907 41.1771 34.0494 44.8987 30.0531 47.2062C26.0572 49.5135 21.3665 50.257 16.8275 49.3013C12.288 48.3454 8.19717 45.7521 5.29774 41.9854C2.39812 38.2185 0.883807 33.5294 1.02951 28.7671C1.1752 24.005 2.97085 19.4881 6.08655 16.0314C9.20187 12.5751 13.4325 10.4051 18.0134 9.91106C22.5946 9.417 27.2287 10.6312 31.0773 13.3393C34.9264 16.0476 37.7346 20.0711 38.9908 24.6832C39.837 27.7905 41.7269 30.5065 44.3239 32.3415C46.9213 34.1767 50.0565 35.0106 53.1663 34.6879C56.2763 34.3652 59.1517 32.9074 61.2752 30.5795C63.3983 28.2519 64.6292 25.209 64.7517 21.9998C64.8742 18.7909 63.8807 15.6225 61.9492 13.0633C60.0174 10.5038 57.2719 8.71899 54.2034 8.03459C51.1344 7.35008 47.9463 7.81215 45.2143 9.33894ZM23.9263 42.8223C25.5886 42.3698 27.1419 41.5828 28.4975 40.5068C29.8531 39.4309 30.984 38.0873 31.8264 36.5536C32.6687 35.02 33.206 33.3262 33.4086 31.5692C33.6112 29.8122 33.4751 28.0258 33.0085 26.3118C32.5419 24.5977 31.7536 22.9889 30.6884 21.577C29.6232 20.1651 28.3014 18.9774 26.7979 18.0824C25.2944 17.1873 23.6385 16.6024 21.9246 16.3621C20.2106 16.1217 18.4727 16.2307 16.8105 16.6832C13.4526 17.5973 10.6118 19.8542 8.91041 22.9519C7.20945 26.0489 6.78612 29.7328 7.7283 33.1938C8.67048 36.6548 10.9027 39.6157 13.9388 41.4231C16.9756 43.231 20.5684 43.7365 23.9263 42.8223Z" stroke="#999999"/>
</svg>
