<svg width="239" height="238" viewBox="0 0 239 238" fill="none" xmlns="http://www.w3.org/2000/svg">
<path d="M61.6889 79.3611L58.4669 76.2054L56 55.0996L55.8605 54.9629L46.8406 64.1722L42.5278 59.9481L57.9211 44.2314L61.4348 47.6728L64.1814 67.9094L64.321 68.0461L73.4153 58.7607L77.7282 62.9848L61.6889 79.3611Z" fill="black"/>
<path d="M55.1526 92.9832L30.5754 81.1611L33.8542 74.3447L58.4314 86.1668L55.1526 92.9832ZM29.0543 76.2129C28.5669 77.2263 27.8127 77.9341 26.7917 78.3362C25.7653 78.7225 24.7773 78.6873 23.8279 78.2306C22.8892 77.7791 22.2557 77.0343 21.9275 75.9964C21.5937 74.9426 21.6706 73.909 22.158 72.8957C22.6455 71.8823 23.4024 71.1824 24.4289 70.7961C25.4499 70.394 26.4297 70.4187 27.3684 70.8703C28.3178 71.3269 28.9594 72.0822 29.2932 73.1359C29.6214 74.1739 29.5418 75.1996 29.0543 76.2129Z" fill="black"/>
<path d="M39.2953 106.274L23.7175 104.667L24.4939 97.1427L51.6226 99.942L50.8772 107.166L45.9495 106.657L45.9203 106.94C47.4467 107.716 48.6192 108.867 49.4377 110.391C50.2574 111.903 50.5622 113.678 50.352 115.715C50.1649 117.529 49.5881 119.081 48.6217 120.374C47.6554 121.667 46.3726 122.623 44.7735 123.243C43.1756 123.852 41.3163 124.053 39.1957 123.846L21.9223 122.064L22.6987 114.54L38.6298 116.184C40.2323 116.337 41.5424 116.038 42.5601 115.286C43.5778 114.534 44.1601 113.446 44.3072 112.021C44.4007 111.115 44.2821 110.246 43.9514 109.414C43.6089 108.582 43.0505 107.881 42.2761 107.314C41.5029 106.734 40.5093 106.387 39.2953 106.274Z" fill="black"/>
<path d="M46.0412 156.277L43.2913 150.35L45.7422 145.592L47.7968 141.076L52.1594 132.338L55.1784 138.846L52.2711 144.814L50.4049 148.048L46.0412 156.277ZM32.7287 140.747C36.3259 139.078 39.7025 138.34 42.8585 138.533C46.0096 138.715 48.7939 139.668 51.2114 141.391C53.6132 143.108 55.4891 145.422 56.8392 148.332C58.1992 151.263 58.7541 154.203 58.5036 157.15C58.2532 160.098 57.1802 162.834 55.2845 165.358C53.3888 167.881 50.6478 169.975 47.0614 171.639C43.4643 173.308 40.0902 174.051 36.9391 173.869C33.788 173.687 31.0116 172.737 28.6098 171.02C26.1972 169.307 24.311 166.986 22.9509 164.054C21.6008 161.144 21.051 158.215 21.3014 155.268C21.5362 152.314 22.6013 149.575 24.497 147.052C26.3877 144.517 29.1316 142.416 32.7287 140.747ZM36.0092 147.817C33.6792 148.898 31.8761 150.159 30.6 151.599C29.3189 153.029 28.5564 154.564 28.3124 156.204C28.0685 157.843 28.3376 159.506 29.1197 161.192C29.9019 162.878 30.9978 164.157 32.4075 165.03C33.8172 165.903 35.4839 166.317 37.4076 166.272C39.3264 166.217 41.4508 165.649 43.7809 164.568C46.111 163.487 47.9166 162.232 49.1976 160.802C50.4737 159.362 51.2338 157.822 51.4777 156.182C51.7216 154.542 51.4525 152.879 50.6704 151.194C49.8882 149.508 48.7923 148.229 47.3826 147.356C45.973 146.483 44.3088 146.074 42.39 146.129C40.4663 146.174 38.3393 146.736 36.0092 147.817Z" fill="black"/>
<path d="M90.4136 181.714C92.9719 182.865 94.9408 184.374 96.3203 186.241C97.6842 188.114 98.4327 190.229 98.566 192.587C98.6944 194.955 98.1684 197.451 96.988 200.074C95.8368 202.632 94.3298 204.654 92.4672 206.139C90.6046 207.624 88.5291 208.501 86.2406 208.769C83.9414 209.033 81.572 208.615 79.1324 207.518C77.4917 206.779 76.0833 205.827 74.9072 204.662C73.7155 203.503 72.8263 202.162 72.2397 200.638C71.6422 199.111 71.4037 197.42 71.5241 195.566C71.6396 193.722 72.1734 191.743 73.1255 189.627L73.978 187.733L94.9787 197.183L93.055 201.458L78.5473 194.929C78.1004 195.922 77.9203 196.899 78.0072 197.86C78.0941 198.821 78.4236 199.689 78.9957 200.466C79.5522 201.249 80.3323 201.866 81.3362 202.318C82.3833 202.789 83.4209 202.964 84.4491 202.842C85.4616 202.727 86.3767 202.366 87.1944 201.761C88.0072 201.166 88.6401 200.38 89.0929 199.402L90.9218 195.338C91.4756 194.108 91.7274 192.942 91.6772 191.843C91.6162 190.738 91.2741 189.753 90.6507 188.888C90.0273 188.024 89.1381 187.331 87.9831 186.812C87.2167 186.467 86.4665 186.259 85.7325 186.188C84.9984 186.118 84.3076 186.196 83.6599 186.424C83.0123 186.652 82.4288 187.025 81.9096 187.544L75.7195 184.252C76.7331 182.865 77.9993 181.826 79.5181 181.133C81.0213 180.447 82.7041 180.14 84.5667 180.212C86.4137 180.29 88.3626 180.791 90.4136 181.714Z" fill="black"/>
<path d="M106.107 224.129L109.247 187.901L116.782 188.554L113.643 224.782L106.107 224.129Z" fill="black"/>
<path d="M146.61 172.908L156.363 209.118L149.162 211.057L147.971 206.634L147.645 206.722C147.516 207.517 147.247 208.361 146.838 209.256C146.421 210.165 145.787 210.998 144.937 211.754C144.078 212.525 142.911 213.109 141.436 213.506C139.516 214.023 137.609 213.997 135.715 213.429C133.824 212.871 132.122 211.718 130.609 209.968C129.099 208.229 127.937 205.851 127.124 202.834C126.333 199.896 126.14 197.288 126.543 195.01C126.939 192.746 127.808 190.875 129.151 189.398C130.485 187.935 132.153 186.934 134.153 186.396C135.57 186.014 136.839 185.923 137.96 186.124C139.069 186.328 140.033 186.7 140.853 187.239C141.675 187.79 142.351 188.386 142.879 189.028L143.102 188.968L139.307 174.875L146.61 172.908ZM145.667 197.876C145.245 196.31 144.66 195.003 143.912 193.954C143.164 192.905 142.29 192.166 141.292 191.736C140.296 191.318 139.21 191.267 138.033 191.584C136.844 191.904 135.926 192.501 135.279 193.374C134.634 194.259 134.258 195.341 134.149 196.621C134.031 197.915 134.179 199.328 134.592 200.859C135.001 202.38 135.573 203.66 136.307 204.7C137.04 205.741 137.906 206.476 138.905 206.906C139.903 207.336 141.003 207.389 142.203 207.066C143.391 206.746 144.313 206.16 144.966 205.31C145.608 204.463 145.991 203.404 146.115 202.132C146.238 200.861 146.089 199.442 145.667 197.876Z" fill="black"/>
<path d="M183.998 149.88L204.566 167.79L199.832 173.227L196.203 170.067L195.993 170.308C196.825 171.786 197.154 173.328 196.98 174.934C196.806 176.54 196.112 178.04 194.899 179.432C193.671 180.843 192.273 181.736 190.705 182.113C189.146 182.498 187.624 182.334 186.141 181.623L185.954 181.837C186.767 183.283 187.048 184.862 186.797 186.574C186.547 188.303 185.766 189.921 184.452 191.43C182.781 193.349 180.813 194.375 178.548 194.506C176.285 194.654 174.037 193.756 171.805 191.813L157.973 179.768L162.928 174.077L175.636 185.142C176.779 186.137 177.9 186.58 179 186.471C180.1 186.361 181.046 185.851 181.839 184.94C182.741 183.905 183.114 182.809 182.959 181.654C182.812 180.506 182.203 179.466 181.132 178.533L168.572 167.596L173.388 162.066L186.216 173.236C187.224 174.114 188.28 174.524 189.384 174.465C190.479 174.414 191.435 173.92 192.252 172.983C192.803 172.349 193.14 171.638 193.262 170.849C193.385 170.077 193.289 169.295 192.974 168.503C192.668 167.719 192.136 166.996 191.377 166.335L179.031 155.585L183.998 149.88Z" fill="black"/>
<path d="M186.63 133.546L212.989 140.549L211.047 147.859L184.688 140.857L186.63 133.546ZM215.411 145.124C215.7 144.037 216.308 143.2 217.235 142.614C218.171 142.042 219.148 141.891 220.166 142.161C221.173 142.429 221.935 143.042 222.452 144C222.977 144.972 223.096 146.002 222.807 147.088C222.518 148.175 221.906 149.005 220.97 149.577C220.043 150.163 219.076 150.323 218.069 150.055C217.051 149.785 216.279 149.163 215.753 148.191C215.236 147.233 215.122 146.21 215.411 145.124Z" fill="black"/>
<path d="M214.059 116.652C215.471 116.37 216.518 115.654 217.201 114.504C217.885 113.354 218.136 111.86 217.955 110.023C217.832 108.774 217.551 107.737 217.113 106.912C216.686 106.086 216.144 105.473 215.486 105.074C214.829 104.687 214.112 104.532 213.335 104.608C212.685 104.649 212.132 104.84 211.679 105.182C211.226 105.536 210.849 105.996 210.548 106.561C210.258 107.124 210.018 107.767 209.828 108.487C209.649 109.207 209.51 109.97 209.411 110.776L208.955 114.104C208.757 115.718 208.429 117.213 207.97 118.591C207.511 119.968 206.9 121.182 206.135 122.233C205.37 123.284 204.431 124.132 203.317 124.777C202.204 125.434 200.895 125.843 199.388 126.003C197.172 126.21 195.196 125.834 193.46 124.875C191.737 123.927 190.325 122.449 189.222 120.44C188.133 118.442 187.443 115.971 187.153 113.026C186.864 110.105 187.061 107.516 187.742 105.26C188.425 103.016 189.584 101.201 191.219 99.8143C192.868 98.4384 194.991 97.5925 197.588 97.2768L198.319 104.68C197.114 104.883 196.135 105.33 195.383 106.023C194.643 106.726 194.118 107.617 193.808 108.694C193.511 109.782 193.428 110.985 193.558 112.305C193.686 113.601 193.985 114.707 194.457 115.624C194.929 116.553 195.527 117.249 196.251 117.713C196.974 118.177 197.772 118.366 198.644 118.28C199.457 118.199 200.116 117.891 200.622 117.353C201.129 116.827 201.532 116.086 201.83 115.128C202.129 114.183 202.373 113.035 202.561 111.684L203.161 107.646C203.602 104.522 204.525 101.998 205.929 100.076C207.333 98.153 209.373 97.0656 212.048 96.8135C214.238 96.5856 216.21 96.9798 217.964 97.9962C219.718 99.0244 221.157 100.53 222.281 102.512C223.404 104.495 224.096 106.806 224.356 109.444C224.621 112.13 224.393 114.52 223.672 116.613C222.952 118.718 221.828 120.411 220.302 121.692C218.775 122.972 216.935 123.737 214.783 123.985L214.059 116.652Z" fill="black"/>
<path d="M198.33 63.2618L171.978 75.106L166.115 68.9209L179.347 43.2378L184.844 49.0362L174.58 66.572L174.775 66.7782L192.821 57.4505L198.33 63.2618Z" fill="black"/>
<path d="M143.482 55.553C140.856 54.5682 138.794 53.1884 137.298 51.4138C135.817 49.6322 134.934 47.5693 134.65 45.2252C134.37 42.87 134.735 40.3457 135.744 37.6524C136.729 35.0255 138.103 32.9113 139.867 31.3096C141.631 29.708 143.646 28.6999 145.912 28.2855C148.19 27.8753 150.581 28.1398 153.086 29.0789C154.771 29.7106 156.237 30.5701 157.486 31.6576C158.749 32.7382 159.723 34.0196 160.406 35.502C161.1 36.9885 161.446 38.6607 161.445 40.5186C161.448 42.3654 161.042 44.3749 160.228 46.5474L159.498 48.4925L137.935 40.4079L139.581 36.0187L154.477 41.6038C154.859 40.5841 154.976 39.5977 154.828 38.6445C154.68 37.6913 154.295 36.8456 153.675 36.1072C153.069 35.3618 152.251 34.796 151.22 34.4095C150.145 34.0064 149.098 33.8984 148.08 34.0855C147.077 34.2657 146.187 34.6841 145.41 35.3409C144.637 35.9865 144.056 36.8116 143.666 37.816L142.102 41.9891C141.628 43.2526 141.451 44.4316 141.572 45.5261C141.704 46.6247 142.108 47.5855 142.786 48.4084C143.463 49.2313 144.395 49.8651 145.581 50.3097C146.368 50.6048 147.13 50.7641 147.867 50.7876C148.604 50.8111 149.289 50.6884 149.92 50.4196C150.552 50.1508 151.11 49.7407 151.595 49.1892L157.984 52.0774C157.061 53.5267 155.864 54.6455 154.393 55.4339C152.937 56.2154 151.277 56.6297 149.414 56.6769C147.565 56.7172 145.588 56.3426 143.482 55.553Z" fill="black"/>
<path d="M106.676 51.5565L93.9269 53.46L88.5572 17.495L101.412 15.5758C105.029 15.0357 108.251 15.2907 111.077 16.341C113.901 17.3795 116.215 19.1343 118.021 21.6056C119.837 24.0751 121.025 27.1771 121.582 30.9118C122.142 34.6581 121.914 37.9834 120.899 40.8876C119.897 43.79 118.186 46.1579 115.766 47.9912C113.359 49.8227 110.329 51.0112 106.676 51.5565ZM100.558 45.8096L105.387 45.0886C107.635 44.753 109.466 44.0726 110.881 43.0476C112.306 42.009 113.279 40.5891 113.8 38.7879C114.331 36.9732 114.396 34.7254 113.996 32.0444C113.599 29.3869 112.883 27.2737 111.847 25.705C110.822 24.1345 109.484 23.0656 107.831 22.4985C106.179 21.9314 104.229 21.8156 101.981 22.1512L97.1339 22.8749L100.558 45.8096Z" fill="black"/>
</svg>
