<svg width="1400" height="400" viewBox="0 0 1400 400" fill="none" xmlns="http://www.w3.org/2000/svg">
<rect width="1400" height="400" fill="#202B3D"/>
<g filter="url(#filter0_d_103_428)">
<path d="M343.892 216H320.689V150.545H344.084C350.668 150.545 356.335 151.856 361.087 154.477C365.838 157.076 369.492 160.815 372.049 165.695C374.627 170.574 375.916 176.412 375.916 183.209C375.916 190.027 374.627 195.886 372.049 200.787C369.492 205.687 365.817 209.448 361.023 212.069C356.25 214.69 350.54 216 343.892 216ZM334.528 204.143H343.317C347.408 204.143 350.849 203.418 353.64 201.969C356.452 200.499 358.562 198.23 359.968 195.162C361.396 192.072 362.109 188.088 362.109 183.209C362.109 178.372 361.396 174.42 359.968 171.352C358.562 168.283 356.463 166.025 353.672 164.576C350.881 163.127 347.44 162.403 343.349 162.403H334.528V204.143ZM385.267 216V150.545H429.373V161.955H399.106V177.552H427.103V188.962H399.106V204.59H429.5V216H385.267ZM451.3 150.545L467.12 200.276H467.728L483.58 150.545H498.921L476.357 216H458.523L435.927 150.545H451.3ZM561.337 169.37C561.081 166.792 559.984 164.789 558.045 163.362C556.106 161.934 553.475 161.22 550.151 161.22C547.892 161.22 545.985 161.54 544.43 162.179C542.875 162.797 541.681 163.66 540.85 164.768C540.041 165.876 539.636 167.133 539.636 168.539C539.593 169.711 539.838 170.734 540.371 171.607C540.925 172.481 541.681 173.237 542.64 173.876C543.599 174.494 544.707 175.038 545.964 175.506C547.221 175.954 548.564 176.337 549.991 176.657L555.872 178.063C558.727 178.702 561.348 179.555 563.734 180.62C566.12 181.685 568.187 182.996 569.934 184.551C571.681 186.107 573.034 187.939 573.993 190.048C574.973 192.158 575.474 194.576 575.495 197.303C575.474 201.309 574.451 204.782 572.427 207.722C570.424 210.641 567.527 212.911 563.734 214.53C559.963 216.128 555.414 216.927 550.087 216.927C544.803 216.927 540.201 216.117 536.28 214.498C532.381 212.879 529.334 210.482 527.14 207.307C524.966 204.111 523.826 200.158 523.72 195.45H537.111C537.26 197.644 537.889 199.477 538.997 200.947C540.126 202.396 541.628 203.493 543.503 204.239C545.399 204.963 547.541 205.325 549.927 205.325C552.271 205.325 554.306 204.984 556.032 204.303C557.779 203.621 559.132 202.673 560.091 201.458C561.049 200.244 561.529 198.848 561.529 197.271C561.529 195.801 561.092 194.565 560.218 193.564C559.366 192.562 558.109 191.71 556.447 191.007C554.806 190.304 552.793 189.665 550.407 189.089L543.279 187.3C537.761 185.957 533.404 183.859 530.208 181.004C527.012 178.148 525.424 174.303 525.446 169.466C525.424 165.503 526.479 162.04 528.61 159.079C530.762 156.117 533.713 153.805 537.463 152.143C541.213 150.482 545.474 149.651 550.247 149.651C555.105 149.651 559.345 150.482 562.967 152.143C566.61 153.805 569.444 156.117 571.468 159.079C573.493 162.04 574.537 165.471 574.6 169.37H561.337ZM597.743 150.545V216H583.904V150.545H597.743ZM608.228 150.545H625.295L643.321 194.523H644.088L662.113 150.545H679.18V216H665.757V173.397H665.213L648.275 215.68H639.134L622.195 173.237H621.652V216H608.228V150.545ZM689.682 216V150.545H715.506C720.47 150.545 724.7 151.494 728.194 153.39C731.688 155.265 734.352 157.875 736.184 161.22C738.038 164.544 738.965 168.379 738.965 172.726C738.965 177.072 738.027 180.908 736.152 184.232C734.277 187.555 731.56 190.144 728.002 191.998C724.465 193.852 720.183 194.778 715.154 194.778H698.695V183.688H712.917C715.58 183.688 717.775 183.23 719.501 182.314C721.248 181.376 722.548 180.087 723.4 178.447C724.274 176.785 724.71 174.878 724.71 172.726C724.71 170.553 724.274 168.656 723.4 167.037C722.548 165.396 721.248 164.129 719.501 163.234C717.754 162.317 715.538 161.859 712.853 161.859H703.521V216H689.682ZM747.053 216V150.545H760.892V204.59H788.953V216H747.053ZM797.218 216V150.545H841.323V161.955H811.057V177.552H839.054V188.962H811.057V204.59H841.451V216H797.218ZM896.061 193.244H907.822L913.735 200.851L919.551 207.626L930.514 221.369H917.602L910.059 212.101L906.192 206.604L896.061 193.244ZM931.504 183.273C931.504 190.411 930.151 196.483 927.446 201.49C924.761 206.497 921.096 210.322 916.451 212.964C911.828 215.585 906.629 216.895 900.855 216.895C895.038 216.895 889.818 215.574 885.194 212.932C880.571 210.29 876.916 206.465 874.232 201.458C871.547 196.451 870.205 190.389 870.205 183.273C870.205 176.135 871.547 170.062 874.232 165.055C876.916 160.048 880.571 156.234 885.194 153.614C889.818 150.972 895.038 149.651 900.855 149.651C906.629 149.651 911.828 150.972 916.451 153.614C921.096 156.234 924.761 160.048 927.446 165.055C930.151 170.062 931.504 176.135 931.504 183.273ZM917.474 183.273C917.474 178.649 916.781 174.75 915.396 171.575C914.033 168.401 912.105 165.993 909.612 164.352C907.119 162.712 904.2 161.891 900.855 161.891C897.509 161.891 894.59 162.712 892.097 164.352C889.605 165.993 887.666 168.401 886.281 171.575C884.917 174.75 884.235 178.649 884.235 183.273C884.235 187.896 884.917 191.795 886.281 194.97C887.666 198.145 889.605 200.553 892.097 202.193C894.59 203.834 897.509 204.654 900.855 204.654C904.2 204.654 907.119 203.834 909.612 202.193C912.105 200.553 914.033 198.145 915.396 194.97C916.781 191.795 917.474 187.896 917.474 183.273ZM981.285 150.545H995.124V193.053C995.124 197.825 993.984 202.001 991.704 205.581C989.446 209.161 986.282 211.952 982.212 213.955C978.143 215.936 973.402 216.927 967.99 216.927C962.557 216.927 957.805 215.936 953.736 213.955C949.666 211.952 946.502 209.161 944.244 205.581C941.985 202.001 940.856 197.825 940.856 193.053V150.545H954.695V191.87C954.695 194.363 955.238 196.579 956.324 198.518C957.432 200.457 958.988 201.98 960.991 203.088C962.994 204.196 965.327 204.75 967.99 204.75C970.675 204.75 973.008 204.196 974.989 203.088C976.992 201.98 978.537 200.457 979.623 198.518C980.731 196.579 981.285 194.363 981.285 191.87V150.545ZM1019.45 150.545V216H1005.61V150.545H1019.45ZM1029.23 216V207.786L1061.89 161.955H1029.17V150.545H1079.28V158.759L1046.59 204.59H1079.35V216H1029.23Z" fill="#B6B6B6"/>
</g>
<g filter="url(#filter1_d_103_428)">
<path d="M499.58 280V261.818H506.754C508.133 261.818 509.307 262.082 510.278 262.608C511.249 263.129 511.989 263.854 512.498 264.783C513.012 265.707 513.27 266.772 513.27 267.979C513.27 269.187 513.009 270.252 512.489 271.175C511.968 272.099 511.213 272.818 510.225 273.333C509.242 273.848 508.053 274.105 506.656 274.105H502.084V271.025H506.034C506.774 271.025 507.384 270.897 507.863 270.643C508.349 270.382 508.71 270.024 508.946 269.569C509.189 269.107 509.31 268.577 509.31 267.979C509.31 267.376 509.189 266.849 508.946 266.399C508.71 265.943 508.349 265.591 507.863 265.343C507.378 265.088 506.762 264.961 506.017 264.961H503.424V280H499.58ZM515.517 280V261.818H522.69C524.063 261.818 525.235 262.064 526.206 262.555C527.182 263.04 527.925 263.73 528.434 264.624C528.949 265.511 529.206 266.556 529.206 267.757C529.206 268.965 528.946 270.004 528.425 270.874C527.904 271.738 527.15 272.401 526.161 272.862C525.179 273.324 523.989 273.555 522.592 273.555H517.79V270.465H521.971C522.705 270.465 523.314 270.365 523.8 270.163C524.285 269.962 524.646 269.66 524.883 269.258C525.126 268.855 525.247 268.355 525.247 267.757C525.247 267.154 525.126 266.645 524.883 266.23C524.646 265.816 524.282 265.502 523.791 265.289C523.306 265.07 522.693 264.961 521.953 264.961H519.361V280H515.517ZM525.336 271.726L529.854 280H525.611L521.19 271.726H525.336ZM548.381 270.909C548.381 272.892 548.005 274.579 547.254 275.969C546.508 277.36 545.49 278.423 544.2 279.157C542.915 279.885 541.471 280.249 539.867 280.249C538.252 280.249 536.801 279.882 535.517 279.148C534.233 278.414 533.218 277.351 532.472 275.961C531.726 274.57 531.353 272.886 531.353 270.909C531.353 268.926 531.726 267.24 532.472 265.849C533.218 264.458 534.233 263.398 535.517 262.67C536.801 261.937 538.252 261.57 539.867 261.57C541.471 261.57 542.915 261.937 544.2 262.67C545.49 263.398 546.508 264.458 547.254 265.849C548.005 267.24 548.381 268.926 548.381 270.909ZM544.484 270.909C544.484 269.625 544.291 268.542 543.907 267.66C543.528 266.778 542.992 266.109 542.3 265.653C541.607 265.198 540.796 264.97 539.867 264.97C538.938 264.97 538.127 265.198 537.435 265.653C536.742 266.109 536.204 266.778 535.819 267.66C535.44 268.542 535.251 269.625 535.251 270.909C535.251 272.193 535.44 273.277 535.819 274.158C536.204 275.04 536.742 275.709 537.435 276.165C538.127 276.621 538.938 276.848 539.867 276.848C540.796 276.848 541.607 276.621 542.3 276.165C542.992 275.709 543.528 275.04 543.907 274.158C544.291 273.277 544.484 272.193 544.484 270.909ZM563.035 267.695C562.911 267.263 562.736 266.882 562.511 266.55C562.286 266.213 562.011 265.929 561.685 265.698C561.366 265.461 560.999 265.281 560.585 265.156C560.176 265.032 559.723 264.97 559.226 264.97C558.297 264.97 557.48 265.201 556.776 265.662C556.078 266.124 555.533 266.796 555.142 267.678C554.752 268.554 554.556 269.625 554.556 270.891C554.556 272.158 554.749 273.235 555.134 274.123C555.518 275.011 556.063 275.688 556.767 276.156C557.471 276.618 558.303 276.848 559.262 276.848C560.132 276.848 560.875 276.694 561.49 276.387C562.112 276.073 562.585 275.632 562.911 275.064C563.242 274.496 563.408 273.824 563.408 273.049L564.189 273.164H559.501V270.27H567.11V272.56C567.11 274.158 566.772 275.531 566.098 276.68C565.423 277.822 564.494 278.704 563.31 279.325C562.126 279.941 560.771 280.249 559.244 280.249C557.539 280.249 556.042 279.873 554.752 279.121C553.462 278.364 552.455 277.289 551.733 275.898C551.017 274.502 550.659 272.844 550.659 270.927C550.659 269.453 550.872 268.139 551.298 266.985C551.73 265.825 552.334 264.843 553.109 264.038C553.885 263.233 554.787 262.62 555.817 262.2C556.847 261.78 557.963 261.57 559.164 261.57C560.194 261.57 561.153 261.721 562.04 262.022C562.928 262.318 563.715 262.739 564.402 263.283C565.094 263.828 565.66 264.476 566.098 265.227C566.536 265.973 566.817 266.796 566.941 267.695H563.035ZM569.747 280V261.818H576.921C578.294 261.818 579.466 262.064 580.436 262.555C581.413 263.04 582.156 263.73 582.665 264.624C583.179 265.511 583.437 266.556 583.437 267.757C583.437 268.965 583.176 270.004 582.656 270.874C582.135 271.738 581.38 272.401 580.392 272.862C579.409 273.324 578.22 273.555 576.823 273.555H572.02V270.465H576.201C576.935 270.465 577.545 270.365 578.03 270.163C578.516 269.962 578.877 269.66 579.113 269.258C579.356 268.855 579.477 268.355 579.477 267.757C579.477 267.154 579.356 266.645 579.113 266.23C578.877 265.816 578.513 265.502 578.021 265.289C577.536 265.07 576.924 264.961 576.184 264.961H573.591V280H569.747ZM579.566 271.726L584.085 280H579.841L575.42 271.726H579.566ZM589.037 280H584.918L591.195 261.818H596.149L602.416 280H598.297L593.743 265.973H593.601L589.037 280ZM588.78 272.853H598.51V275.854H588.78V272.853ZM604.355 261.818H609.095L614.103 274.034H614.316L619.323 261.818H624.063V280H620.335V268.166H620.184L615.479 279.911H612.94L608.234 268.121H608.083V280H604.355V261.818ZM626.981 261.818H631.721L636.729 274.034H636.942L641.949 261.818H646.689V280H642.961V268.166H642.81L638.105 279.911H635.566L630.86 268.121H630.709V280H626.981V261.818ZM649.607 280V261.818H661.858V264.988H653.451V269.32H661.228V272.489H653.451V276.831H661.894V280H649.607ZM664.664 280V261.818H671.838C673.211 261.818 674.383 262.064 675.353 262.555C676.33 263.04 677.073 263.73 677.581 264.624C678.096 265.511 678.354 266.556 678.354 267.757C678.354 268.965 678.093 270.004 677.573 270.874C677.052 271.738 676.297 272.401 675.309 272.862C674.326 273.324 673.137 273.555 671.74 273.555H666.937V270.465H671.118C671.852 270.465 672.462 270.365 672.947 270.163C673.433 269.962 673.794 269.66 674.03 269.258C674.273 268.855 674.394 268.355 674.394 267.757C674.394 267.154 674.273 266.645 674.03 266.23C673.794 265.816 673.43 265.502 672.938 265.289C672.453 265.07 671.84 264.961 671.101 264.961H668.508V280H664.664ZM674.483 271.726L679.002 280H674.758L670.337 271.726H674.483ZM690.684 267.047C690.613 266.331 690.308 265.775 689.769 265.378C689.231 264.982 688.5 264.783 687.577 264.783C686.949 264.783 686.419 264.872 685.987 265.05C685.555 265.221 685.224 265.461 684.993 265.769C684.768 266.077 684.656 266.426 684.656 266.816C684.644 267.142 684.712 267.426 684.86 267.669C685.014 267.911 685.224 268.121 685.49 268.299C685.757 268.471 686.064 268.622 686.414 268.752C686.763 268.876 687.136 268.983 687.532 269.071L689.166 269.462C689.959 269.64 690.687 269.876 691.35 270.172C692.012 270.468 692.587 270.832 693.072 271.264C693.557 271.696 693.933 272.205 694.199 272.791C694.472 273.377 694.611 274.049 694.617 274.806C694.611 275.919 694.327 276.884 693.764 277.701C693.208 278.511 692.403 279.142 691.35 279.592C690.302 280.036 689.038 280.257 687.559 280.257C686.091 280.257 684.813 280.033 683.724 279.583C682.64 279.133 681.794 278.467 681.184 277.585C680.581 276.697 680.264 275.6 680.235 274.292H683.954C683.996 274.901 684.17 275.41 684.478 275.819C684.792 276.221 685.209 276.526 685.73 276.733C686.257 276.934 686.852 277.035 687.514 277.035C688.165 277.035 688.731 276.94 689.21 276.751C689.695 276.561 690.071 276.298 690.338 275.961C690.604 275.623 690.737 275.236 690.737 274.798C690.737 274.389 690.616 274.046 690.373 273.768C690.136 273.49 689.787 273.253 689.325 273.058C688.87 272.862 688.31 272.685 687.648 272.525L685.668 272.028C684.135 271.655 682.925 271.072 682.037 270.279C681.149 269.486 680.708 268.417 680.714 267.074C680.708 265.973 681.001 265.011 681.593 264.189C682.191 263.366 683.01 262.724 684.052 262.262C685.094 261.8 686.277 261.57 687.603 261.57C688.953 261.57 690.13 261.8 691.137 262.262C692.149 262.724 692.936 263.366 693.498 264.189C694.06 265.011 694.35 265.964 694.368 267.047H690.684ZM706.581 280L701.379 261.818H705.578L708.588 274.451H708.738L712.059 261.818H715.654L718.966 274.478H719.126L722.135 261.818H726.334L721.132 280H717.385L713.923 268.113H713.781L710.328 280H706.581ZM728.142 280V261.818H740.393V264.988H731.986V269.32H739.763V272.489H731.986V276.831H740.429V280H728.142ZM743.199 280V261.818H750.479C751.817 261.818 752.932 262.016 753.826 262.413C754.72 262.81 755.392 263.36 755.841 264.064C756.291 264.763 756.516 265.568 756.516 266.479C756.516 267.189 756.374 267.814 756.09 268.352C755.806 268.885 755.415 269.323 754.918 269.666C754.427 270.004 753.865 270.243 753.231 270.385V270.563C753.924 270.592 754.572 270.788 755.176 271.149C755.785 271.51 756.279 272.016 756.658 272.667C757.037 273.312 757.226 274.081 757.226 274.975C757.226 275.94 756.987 276.801 756.507 277.559C756.034 278.31 755.332 278.905 754.403 279.343C753.474 279.781 752.329 280 750.968 280H743.199ZM747.044 276.857H750.177C751.249 276.857 752.03 276.653 752.521 276.245C753.012 275.83 753.258 275.28 753.258 274.593C753.258 274.09 753.137 273.646 752.894 273.262C752.651 272.877 752.305 272.575 751.855 272.356C751.411 272.137 750.882 272.028 750.266 272.028H747.044V276.857ZM747.044 269.426H749.893C750.42 269.426 750.888 269.335 751.296 269.151C751.71 268.962 752.036 268.696 752.273 268.352C752.515 268.009 752.637 267.598 752.637 267.118C752.637 266.461 752.403 265.932 751.935 265.529C751.474 265.127 750.817 264.925 749.964 264.925H747.044V269.426ZM765.014 280V261.818H777.052V264.988H768.858V269.32H776.253V272.489H768.858V280H765.014ZM790.618 261.818H794.462V273.626C794.462 274.951 794.146 276.112 793.513 277.106C792.885 278.1 792.006 278.875 790.876 279.432C789.745 279.982 788.428 280.257 786.925 280.257C785.416 280.257 784.096 279.982 782.966 279.432C781.835 278.875 780.956 278.1 780.329 277.106C779.702 276.112 779.388 274.951 779.388 273.626V261.818H783.232V273.297C783.232 273.99 783.383 274.605 783.685 275.144C783.993 275.682 784.425 276.106 784.981 276.413C785.537 276.721 786.185 276.875 786.925 276.875C787.671 276.875 788.319 276.721 788.869 276.413C789.426 276.106 789.855 275.682 790.157 275.144C790.464 274.605 790.618 273.99 790.618 273.297V261.818ZM797.375 280V261.818H801.219V276.831H809.014V280H797.375ZM811.31 280V261.818H815.154V276.831H822.949V280H811.31ZM846.823 268.184H842.934C842.863 267.681 842.718 267.234 842.499 266.843C842.28 266.446 841.999 266.109 841.656 265.831C841.313 265.553 840.916 265.34 840.466 265.192C840.022 265.044 839.54 264.97 839.019 264.97C838.078 264.97 837.258 265.204 836.56 265.671C835.862 266.133 835.32 266.808 834.935 267.695C834.551 268.577 834.358 269.648 834.358 270.909C834.358 272.205 834.551 273.294 834.935 274.176C835.326 275.058 835.87 275.724 836.569 276.174C837.267 276.623 838.075 276.848 838.992 276.848C839.507 276.848 839.984 276.78 840.422 276.644C840.866 276.508 841.259 276.31 841.603 276.049C841.946 275.783 842.23 275.46 842.455 275.082C842.686 274.703 842.845 274.271 842.934 273.786L846.823 273.803C846.722 274.638 846.471 275.443 846.068 276.218C845.672 276.987 845.136 277.677 844.461 278.287C843.792 278.89 842.993 279.37 842.064 279.725C841.141 280.074 840.096 280.249 838.93 280.249C837.309 280.249 835.859 279.882 834.58 279.148C833.308 278.414 832.302 277.351 831.562 275.961C830.828 274.57 830.461 272.886 830.461 270.909C830.461 268.926 830.834 267.24 831.579 265.849C832.325 264.458 833.337 263.398 834.616 262.67C835.894 261.937 837.332 261.57 838.93 261.57C839.984 261.57 840.96 261.718 841.86 262.013C842.766 262.309 843.568 262.741 844.266 263.31C844.964 263.872 845.532 264.561 845.97 265.378C846.414 266.195 846.698 267.13 846.823 268.184ZM853.173 261.818V280H849.329V261.818H853.173ZM872.128 268.184H868.24C868.169 267.681 868.024 267.234 867.805 266.843C867.586 266.446 867.305 266.109 866.961 265.831C866.618 265.553 866.222 265.34 865.772 265.192C865.328 265.044 864.846 264.97 864.325 264.97C863.384 264.97 862.564 265.204 861.866 265.671C861.167 266.133 860.626 266.808 860.241 267.695C859.856 268.577 859.664 269.648 859.664 270.909C859.664 272.205 859.856 273.294 860.241 274.176C860.632 275.058 861.176 275.724 861.874 276.174C862.573 276.623 863.381 276.848 864.298 276.848C864.813 276.848 865.289 276.78 865.727 276.644C866.171 276.508 866.565 276.31 866.908 276.049C867.251 275.783 867.536 275.46 867.76 275.082C867.991 274.703 868.151 274.271 868.24 273.786L872.128 273.803C872.028 274.638 871.776 275.443 871.374 276.218C870.977 276.987 870.442 277.677 869.767 278.287C869.098 278.89 868.299 279.37 867.37 279.725C866.447 280.074 865.402 280.249 864.236 280.249C862.614 280.249 861.164 279.882 859.886 279.148C858.613 278.414 857.607 277.351 856.867 275.961C856.133 274.57 855.767 272.886 855.767 270.909C855.767 268.926 856.139 267.24 856.885 265.849C857.631 264.458 858.643 263.398 859.921 262.67C861.2 261.937 862.638 261.57 864.236 261.57C865.289 261.57 866.266 261.718 867.166 262.013C868.071 262.309 868.873 262.741 869.572 263.31C870.27 263.872 870.838 264.561 871.276 265.378C871.72 266.195 872.004 267.13 872.128 268.184ZM874.635 280V261.818H878.479V276.831H886.274V280H874.635ZM888.57 280V261.818H900.821V264.988H892.414V269.32H900.191V272.489H892.414V276.831H900.856V280H888.57Z" fill="#B6B6B6"/>
</g>
<defs>
<filter id="filter0_d_103_428" x="314.389" y="147.35" width="771.256" height="84.3188" filterUnits="userSpaceOnUse" color-interpolation-filters="sRGB">
<feFlood flood-opacity="0" result="BackgroundImageFix"/>
<feColorMatrix in="SourceAlpha" type="matrix" values="0 0 0 0 0 0 0 0 0 0 0 0 0 0 0 0 0 0 127 0" result="hardAlpha"/>
<feOffset dy="4"/>
<feGaussianBlur stdDeviation="3.15"/>
<feComposite in2="hardAlpha" operator="out"/>
<feColorMatrix type="matrix" values="0 0 0 0 0 0 0 0 0 0 0 0 0 0 0 0 0 0 0.25 0"/>
<feBlend mode="normal" in2="BackgroundImageFix" result="effect1_dropShadow_103_428"/>
<feBlend mode="normal" in="SourceGraphic" in2="effect1_dropShadow_103_428" result="shape"/>
</filter>
<filter id="filter1_d_103_428" x="493.28" y="259.27" width="413.876" height="31.2875" filterUnits="userSpaceOnUse" color-interpolation-filters="sRGB">
<feFlood flood-opacity="0" result="BackgroundImageFix"/>
<feColorMatrix in="SourceAlpha" type="matrix" values="0 0 0 0 0 0 0 0 0 0 0 0 0 0 0 0 0 0 127 0" result="hardAlpha"/>
<feOffset dy="4"/>
<feGaussianBlur stdDeviation="3.15"/>
<feComposite in2="hardAlpha" operator="out"/>
<feColorMatrix type="matrix" values="0 0 0 0 0 0 0 0 0 0 0 0 0 0 0 0 0 0 0.25 0"/>
<feBlend mode="normal" in2="BackgroundImageFix" result="effect1_dropShadow_103_428"/>
<feBlend mode="normal" in="SourceGraphic" in2="effect1_dropShadow_103_428" result="shape"/>
</filter>
</defs>
</svg>
