<svg width="1400" height="400" viewBox="0 0 1400 400" fill="none" xmlns="http://www.w3.org/2000/svg">
<rect width="1400" height="400" fill="#202B3D"/>
<g filter="url(#filter0_d_204_481)">
<path d="M447.64 218.16H481.16V222.48H447.64V218.16ZM461.68 211.16H467V219.92H461.68V211.16ZM451.4 191.92H477.4V204.24H456.76V210.48H451.48V200.08H472.12V196.12H451.4V191.92ZM451.48 208.36H478.24V212.64H451.48V208.36ZM487.437 192.92H510.917V197.12H487.437V192.92ZM484.037 217.4H517.517V221.72H484.037V217.4ZM508.117 192.92H513.397V197.32C513.397 202.52 513.397 207.56 512.077 215.16L506.757 214.72C508.117 207.6 508.117 202.32 508.117 197.32V192.92ZM545.834 189.56H551.194V216.16H545.834V189.56ZM526.514 221.68H552.114V225.92H526.514V221.68ZM526.514 213.48H531.834V223.4H526.514V213.48ZM531.034 191.88C536.714 191.88 541.074 195.8 541.074 201.28C541.074 206.72 536.714 210.68 531.034 210.68C525.354 210.68 520.954 206.72 520.954 201.28C520.954 195.8 525.354 191.88 531.034 191.88ZM531.034 196.48C528.274 196.48 526.154 198.24 526.154 201.28C526.154 204.28 528.274 206.04 531.034 206.04C533.754 206.04 535.874 204.28 535.874 201.28C535.874 198.24 533.754 196.48 531.034 196.48ZM567.248 193.36H597.408V197.56H567.248V193.36ZM565.688 213.48H599.208V217.76H565.688V213.48ZM579.728 217.24H585.048V226.6H579.728V217.24ZM582.408 199C590.368 199 595.088 201.24 595.088 205.36C595.088 209.44 590.368 211.72 582.408 211.72C574.408 211.72 569.688 209.44 569.688 205.36C569.688 201.24 574.408 199 582.408 199ZM582.408 202.96C577.568 202.96 575.208 203.68 575.208 205.36C575.208 207.04 577.568 207.76 582.408 207.76C587.248 207.76 589.608 207.04 589.608 205.36C589.608 203.68 587.248 202.96 582.408 202.96ZM579.728 189.48H585.048V196.16H579.728V189.48ZM613.743 191.92H629.583V196.16H613.743V191.92ZM627.183 191.92H632.383V194.24C632.383 197.52 632.383 201.96 630.983 208.56H625.663C627.183 202.04 627.183 197.48 627.183 194.24V191.92ZM627.823 199.32V203.12L613.503 204.32L612.823 199.92L627.823 199.32ZM619.903 209.56H625.263V224.6H619.903V209.56ZM637.103 189.52H642.423V226.56H637.103V189.52ZM611.343 212.24L610.703 207.92C618.063 207.92 627.023 207.8 635.023 206.92L635.423 210.8C627.223 212.04 618.583 212.24 611.343 212.24ZM647.34 217.8H680.86V222.12H647.34V217.8ZM661.26 194.64H665.74V196.76C665.74 204.52 660.14 210.76 650.7 212.48L648.62 208.24C656.86 206.96 661.26 201.88 661.26 196.76V194.64ZM662.34 194.64H666.82V196.76C666.82 201.88 671.22 206.8 679.66 208.04L677.62 212.28C668.02 210.6 662.34 204.52 662.34 196.76V194.64ZM650.1 192.6H677.98V196.84H650.1V192.6ZM683.697 206.12H717.257V210H683.697V206.12ZM687.457 211.84H713.257V220.64H692.817V223.8H687.537V217.28H708.017V215.44H687.457V211.84ZM687.537 222.68H714.297V226.28H687.537V222.68ZM687.817 190.16H713.177V198.88H693.137V201.92H687.857V195.56H707.937V193.72H687.817V190.16ZM687.857 200.8H713.857V204.4H687.857V200.8ZM731.872 190.36H759.472V194.32H731.872V190.36ZM732.152 198.88H759.192V202.84H732.152V198.88ZM736.592 191.92H741.912V201.6H736.592V191.92ZM749.432 191.92H754.752V201.6H749.432V191.92ZM728.952 204.76H762.432V208.92H728.952V204.76ZM742.992 207.28H748.312V212.44H742.992V207.28ZM732.792 211.28H758.392V220.48H738.072V223.92H732.832V216.92H753.152V215.08H732.792V211.28ZM732.832 222.44H759.352V226.32H732.832V222.44ZM775.508 192.08C781.028 192.08 785.068 197.2 785.068 205.28C785.068 213.44 781.028 218.56 775.508 218.56C769.948 218.56 765.948 213.44 765.948 205.28C765.948 197.2 769.948 192.08 775.508 192.08ZM775.508 196.92C772.828 196.92 771.028 199.84 771.028 205.28C771.028 210.8 772.828 213.76 775.508 213.76C778.228 213.76 779.988 210.8 779.988 205.28C779.988 199.84 778.228 196.92 775.508 196.92ZM791.148 189.48H796.428V226.64H791.148V189.48ZM783.508 202.84H793.388V207.12H783.508V202.84ZM837.123 189.52H842.163V212.12H837.123V189.52ZM832.723 198.56H838.563V202.8H832.723V198.56ZM829.203 190.2H834.163V210.92H829.203V190.2ZM812.083 206.16H814.643C819.963 206.16 823.403 206.04 827.483 205.32L827.923 209.48C823.723 210.28 820.123 210.36 814.643 210.36H812.083V206.16ZM812.043 192.04H826.083V203H817.243V209.52H812.083V199.12H820.963V196.2H812.043V192.04ZM829.603 212.56C837.363 212.56 842.363 215.2 842.363 219.56C842.363 223.92 837.363 226.56 829.603 226.56C821.803 226.56 816.883 223.92 816.883 219.56C816.883 215.2 821.803 212.56 829.603 212.56ZM829.603 216.6C824.843 216.6 822.163 217.6 822.163 219.56C822.163 221.56 824.843 222.52 829.603 222.52C834.363 222.52 837.003 221.56 837.003 219.56C837.003 217.6 834.363 216.6 829.603 216.6ZM861.32 191.72H866.84C866.84 202.04 862.04 208.8 849.6 212.36L847.6 208.16C858.08 205.32 861.32 200.4 861.32 194.04V191.72ZM849.48 191.72H864.44V195.92H849.48V191.72ZM861.56 198.64V202.28L848.36 203.24L847.6 199.12L861.56 198.64ZM872.44 189.56H877.8V211.36H872.44V189.56ZM865.28 211.96C873.04 211.96 877.96 214.68 877.96 219.28C877.96 223.88 873.04 226.56 865.28 226.56C857.48 226.56 852.6 223.88 852.6 219.28C852.6 214.68 857.48 211.96 865.28 211.96ZM865.28 216.12C860.44 216.12 857.92 217.12 857.92 219.28C857.92 221.4 860.44 222.48 865.28 222.48C870.08 222.48 872.64 221.4 872.64 219.28C872.64 217.12 870.08 216.12 865.28 216.12ZM898.197 203.16H904.277V207.44H898.197V203.16ZM910.157 189.52H915.237V226.56H910.157V189.52ZM902.597 190.08H907.597V224.88H902.597V190.08ZM891.717 192.12C896.637 192.12 899.797 197.2 899.797 205.56C899.797 213.96 896.637 219.04 891.717 219.04C886.837 219.04 883.717 213.96 883.717 205.56C883.717 197.2 886.837 192.12 891.717 192.12ZM891.717 197.12C889.717 197.12 888.557 199.92 888.557 205.56C888.557 211.24 889.717 214 891.717 214C893.797 214 894.957 211.24 894.957 205.56C894.957 199.92 893.797 197.12 891.717 197.12ZM942.692 201.24H947.972V206.16H942.692V201.24ZM945.412 189.88C953.852 189.88 958.812 192.08 958.812 196.16C958.812 200.24 953.852 202.48 945.412 202.48C936.932 202.48 932.012 200.24 932.012 196.16C932.012 192.08 936.932 189.88 945.412 189.88ZM945.412 193.76C940.052 193.76 937.532 194.52 937.532 196.16C937.532 197.88 940.052 198.6 945.412 198.6C950.772 198.6 953.292 197.88 953.292 196.16C953.292 194.52 950.772 193.76 945.412 193.76ZM928.652 204.52H962.132V208.72H928.652V204.52ZM932.492 210.68H958.092V220.2H937.772V223.48H932.532V216.52H952.852V214.64H932.492V210.68ZM932.532 222.32H959.052V226.32H932.532V222.32ZM988.808 189.48H994.088V226.64H988.808V189.48ZM992.888 203.48H999.448V207.88H992.888V203.48ZM966.568 213.68H969.688C975.968 213.68 980.848 213.48 986.288 212.52L986.808 216.8C981.208 217.8 976.128 218.04 969.688 218.04H966.568V213.68ZM966.528 192.64H983.568V207H971.848V215.32H966.568V202.76H978.288V196.88H966.528V192.64ZM1010.34 217.96H1043.86V222.28H1010.34V217.96ZM1024.38 210.04H1029.7V219H1024.38V210.04ZM1013.86 191.88H1019.14V197.56H1034.94V191.88H1040.22V211.16H1013.86V191.88ZM1019.14 201.72V206.92H1034.94V201.72H1019.14ZM1061.3 201.96H1067.42V206.28H1061.3V201.96ZM1053.38 192.72H1057.46V198.96C1057.46 207.36 1055.14 215.56 1049.22 219.2L1046.02 215.2C1051.46 211.84 1053.38 205.24 1053.38 198.96V192.72ZM1054.54 192.72H1058.54V198.72C1058.54 204.76 1060.1 210.92 1065.14 214.2L1062.26 218.36C1056.38 214.72 1054.54 206.72 1054.54 198.72V192.72ZM1073.46 189.52H1078.54V226.56H1073.46V189.52ZM1065.94 190.08H1070.9V224.88H1065.94V190.08ZM1090.5 208.32H1095.78V218.72H1090.5V208.32ZM1103.94 208.32H1109.26V218.72H1103.94V208.32ZM1083.14 217.96H1116.66V222.28H1083.14V217.96ZM1099.86 191.32C1107.82 191.32 1113.7 195.24 1113.7 201.28C1113.7 207.32 1107.82 211.2 1099.86 211.2C1091.86 211.2 1086.02 207.32 1086.02 201.28C1086.02 195.24 1091.86 191.32 1099.86 191.32ZM1099.86 195.48C1094.7 195.48 1091.26 197.6 1091.26 201.28C1091.26 204.92 1094.7 207.08 1099.86 207.08C1105.02 207.08 1108.46 204.92 1108.46 201.28C1108.46 197.6 1105.02 195.48 1099.86 195.48ZM1136.4 193.909L1135.84 214.278H1130.64L1130.08 193.909H1136.4ZM1133.24 223.369C1132.31 223.369 1131.5 223.038 1130.83 222.375C1130.16 221.703 1129.82 220.898 1129.83 219.96C1129.82 219.032 1130.16 218.237 1130.83 217.574C1131.5 216.911 1132.31 216.58 1133.24 216.58C1134.14 216.58 1134.93 216.911 1135.62 217.574C1136.3 218.237 1136.64 219.032 1136.65 219.96C1136.64 220.585 1136.48 221.158 1136.15 221.679C1135.84 222.19 1135.43 222.602 1134.92 222.915C1134.41 223.218 1133.85 223.369 1133.24 223.369Z" fill="#B6B6B6"/>
</g>
<path d="M168.844 140.032L165.622 136.876L163.156 115.77L163.016 115.633L153.996 124.843L149.683 120.618L165.077 104.902L168.59 108.343L171.337 128.58L171.476 128.716L180.571 119.431L184.884 123.655L168.844 140.032Z" fill="#B6B6B6"/>
<path d="M157.962 161.582L133.385 149.76L136.664 142.944L161.241 154.766L157.962 161.582ZM131.864 144.812C131.377 145.825 130.622 146.533 129.601 146.935C128.575 147.322 127.587 147.286 126.638 146.83C125.699 146.378 125.065 145.633 124.737 144.595C124.403 143.542 124.48 142.508 124.968 141.495C125.455 140.481 126.212 139.782 127.239 139.395C128.26 138.993 129.239 139.018 130.178 139.469C131.127 139.926 131.769 140.681 132.103 141.735C132.431 142.773 132.351 143.799 131.864 144.812Z" fill="#B6B6B6"/>
<path d="M139.295 188.903L123.718 187.296L124.494 179.772L151.623 182.571L150.877 189.795L145.95 189.287L145.92 189.569C147.447 190.346 148.619 191.496 149.438 193.02C150.257 194.533 150.562 196.308 150.352 198.345C150.165 200.158 149.588 201.711 148.622 203.003C147.655 204.296 146.373 205.252 144.773 205.873C143.176 206.481 141.316 206.682 139.196 206.475L121.922 204.693L122.699 197.169L138.63 198.813C140.232 198.966 141.542 198.667 142.56 197.915C143.578 197.164 144.16 196.075 144.307 194.651C144.401 193.744 144.282 192.875 143.951 192.044C143.609 191.211 143.051 190.511 142.276 189.943C141.503 189.363 140.509 189.017 139.295 188.903Z" fill="#B6B6B6"/>
<path d="M151.89 257.488L149.141 251.561L151.591 246.802L153.646 242.287L158.009 233.549L161.028 240.056L158.12 246.024L156.254 249.258L151.89 257.488ZM138.578 241.957C142.175 240.288 145.552 239.55 148.708 239.743C151.859 239.925 154.643 240.878 157.061 242.601C159.462 244.318 161.338 246.632 162.688 249.542C164.048 252.473 164.603 255.413 164.353 258.361C164.102 261.309 163.029 264.044 161.134 266.568C159.238 269.092 156.497 271.186 152.911 272.85C149.314 274.518 145.939 275.262 142.788 275.08C139.637 274.897 136.861 273.948 134.459 272.23C132.046 270.518 130.16 268.196 128.8 265.265C127.45 262.355 126.9 259.426 127.151 256.478C127.385 253.524 128.451 250.786 130.346 248.262C132.237 245.728 134.981 243.626 138.578 241.957ZM141.858 249.028C139.528 250.109 137.725 251.37 136.449 252.81C135.168 254.239 134.406 255.774 134.162 257.414C133.918 259.054 134.187 260.717 134.969 262.403C135.751 264.088 136.847 265.368 138.257 266.24C139.666 267.113 141.333 267.527 143.257 267.483C145.176 267.428 147.3 266.86 149.63 265.779C151.96 264.698 153.766 263.442 155.047 262.013C156.323 260.573 157.083 259.033 157.327 257.393C157.571 255.753 157.302 254.09 156.52 252.404C155.737 250.718 154.642 249.439 153.232 248.566C151.822 247.694 150.158 247.285 148.239 247.34C146.315 247.384 144.189 247.947 141.858 249.028Z" fill="#B6B6B6"/>
<path d="M214.828 296.362C217.386 297.513 219.355 299.022 220.735 300.889C222.099 302.762 222.847 304.877 222.981 307.235C223.109 309.603 222.583 312.099 221.403 314.722C220.251 317.28 218.744 319.302 216.882 320.787C215.019 322.272 212.944 323.149 210.655 323.417C208.356 323.681 205.987 323.263 203.547 322.166C201.906 321.427 200.498 320.475 199.322 319.31C198.13 318.151 197.241 316.81 196.654 315.286C196.057 313.758 195.818 312.067 195.939 310.214C196.054 308.37 196.588 306.391 197.54 304.275L198.393 302.381L219.393 311.831L217.47 316.106L202.962 309.577C202.515 310.57 202.335 311.547 202.422 312.508C202.509 313.469 202.838 314.337 203.41 315.114C203.967 315.897 204.747 316.514 205.751 316.966C206.798 317.437 207.835 317.612 208.864 317.49C209.876 317.375 210.791 317.014 211.609 316.409C212.422 315.814 213.055 315.028 213.507 314.05L215.336 309.986C215.89 308.756 216.142 307.59 216.092 306.49C216.031 305.386 215.689 304.401 215.065 303.536C214.442 302.672 213.553 301.979 212.398 301.46C211.631 301.115 210.881 300.907 210.147 300.836C209.413 300.766 208.722 300.844 208.074 301.072C207.427 301.3 206.843 301.673 206.324 302.192L200.134 298.9C201.148 297.513 202.414 296.474 203.933 295.781C205.436 295.095 207.119 294.787 208.981 294.86C210.828 294.938 212.777 295.439 214.828 296.362Z" fill="#B6B6B6"/>
<path d="M239.625 340.055L242.765 303.827L250.3 304.48L247.161 340.708L239.625 340.055Z" fill="#B6B6B6"/>
<path d="M294.448 286.421L304.2 322.631L297 324.571L295.808 320.147L295.482 320.235C295.353 321.03 295.084 321.875 294.676 322.769C294.258 323.678 293.625 324.511 292.774 325.267C291.915 326.038 290.748 326.622 289.274 327.019C287.354 327.536 285.447 327.511 283.553 326.942C281.662 326.385 279.96 325.231 278.446 323.481C276.936 321.743 275.775 319.365 274.962 316.347C274.171 313.41 273.977 310.802 274.381 308.523C274.776 306.259 275.645 304.388 276.988 302.911C278.323 301.448 279.99 300.447 281.99 299.909C283.408 299.527 284.677 299.437 285.797 299.637C286.907 299.841 287.871 300.213 288.69 300.752C289.513 301.303 290.188 301.899 290.717 302.542L290.94 302.482L287.144 288.389L294.448 286.421ZM293.505 311.39C293.083 309.824 292.498 308.516 291.749 307.467C291.001 306.419 290.128 305.679 289.129 305.249C288.134 304.831 287.048 304.78 285.87 305.097C284.682 305.418 283.764 306.014 283.116 306.887C282.472 307.772 282.095 308.854 281.986 310.134C281.869 311.428 282.017 312.841 282.429 314.373C282.839 315.893 283.41 317.173 284.144 318.214C284.878 319.254 285.744 319.989 286.742 320.419C287.741 320.849 288.84 320.902 290.04 320.579C291.229 320.259 292.15 319.674 292.804 318.823C293.446 317.976 293.829 316.917 293.952 315.645C294.076 314.374 293.926 312.955 293.505 311.39Z" fill="#B6B6B6"/>
<path d="M348.66 249.027L369.228 266.937L364.494 272.374L360.865 269.214L360.655 269.455C361.487 270.933 361.816 272.475 361.642 274.081C361.468 275.687 360.774 277.187 359.561 278.579C358.333 279.99 356.935 280.883 355.367 281.26C353.808 281.645 352.286 281.481 350.802 280.77L350.616 280.984C351.429 282.43 351.71 284.009 351.459 285.721C351.209 287.45 350.428 289.068 349.114 290.577C347.443 292.496 345.475 293.522 343.21 293.653C340.947 293.801 338.699 292.903 336.467 290.96L322.635 278.915L327.59 273.224L340.298 284.289C341.441 285.284 342.562 285.727 343.662 285.618C344.762 285.508 345.708 284.998 346.501 284.087C347.403 283.052 347.776 281.956 347.621 280.801C347.474 279.653 346.865 278.613 345.794 277.68L333.234 266.743L338.05 261.213L350.878 272.383C351.886 273.261 352.942 273.671 354.046 273.611C355.141 273.561 356.097 273.067 356.914 272.13C357.465 271.496 357.802 270.785 357.924 269.996C358.047 269.224 357.951 268.442 357.636 267.65C357.33 266.866 356.798 266.143 356.039 265.482L343.693 254.732L348.66 249.027Z" fill="#B6B6B6"/>
<path d="M354.723 222.085L381.082 229.087L379.139 236.398L352.781 229.395L354.723 222.085ZM383.504 233.662C383.792 232.575 384.401 231.739 385.328 231.152C386.264 230.58 387.241 230.43 388.259 230.7C389.266 230.967 390.028 231.58 390.545 232.538C391.07 233.511 391.189 234.54 390.9 235.627C390.611 236.714 389.999 237.543 389.063 238.115C388.136 238.702 387.169 238.861 386.162 238.594C385.144 238.323 384.372 237.702 383.846 236.729C383.329 235.771 383.215 234.749 383.504 233.662Z" fill="#B6B6B6"/>
<path d="M382.161 190.222C383.573 189.94 384.62 189.224 385.304 188.075C385.987 186.925 386.238 185.431 386.057 183.593C385.934 182.345 385.653 181.308 385.215 180.483C384.788 179.657 384.246 179.044 383.588 178.645C382.932 178.258 382.215 178.102 381.437 178.179C380.787 178.22 380.235 178.411 379.781 178.753C379.328 179.107 378.951 179.566 378.65 180.131C378.361 180.695 378.121 181.337 377.93 182.058C377.751 182.777 377.613 183.54 377.514 184.347L377.057 187.675C376.859 189.288 376.531 190.784 376.072 192.161C375.614 193.539 375.002 194.753 374.237 195.804C373.473 196.855 372.533 197.702 371.419 198.348C370.307 199.005 368.997 199.413 367.49 199.574C365.275 199.781 363.299 199.405 361.563 198.446C359.839 197.498 358.427 196.02 357.325 194.011C356.235 192.013 355.546 189.542 355.255 186.597C354.967 183.675 355.163 181.087 355.845 178.831C356.527 176.587 357.686 174.772 359.322 173.385C360.97 172.009 363.093 171.163 365.691 170.848L366.421 178.251C365.216 178.453 364.237 178.901 363.485 179.594C362.745 180.297 362.221 181.187 361.911 182.265C361.614 183.353 361.53 184.556 361.66 185.876C361.788 187.171 362.088 188.278 362.559 189.195C363.031 190.124 363.629 190.82 364.353 191.284C365.077 191.748 365.874 191.936 366.746 191.85C367.559 191.77 368.218 191.461 368.724 190.924C369.231 190.398 369.634 189.656 369.932 188.699C370.231 187.754 370.475 186.606 370.663 185.255L371.264 181.217C371.705 178.093 372.627 175.569 374.031 173.647C375.436 171.724 377.475 170.636 380.151 170.384C382.34 170.156 384.312 170.551 386.066 171.567C387.821 172.595 389.26 174.101 390.383 176.083C391.507 178.066 392.198 180.377 392.459 183.015C392.724 185.701 392.496 188.091 391.774 190.184C391.054 192.289 389.931 193.982 388.404 195.262C386.877 196.543 385.037 197.307 382.885 197.555L382.161 190.222Z" fill="#B6B6B6"/>
<path d="M354.753 118.288L328.401 130.132L322.537 123.947L335.77 98.2636L341.267 104.062L331.002 121.598L331.198 121.804L349.244 112.476L354.753 118.288Z" fill="#B6B6B6"/>
<path d="M285.948 103.642C283.321 102.658 281.259 101.278 279.763 99.5031C278.282 97.7216 277.399 95.6587 277.115 93.3146C276.835 90.9594 277.2 88.4351 278.21 85.7417C279.195 83.1149 280.569 81.0006 282.332 79.399C284.096 77.7973 286.111 76.7893 288.378 76.3749C290.655 75.9647 293.047 76.2291 295.551 77.1683C297.236 77.7999 298.703 78.6595 299.951 79.747C301.215 80.8275 302.188 82.109 302.871 83.5914C303.565 85.0779 303.912 86.7501 303.91 88.6079C303.913 90.4547 303.508 92.4643 302.693 94.6367L301.964 96.5819L280.4 88.4972L282.046 84.1081L296.943 89.6932C297.325 88.6735 297.442 87.687 297.294 86.7339C297.145 85.7807 296.761 84.9349 296.14 84.1965C295.535 83.4512 294.716 82.8853 293.686 82.4988C292.61 82.0957 291.564 81.9878 290.546 82.1748C289.542 82.355 288.652 82.7735 287.875 83.4302C287.102 84.0759 286.521 84.9009 286.132 85.9054L284.567 90.0784C284.093 91.342 283.917 92.521 284.037 93.6155C284.169 94.7141 284.574 95.6749 285.251 96.4978C285.929 97.3207 286.861 97.9544 288.047 98.3991C288.833 98.6941 289.595 98.8534 290.333 98.8769C291.07 98.9004 291.754 98.7778 292.386 98.509C293.017 98.2401 293.576 97.83 294.061 97.2786L300.449 100.167C299.526 101.616 298.329 102.735 296.858 103.523C295.402 104.305 293.742 104.719 291.879 104.766C290.031 104.807 288.054 104.432 285.948 103.642Z" fill="#B6B6B6"/>
<path d="M230.914 100.141L218.165 102.044L212.796 66.0795L225.65 64.1603C229.268 63.6202 232.489 63.8752 235.315 64.9254C238.139 65.9639 240.454 67.7188 242.259 70.19C244.076 72.6595 245.263 75.7616 245.821 79.4962C246.38 83.2426 246.152 86.5679 245.138 89.4721C244.135 92.3745 242.424 94.7424 240.005 96.5757C237.597 98.4072 234.567 99.5956 230.914 100.141ZM224.796 94.3941L229.626 93.673C231.873 93.3374 233.705 92.6571 235.12 91.632C236.544 90.5935 237.517 89.1736 238.038 87.3724C238.569 85.5577 238.634 83.3099 238.234 80.6289C237.837 77.9713 237.121 75.8582 236.085 74.2894C235.06 72.7189 233.722 71.6501 232.07 71.083C230.417 70.5159 228.467 70.4001 226.219 70.7357L221.372 71.4594L224.796 94.3941Z" fill="#B6B6B6"/>
<defs>
<filter id="filter0_d_204_481" x="441.34" y="187.18" width="701.612" height="49.7602" filterUnits="userSpaceOnUse" color-interpolation-filters="sRGB">
<feFlood flood-opacity="0" result="BackgroundImageFix"/>
<feColorMatrix in="SourceAlpha" type="matrix" values="0 0 0 0 0 0 0 0 0 0 0 0 0 0 0 0 0 0 127 0" result="hardAlpha"/>
<feOffset dy="4"/>
<feGaussianBlur stdDeviation="3.15"/>
<feComposite in2="hardAlpha" operator="out"/>
<feColorMatrix type="matrix" values="0 0 0 0 0 0 0 0 0 0 0 0 0 0 0 0 0 0 0.25 0"/>
<feBlend mode="normal" in2="BackgroundImageFix" result="effect1_dropShadow_204_481"/>
<feBlend mode="normal" in="SourceGraphic" in2="effect1_dropShadow_204_481" result="shape"/>
</filter>
</defs>
</svg>
