<svg width="1400" height="400" viewBox="0 0 1400 400" fill="none" xmlns="http://www.w3.org/2000/svg">
<rect x="0.5" y="0.5" width="1399" height="399" fill="white" stroke="#999999"/>
<path d="M164.844 140.031L161.622 136.875L159.156 115.77L159.016 115.633L149.996 124.842L145.683 120.618L161.077 104.901L164.59 108.343L167.337 128.579L167.476 128.716L176.571 119.431L180.884 123.655L164.844 140.031Z" fill="#202B3D"/>
<path d="M153.962 161.582L129.385 149.76L132.664 142.943L157.241 154.765L153.962 161.582ZM127.864 144.812C127.377 145.825 126.622 146.533 125.601 146.935C124.575 147.321 123.587 147.286 122.638 146.829C121.699 146.378 121.065 145.633 120.737 144.595C120.403 143.541 120.48 142.508 120.968 141.494C121.455 140.481 122.212 139.781 123.239 139.395C124.26 138.993 125.239 139.017 126.178 139.469C127.127 139.926 127.769 140.681 128.103 141.735C128.431 142.773 128.351 143.798 127.864 144.812Z" fill="#202B3D"/>
<path d="M135.295 188.903L119.718 187.296L120.494 179.772L147.623 182.571L146.877 189.795L141.95 189.286L141.92 189.569C143.447 190.345 144.619 191.495 145.438 193.02C146.257 194.532 146.562 196.307 146.352 198.344C146.165 200.157 145.588 201.71 144.622 203.003C143.655 204.296 142.373 205.252 140.773 205.872C139.176 206.481 137.316 206.682 135.196 206.475L117.922 204.692L118.699 197.169L134.63 198.812C136.232 198.966 137.542 198.667 138.56 197.915C139.578 197.163 140.16 196.075 140.307 194.65C140.401 193.744 140.282 192.875 139.951 192.043C139.609 191.21 139.051 190.51 138.276 189.942C137.503 189.363 136.509 189.016 135.295 188.903Z" fill="#202B3D"/>
<path d="M147.89 257.487L145.141 251.56L147.591 246.802L149.646 242.286L154.009 233.548L157.028 240.055L154.12 246.024L152.254 249.258L147.89 257.487ZM134.578 241.957C138.175 240.288 141.552 239.55 144.708 239.743C147.859 239.925 150.643 240.878 153.061 242.601C155.462 244.318 157.338 246.632 158.688 249.542C160.048 252.473 160.603 255.413 160.353 258.36C160.102 261.308 159.029 264.044 157.134 266.568C155.238 269.091 152.497 271.185 148.911 272.849C145.314 274.518 141.939 275.261 138.788 275.079C135.637 274.897 132.861 273.947 130.459 272.23C128.046 270.517 126.16 268.196 124.8 265.264C123.45 262.354 122.9 259.425 123.151 256.477C123.385 253.524 124.451 250.785 126.346 248.262C128.237 245.727 130.981 243.625 134.578 241.957ZM137.858 249.027C135.528 250.108 133.725 251.369 132.449 252.809C131.168 254.239 130.406 255.774 130.162 257.413C129.918 259.053 130.187 260.716 130.969 262.402C131.751 264.088 132.847 265.367 134.257 266.24C135.666 267.113 137.333 267.527 139.257 267.482C141.176 267.427 143.3 266.859 145.63 265.778C147.96 264.697 149.766 263.442 151.047 262.012C152.323 260.572 153.083 259.032 153.327 257.392C153.571 255.752 153.302 254.089 152.52 252.404C151.737 250.718 150.642 249.438 149.232 248.566C147.822 247.693 146.158 247.284 144.239 247.339C142.315 247.384 140.189 247.946 137.858 249.027Z" fill="#202B3D"/>
<path d="M210.828 296.361C213.386 297.512 215.355 299.022 216.735 300.888C218.099 302.761 218.847 304.877 218.981 307.234C219.109 309.602 218.583 312.098 217.403 314.721C216.251 317.279 214.744 319.301 212.882 320.787C211.019 322.272 208.944 323.149 206.655 323.417C204.356 323.68 201.987 323.263 199.547 322.165C197.906 321.427 196.498 320.475 195.322 319.31C194.13 318.15 193.241 316.809 192.654 315.286C192.057 313.758 191.818 312.067 191.939 310.213C192.054 308.37 192.588 306.39 193.54 304.275L194.393 302.38L215.393 311.831L213.47 316.106L198.962 309.577C198.515 310.57 198.335 311.547 198.422 312.507C198.509 313.468 198.838 314.337 199.41 315.114C199.967 315.896 200.747 316.513 201.751 316.965C202.798 317.436 203.835 317.611 204.864 317.49C205.876 317.374 206.791 317.014 207.609 316.408C208.422 315.813 209.055 315.027 209.507 314.05L211.336 309.986C211.89 308.755 212.142 307.59 212.092 306.49C212.031 305.385 211.689 304.4 211.065 303.536C210.442 302.671 209.553 301.979 208.398 301.459C207.631 301.114 206.881 300.906 206.147 300.836C205.413 300.765 204.722 300.844 204.074 301.071C203.427 301.299 202.843 301.673 202.324 302.192L196.134 298.9C197.148 297.513 198.414 296.473 199.933 295.781C201.436 295.094 203.119 294.787 204.981 294.859C206.828 294.938 208.777 295.438 210.828 296.361Z" fill="#202B3D"/>
<path d="M235.625 340.055L238.765 303.827L246.3 304.48L243.161 340.708L235.625 340.055Z" fill="#202B3D"/>
<path d="M290.448 286.421L300.2 322.631L293 324.57L291.808 320.147L291.482 320.234C291.353 321.029 291.084 321.874 290.676 322.769C290.258 323.678 289.625 324.511 288.774 325.267C287.915 326.038 286.748 326.621 285.274 327.019C283.354 327.536 281.447 327.51 279.553 326.941C277.662 326.384 275.96 325.231 274.446 323.481C272.936 321.742 271.775 319.364 270.962 316.347C270.171 313.409 269.977 310.801 270.381 308.522C270.776 306.258 271.645 304.388 272.988 302.91C274.323 301.448 275.99 300.447 277.99 299.908C279.408 299.527 280.677 299.436 281.797 299.637C282.907 299.841 283.871 300.212 284.69 300.752C285.513 301.302 286.188 301.899 286.717 302.541L286.94 302.481L283.144 288.388L290.448 286.421ZM289.505 311.389C289.083 309.823 288.498 308.516 287.749 307.467C287.001 306.418 286.128 305.679 285.129 305.249C284.134 304.83 283.048 304.78 281.87 305.097C280.682 305.417 279.764 306.014 279.116 306.887C278.472 307.771 278.095 308.854 277.986 310.133C277.869 311.428 278.017 312.841 278.429 314.372C278.839 315.892 279.41 317.173 280.144 318.213C280.878 319.254 281.744 319.989 282.742 320.419C283.741 320.848 284.84 320.902 286.04 320.579C287.229 320.258 288.15 319.673 288.804 318.823C289.446 317.976 289.829 316.916 289.952 315.645C290.076 314.374 289.926 312.955 289.505 311.389Z" fill="#202B3D"/>
<path d="M344.66 249.027L365.228 266.937L360.494 272.373L356.865 269.213L356.655 269.454C357.487 270.932 357.816 272.474 357.642 274.081C357.468 275.687 356.774 277.186 355.561 278.579C354.333 279.989 352.935 280.883 351.367 281.26C349.808 281.644 348.286 281.481 346.802 280.769L346.616 280.984C347.429 282.429 347.71 284.008 347.459 285.72C347.209 287.449 346.428 289.068 345.114 290.577C343.443 292.496 341.475 293.521 339.21 293.652C336.947 293.8 334.699 292.903 332.467 290.959L318.635 278.914L323.59 273.223L336.298 284.289C337.441 285.284 338.562 285.727 339.662 285.617C340.762 285.508 341.708 284.997 342.501 284.087C343.403 283.051 343.776 281.956 343.621 280.8C343.474 279.653 342.865 278.612 341.794 277.68L329.234 266.742L334.05 261.212L346.878 272.383C347.886 273.261 348.942 273.67 350.046 273.611C351.141 273.56 352.097 273.067 352.914 272.129C353.465 271.495 353.802 270.784 353.924 269.995C354.047 269.224 353.951 268.441 353.636 267.649C353.33 266.865 352.798 266.143 352.039 265.482L339.693 254.731L344.66 249.027Z" fill="#202B3D"/>
<path d="M350.723 222.084L377.082 229.087L375.139 236.397L348.781 229.395L350.723 222.084ZM379.504 233.662C379.792 232.575 380.401 231.738 381.328 231.152C382.264 230.58 383.241 230.429 384.259 230.7C385.266 230.967 386.028 231.58 386.545 232.538C387.07 233.51 387.189 234.54 386.9 235.627C386.611 236.713 385.999 237.543 385.063 238.115C384.136 238.701 383.169 238.861 382.162 238.593C381.144 238.323 380.372 237.701 379.846 236.729C379.329 235.771 379.215 234.749 379.504 233.662Z" fill="#202B3D"/>
<path d="M378.161 190.222C379.573 189.94 380.62 189.224 381.304 188.074C381.987 186.924 382.238 185.431 382.057 183.593C381.934 182.344 381.653 181.307 381.215 180.482C380.788 179.656 380.246 179.043 379.588 178.644C378.932 178.257 378.215 178.102 377.437 178.179C376.787 178.219 376.235 178.41 375.781 178.752C375.328 179.106 374.951 179.566 374.65 180.131C374.361 180.695 374.121 181.337 373.93 182.057C373.751 182.777 373.613 183.54 373.514 184.347L373.057 187.675C372.859 189.288 372.531 190.783 372.072 192.161C371.614 193.538 371.002 194.752 370.237 195.803C369.473 196.854 368.533 197.702 367.419 198.347C366.307 199.004 364.997 199.413 363.49 199.573C361.275 199.78 359.299 199.404 357.563 198.445C355.839 197.497 354.427 196.019 353.325 194.011C352.235 192.013 351.546 189.541 351.255 186.596C350.967 183.675 351.163 181.086 351.845 178.83C352.527 176.586 353.686 174.771 355.322 173.385C356.97 172.009 359.093 171.163 361.691 170.847L362.421 178.251C361.216 178.453 360.237 178.9 359.485 179.593C358.745 180.297 358.221 181.187 357.911 182.264C357.614 183.352 357.53 184.556 357.66 185.875C357.788 187.171 358.088 188.277 358.559 189.194C359.031 190.123 359.629 190.819 360.353 191.283C361.077 191.747 361.874 191.936 362.746 191.85C363.559 191.77 364.218 191.461 364.724 190.923C365.231 190.397 365.634 189.656 365.932 188.699C366.231 187.753 366.475 186.605 366.663 185.254L367.264 181.216C367.705 178.092 368.627 175.569 370.031 173.646C371.436 171.723 373.475 170.636 376.151 170.384C378.34 170.156 380.312 170.55 382.066 171.567C383.821 172.595 385.26 174.1 386.383 176.083C387.507 178.065 388.198 180.376 388.459 183.015C388.724 185.701 388.496 188.09 387.774 190.183C387.054 192.288 385.931 193.981 384.404 195.262C382.877 196.542 381.037 197.307 378.885 197.555L378.161 190.222Z" fill="#202B3D"/>
<path d="M350.753 118.287L324.401 130.131L318.537 123.946L331.77 98.2632L337.267 104.062L327.002 121.597L327.198 121.804L345.244 112.476L350.753 118.287Z" fill="#202B3D"/>
<path d="M281.948 103.642C279.321 102.657 277.259 101.277 275.763 99.5026C274.282 97.7211 273.399 95.6582 273.115 93.3141C272.835 90.9589 273.2 88.4346 274.21 85.7413C275.195 83.1144 276.569 81.0002 278.332 79.3985C280.096 77.7968 282.111 76.7888 284.378 76.3744C286.655 75.9642 289.047 76.2286 291.551 77.1678C293.236 77.7994 294.703 78.659 295.951 79.7465C297.215 80.827 298.188 82.1085 298.871 83.5909C299.565 85.0774 299.912 86.7496 299.91 88.6074C299.913 90.4542 299.508 92.4638 298.693 94.6362L297.964 96.5814L276.4 88.4967L278.046 84.1076L292.943 89.6927C293.325 88.673 293.442 87.6865 293.294 86.7334C293.145 85.7802 292.761 84.9344 292.14 84.196C291.535 83.4507 290.716 82.8848 289.686 82.4984C288.61 82.0953 287.564 81.9873 286.546 82.1744C285.542 82.3545 284.652 82.773 283.875 83.4297C283.102 84.0754 282.521 84.9005 282.132 85.9049L280.567 90.0779C280.093 91.3415 279.917 92.5205 280.037 93.615C280.169 94.7136 280.574 95.6744 281.251 96.4973C281.929 97.3202 282.861 97.954 284.047 98.3986C284.833 98.6936 285.595 98.8529 286.333 98.8764C287.07 98.8999 287.754 98.7773 288.386 98.5085C289.017 98.2397 289.576 97.8295 290.061 97.2781L296.449 100.166C295.526 101.616 294.329 102.734 292.858 103.523C291.402 104.304 289.742 104.719 287.879 104.766C286.031 104.806 284.054 104.431 281.948 103.642Z" fill="#202B3D"/>
<path d="M226.914 100.141L214.165 102.044L208.796 66.079L221.65 64.1598C225.268 63.6197 228.489 63.8747 231.315 64.9249C234.139 65.9635 236.454 67.7183 238.259 70.1896C240.076 72.659 241.263 75.7611 241.821 79.4958C242.38 83.2421 242.152 86.5674 241.138 89.4716C240.135 92.374 238.424 94.7419 236.005 96.5752C233.597 98.4067 230.567 99.5952 226.914 100.141ZM220.796 94.3936L225.626 93.6726C227.873 93.337 229.705 92.6566 231.12 91.6315C232.544 90.593 233.517 89.1731 234.038 87.3719C234.569 85.5572 234.634 83.3094 234.234 80.6284C233.837 77.9708 233.121 75.8577 232.085 74.2889C231.06 72.7184 229.722 71.6496 228.07 71.0825C226.417 70.5154 224.467 70.3996 222.219 70.7352L217.372 71.4589L220.796 94.3936Z" fill="#202B3D"/>
<g filter="url(#filter0_d_104_445)">
<path d="M452.224 166.184H456.512V195.912H452.224V166.184ZM455.552 177.16H460.8V180.648H455.552V177.16ZM434.432 185.256H436.928C441.92 185.256 445.856 185.096 450.208 184.328L450.624 187.848C446.144 188.648 442.08 188.776 436.928 188.776H434.432V185.256ZM434.432 168.936H448.256V172.36H438.656V186.952H434.432V168.936ZM484.414 169.864H489.534V173.32H484.414V169.864ZM484.414 176.296H489.534V179.752H484.414V176.296ZM470.654 167.816C475.23 167.816 478.718 170.824 478.718 175.016C478.718 179.176 475.23 182.184 470.654 182.184C466.078 182.184 462.59 179.176 462.59 175.016C462.59 170.824 466.078 167.816 470.654 167.816ZM470.654 171.368C468.414 171.368 466.75 172.744 466.75 175.016C466.75 177.32 468.414 178.632 470.654 178.632C472.894 178.632 474.558 177.32 474.558 175.016C474.558 172.744 472.894 171.368 470.654 171.368ZM481.47 166.216H485.726V183.496H481.47V166.216ZM476.062 184.136C482.174 184.136 486.078 186.344 486.078 189.992C486.078 193.672 482.174 195.848 476.062 195.848C469.918 195.848 466.014 193.672 466.014 189.992C466.014 186.344 469.918 184.136 476.062 184.136ZM476.062 187.496C472.286 187.496 470.238 188.296 470.238 189.992C470.238 191.72 472.286 192.52 476.062 192.52C479.838 192.52 481.854 191.72 481.854 189.992C481.854 188.296 479.838 187.496 476.062 187.496ZM510.587 166.248H514.843V188.392H510.587V166.248ZM513.627 175.272H518.779V178.76H513.627V175.272ZM491.515 169.32H508.955V172.648H491.515V169.32ZM500.251 173.704C504.507 173.704 507.515 176.04 507.515 179.432C507.515 182.824 504.507 185.128 500.251 185.128C495.963 185.128 492.955 182.824 492.955 179.432C492.955 176.04 495.963 173.704 500.251 173.704ZM500.251 176.936C498.363 176.936 497.051 177.832 497.051 179.432C497.051 181.032 498.363 181.896 500.251 181.896C502.139 181.896 503.451 181.032 503.451 179.432C503.451 177.832 502.139 176.936 500.251 176.936ZM498.107 166.184H502.363V170.952H498.107V166.184ZM495.739 191.944H515.899V195.336H495.739V191.944ZM495.739 186.728H499.995V193.416H495.739V186.728ZM529.991 168.136H542.663V171.528H529.991V168.136ZM540.743 168.136H544.903V169.992C544.903 172.616 544.903 176.168 543.783 181.448H539.527C540.743 176.232 540.743 172.584 540.743 169.992V168.136ZM541.255 174.056V177.096L529.799 178.056L529.255 174.536L541.255 174.056ZM534.919 182.248H539.207V194.28H534.919V182.248ZM548.679 166.216H552.935V195.848H548.679V166.216ZM528.071 184.392L527.559 180.936C533.447 180.936 540.615 180.84 547.015 180.136L547.335 183.24C540.775 184.232 533.863 184.392 528.071 184.392ZM556.868 188.84H583.684V192.296H556.868V188.84ZM568.004 170.312H571.588V172.008C571.588 178.216 567.108 183.208 559.556 184.584L557.892 181.192C564.484 180.168 568.004 176.104 568.004 172.008V170.312ZM568.868 170.312H572.452V172.008C572.452 176.104 575.972 180.04 582.724 181.032L581.092 184.424C573.412 183.08 568.868 178.216 568.868 172.008V170.312ZM559.076 168.68H581.38V172.072H559.076V168.68ZM585.954 179.496H612.802V182.6H585.954V179.496ZM588.962 184.072H609.602V191.112H593.25V193.64H589.026V188.424H605.41V186.952H588.962V184.072ZM589.026 192.744H610.434V195.624H589.026V192.744ZM589.25 166.728H609.538V173.704H593.506V176.136H589.282V171.048H605.346V169.576H589.25V166.728ZM589.282 175.24H610.082V178.12H589.282V175.24ZM624.494 166.888H646.574V170.056H624.494V166.888ZM624.718 173.704H646.35V176.872H624.718V173.704ZM628.27 168.136H632.526V175.88H628.27V168.136ZM638.542 168.136H642.798V175.88H638.542V168.136ZM622.158 178.408H648.942V181.736H622.158V178.408ZM633.39 180.424H637.646V184.552H633.39V180.424ZM625.23 183.624H645.71V190.984H629.454V193.736H625.262V188.136H641.518V186.664H625.23V183.624ZM625.262 192.552H646.478V195.656H625.262V192.552ZM659.403 168.264C663.819 168.264 667.051 172.36 667.051 178.824C667.051 185.352 663.819 189.448 659.403 189.448C654.955 189.448 651.755 185.352 651.755 178.824C651.755 172.36 654.955 168.264 659.403 168.264ZM659.403 172.136C657.259 172.136 655.819 174.472 655.819 178.824C655.819 183.24 657.259 185.608 659.403 185.608C661.579 185.608 662.987 183.24 662.987 178.824C662.987 174.472 661.579 172.136 659.403 172.136ZM671.915 166.184H676.139V195.912H671.915V166.184ZM665.803 176.872H673.707V180.296H665.803V176.872ZM680.425 188.968H707.241V192.424H680.425V188.968ZM691.657 182.632H695.913V189.8H691.657V182.632ZM683.241 168.104H687.465V172.648H700.105V168.104H704.329V183.528H683.241V168.104ZM687.465 175.976V180.136H700.105V175.976H687.465ZM712.262 168.712H731.046V172.136H712.262V168.712ZM709.542 188.84H736.326V192.296H709.542V188.84ZM719.014 178.664H723.27V190.536H719.014V178.664ZM729.51 168.712H733.766V171.56C733.766 175.272 733.766 179.432 732.582 185.768L728.326 185.288C729.51 179.4 729.51 175.112 729.51 171.56V168.712ZM766.93 166.216H770.962V184.296H766.93V166.216ZM763.41 173.448H768.082V176.84H763.41V173.448ZM760.594 166.76H764.562V183.336H760.594V166.76ZM746.898 179.528H748.946C753.202 179.528 755.954 179.432 759.218 178.856L759.57 182.184C756.21 182.824 753.33 182.888 748.946 182.888H746.898V179.528ZM746.866 168.232H758.098V177H751.026V182.216H746.898V173.896H754.002V171.56H746.866V168.232ZM760.914 184.648C767.122 184.648 771.122 186.76 771.122 190.248C771.122 193.736 767.122 195.848 760.914 195.848C754.674 195.848 750.738 193.736 750.738 190.248C750.738 186.76 754.674 184.648 760.914 184.648ZM760.914 187.88C757.106 187.88 754.962 188.68 754.962 190.248C754.962 191.848 757.106 192.616 760.914 192.616C764.722 192.616 766.834 191.848 766.834 190.248C766.834 188.68 764.722 187.88 760.914 187.88ZM786.287 167.976H790.703C790.703 176.232 786.863 181.64 776.911 184.488L775.311 181.128C783.695 178.856 786.287 174.92 786.287 169.832V167.976ZM776.815 167.976H788.783V171.336H776.815V167.976ZM786.479 173.512V176.424L775.919 177.192L775.311 173.896L786.479 173.512ZM795.183 166.248H799.471V183.688H795.183V166.248ZM789.455 184.168C795.663 184.168 799.599 186.344 799.599 190.024C799.599 193.704 795.663 195.848 789.455 195.848C783.215 195.848 779.311 193.704 779.311 190.024C779.311 186.344 783.215 184.168 789.455 184.168ZM789.455 187.496C785.583 187.496 783.567 188.296 783.567 190.024C783.567 191.72 785.583 192.584 789.455 192.584C793.295 192.584 795.343 191.72 795.343 190.024C795.343 188.296 793.295 187.496 789.455 187.496ZM815.789 177.128H820.653V180.552H815.789V177.128ZM825.357 166.216H829.421V195.848H825.357V166.216ZM819.309 166.664H823.309V194.504H819.309V166.664ZM810.605 168.296C814.541 168.296 817.069 172.36 817.069 179.048C817.069 185.768 814.541 189.832 810.605 189.832C806.701 189.832 804.205 185.768 804.205 179.048C804.205 172.36 806.701 168.296 810.605 168.296ZM810.605 172.296C809.005 172.296 808.077 174.536 808.077 179.048C808.077 183.592 809.005 185.8 810.605 185.8C812.269 185.8 813.197 183.592 813.197 179.048C813.197 174.536 812.269 172.296 810.605 172.296ZM851.384 175.592H855.608V179.528H851.384V175.592ZM853.56 166.504C860.312 166.504 864.28 168.264 864.28 171.528C864.28 174.792 860.312 176.584 853.56 176.584C846.776 176.584 842.84 174.792 842.84 171.528C842.84 168.264 846.776 166.504 853.56 166.504ZM853.56 169.608C849.272 169.608 847.256 170.216 847.256 171.528C847.256 172.904 849.272 173.48 853.56 173.48C857.848 173.48 859.864 172.904 859.864 171.528C859.864 170.216 857.848 169.608 853.56 169.608ZM840.152 178.216H866.936V181.576H840.152V178.216ZM843.224 183.144H863.704V190.76H847.448V193.384H843.256V187.816H859.512V186.312H843.224V183.144ZM843.256 192.456H864.472V195.656H843.256V192.456ZM888.278 166.184H892.502V195.912H888.278V166.184ZM891.542 177.384H896.79V180.904H891.542V177.384ZM870.486 185.544H872.982C878.006 185.544 881.91 185.384 886.262 184.616L886.678 188.04C882.198 188.84 878.134 189.032 872.982 189.032H870.486V185.544ZM870.454 168.712H884.086V180.2H874.71V186.856H870.486V176.808H879.862V172.104H870.454V168.712ZM898.42 188.968H925.236V192.424H898.42V188.968ZM909.652 182.632H913.908V189.8H909.652V182.632ZM901.236 168.104H905.46V172.648H918.1V168.104H922.324V183.528H901.236V168.104ZM905.46 175.976V180.136H918.1V175.976H905.46ZM939.185 176.168H944.081V179.624H939.185V176.168ZM932.849 168.776H936.113V173.768C936.113 180.488 934.257 187.048 929.521 189.96L926.961 186.76C931.313 184.072 932.849 178.792 932.849 173.768V168.776ZM933.777 168.776H936.977V173.576C936.977 178.408 938.225 183.336 942.257 185.96L939.953 189.288C935.249 186.376 933.777 179.976 933.777 173.576V168.776ZM948.913 166.216H952.977V195.848H948.913V166.216ZM942.897 166.664H946.865V194.504H942.897V166.664ZM962.543 181.256H966.767V189.576H962.543V181.256ZM973.295 181.256H977.551V189.576H973.295V181.256ZM956.655 188.968H983.471V192.424H956.655V188.968ZM970.031 167.656C976.399 167.656 981.103 170.792 981.103 175.624C981.103 180.456 976.399 183.56 970.031 183.56C963.631 183.56 958.959 180.456 958.959 175.624C958.959 170.792 963.631 167.656 970.031 167.656ZM970.031 170.984C965.903 170.984 963.151 172.68 963.151 175.624C963.151 178.536 965.903 180.264 970.031 180.264C974.159 180.264 976.911 178.536 976.911 175.624C976.911 172.68 974.159 170.984 970.031 170.984ZM999.262 169.727L998.819 186.023H994.66L994.205 169.727H999.262ZM996.739 193.295C995.989 193.295 995.346 193.03 994.808 192.5C994.27 191.962 994.005 191.318 994.012 190.568C994.005 189.826 994.27 189.189 994.808 188.659C995.346 188.129 995.989 187.864 996.739 187.864C997.459 187.864 998.092 188.129 998.637 188.659C999.183 189.189 999.459 189.826 999.467 190.568C999.459 191.068 999.327 191.527 999.069 191.943C998.819 192.352 998.489 192.682 998.08 192.932C997.671 193.174 997.224 193.295 996.739 193.295Z" fill="#202B3D"/>
</g>
<path d="M434.886 219.798H445.182V222.554H434.886V219.798ZM443.622 219.798H447.002V221.306C447.002 223.438 447.002 226.324 446.092 230.614H442.634C443.622 226.376 443.622 223.412 443.622 221.306V219.798ZM444.038 224.608V227.078L434.73 227.858L434.288 224.998L444.038 224.608ZM438.89 231.264H442.374V241.04H438.89V231.264ZM450.07 218.238H453.528V242.314H450.07V218.238ZM433.326 233.006L432.91 230.198C437.694 230.198 443.518 230.12 448.718 229.548L448.978 232.07C443.648 232.876 438.032 233.006 433.326 233.006ZM456.724 236.62H478.512V239.428H456.724V236.62ZM465.772 221.566H468.684V222.944C468.684 227.988 465.044 232.044 458.908 233.162L457.556 230.406C462.912 229.574 465.772 226.272 465.772 222.944V221.566ZM466.474 221.566H469.386V222.944C469.386 226.272 472.246 229.47 477.732 230.276L476.406 233.032C470.166 231.94 466.474 227.988 466.474 222.944V221.566ZM458.518 220.24H476.64V222.996H458.518V220.24ZM502.806 218.238H506.264V230.328H502.806V218.238ZM494.772 219.148H498.542C498.542 225.544 494.85 229.288 487.544 230.874L486.4 228.092C492.432 226.896 494.772 224.244 494.772 221.02V219.148ZM487.778 219.148H496.228V221.904H487.778V219.148ZM497.606 221.228H503.248V223.854H497.606V221.228ZM497.45 225.908H503.118V228.508H497.45V225.908ZM490.352 231.212H506.264V237.842H493.862V240.832H490.404V235.294H502.806V233.916H490.352V231.212ZM490.404 239.376H506.758V242.08H490.404V239.376ZM510.785 220.63H521.159V223.36H510.785V220.63ZM513.879 227.52H517.285V235.684H513.879V227.52ZM519.781 220.63H523.187V222.58C523.187 224.92 523.187 227.832 522.537 231.836L519.157 231.524C519.781 227.676 519.781 224.894 519.781 222.58V220.63ZM525.241 218.238H528.699V242.314H525.241V218.238ZM527.685 227.91H531.923V230.77H527.685V227.91ZM509.875 237.452L509.563 234.67C513.801 234.67 519.417 234.592 524.149 233.994L524.331 236.516C519.469 237.348 514.061 237.452 509.875 237.452ZM533.429 229.028H555.243V231.55H533.429V229.028ZM535.873 232.746H552.643V238.466H539.357V240.52H535.925V236.282H549.237V235.086H535.873V232.746ZM535.925 239.792H553.319V242.132H535.925V239.792ZM536.107 218.654H552.591V224.322H539.565V226.298H536.133V222.164H549.185V220.968H536.107V218.654ZM536.133 225.57H553.033V227.91H536.133V225.57ZM579.381 218.264H582.865V235.866H579.381V218.264ZM566.823 239.142H583.463V241.898H566.823V239.142ZM566.823 234.306H570.281V240.754H566.823V234.306ZM568.721 222.996H571.555V223.854C571.555 228.17 569.345 231.992 564.691 233.344L563.053 230.64C567.005 229.496 568.721 226.662 568.721 223.854V222.996ZM569.371 222.996H572.179V223.854C572.179 226.48 573.921 229.158 577.873 230.25L576.261 232.954C571.581 231.654 569.371 227.988 569.371 223.854V222.996ZM563.859 221.02H577.015V223.724H563.859V221.02ZM568.721 218.368H572.179V222.138H568.721V218.368ZM588.999 219.642H604.105V222.372H588.999V219.642ZM586.529 229.886H608.291V232.668H586.529V229.886ZM595.551 231.836H599.035V242.34H595.551V231.836ZM602.337 219.642H605.743V221.774C605.743 224.374 605.743 227.286 604.807 231.55L601.401 231.16C602.337 227.13 602.337 224.27 602.337 221.774V219.642ZM610.187 227.572H631.975V230.302H610.187V227.572ZM612.865 223.568H629.401V226.272H612.865V223.568ZM612.865 218.68H629.193V221.436H616.297V225.908H612.865V218.68ZM612.657 231.654H629.297V238.024H616.089V240.104H612.683V235.58H625.891V234.254H612.657V231.654ZM612.683 239.48H629.921V242.132H612.683V239.48ZM634.833 220.63H645.207V223.36H634.833V220.63ZM637.927 227.52H641.333V235.684H637.927V227.52ZM643.829 220.63H647.235V222.58C647.235 224.92 647.235 227.832 646.585 231.836L643.205 231.524C643.829 227.676 643.829 224.894 643.829 222.58V220.63ZM649.289 218.238H652.747V242.314H649.289V218.238ZM651.733 227.91H655.971V230.77H651.733V227.91ZM633.923 237.452L633.611 234.67C637.849 234.67 643.465 234.592 648.197 233.994L648.379 236.516C643.517 237.348 638.109 237.452 633.923 237.452ZM673.998 233.214C679.198 233.214 682.526 234.93 682.526 237.79C682.526 240.598 679.198 242.314 673.998 242.314C668.798 242.314 665.47 240.598 665.47 237.79C665.47 234.93 668.798 233.214 673.998 233.214ZM673.998 235.814C670.748 235.814 668.902 236.49 668.902 237.79C668.902 239.064 670.748 239.714 673.998 239.714C677.248 239.714 679.094 239.064 679.094 237.79C679.094 236.49 677.248 235.814 673.998 235.814ZM665.73 219.304H680.966V222.034H665.73V219.304ZM663.286 228.976H684.97V231.732H663.286V228.976ZM671.32 224.79H674.752V229.678H671.32V224.79ZM678.964 219.304H682.396V221.28C682.396 223.178 682.396 225.232 681.746 227.728L678.314 227.364C678.964 224.894 678.964 223.152 678.964 221.28V219.304ZM691.806 233.448H695.342V242.314H691.806V233.448ZM700.126 233.448H703.662V242.314H700.126V233.448ZM686.892 231.628H708.706V234.41H686.892V231.628ZM697.734 219.044C702.882 219.044 706.444 221.15 706.444 224.452C706.444 227.702 702.882 229.808 697.734 229.808C692.612 229.808 689.05 227.702 689.05 224.452C689.05 221.15 692.612 219.044 697.734 219.044ZM697.734 221.8C694.588 221.8 692.586 222.736 692.586 224.452C692.586 226.142 694.588 227.078 697.734 227.078C700.906 227.078 702.882 226.142 702.882 224.452C702.882 222.736 700.906 221.8 697.734 221.8ZM710.524 221.852H722.042V224.608H710.524V221.852ZM716.322 225.674C719.39 225.674 721.6 228.04 721.6 231.42C721.6 234.774 719.39 237.14 716.322 237.14C713.28 237.14 711.044 234.774 711.044 231.42C711.044 228.04 713.28 225.674 716.322 225.674ZM716.322 228.56C715.022 228.56 714.112 229.6 714.112 231.42C714.112 233.24 715.022 234.254 716.322 234.254C717.622 234.254 718.558 233.24 718.558 231.42C718.558 229.6 717.622 228.56 716.322 228.56ZM727.944 218.238H731.246V242.314H727.944V218.238ZM725.058 228.014H729.036V230.796H725.058V228.014ZM722.9 218.68H726.124V241.3H722.9V218.68ZM714.632 218.888H718.038V223.594H714.632V218.888ZM734.234 236.724H756.022V239.532H734.234V236.724ZM743.36 231.576H746.818V237.4H743.36V231.576ZM736.522 219.772H739.954V223.464H750.224V219.772H753.656V232.304H736.522V219.772ZM739.954 226.168V229.548H750.224V226.168H739.954ZM767.356 226.324H771.334V229.132H767.356V226.324ZM762.208 220.318H764.86V224.374C764.86 229.834 763.352 235.164 759.504 237.53L757.424 234.93C760.96 232.746 762.208 228.456 762.208 224.374V220.318ZM762.962 220.318H765.562V224.218C765.562 228.144 766.576 232.148 769.852 234.28L767.98 236.984C764.158 234.618 762.962 229.418 762.962 224.218V220.318ZM775.26 218.238H778.562V242.314H775.26V218.238ZM770.372 218.602H773.596V241.222H770.372V218.602ZM786.334 230.458H789.766V237.218H786.334V230.458ZM795.07 230.458H798.528V237.218H795.07V230.458ZM781.55 236.724H803.338V239.532H781.55V236.724ZM792.418 219.408C797.592 219.408 801.414 221.956 801.414 225.882C801.414 229.808 797.592 232.33 792.418 232.33C787.218 232.33 783.422 229.808 783.422 225.882C783.422 221.956 787.218 219.408 792.418 219.408ZM792.418 222.112C789.064 222.112 786.828 223.49 786.828 225.882C786.828 228.248 789.064 229.652 792.418 229.652C795.772 229.652 798.008 228.248 798.008 225.882C798.008 223.49 795.772 222.112 792.418 222.112ZM816.169 221.091L815.809 234.331H812.43L812.06 221.091H816.169ZM814.119 240.24C813.51 240.24 812.987 240.025 812.55 239.594C812.113 239.157 811.897 238.634 811.903 238.024C811.897 237.421 812.113 236.904 812.55 236.473C812.987 236.042 813.51 235.827 814.119 235.827C814.704 235.827 815.218 236.042 815.661 236.473C816.104 236.904 816.329 237.421 816.335 238.024C816.329 238.43 816.221 238.803 816.012 239.141C815.809 239.474 815.541 239.741 815.209 239.945C814.876 240.142 814.513 240.24 814.119 240.24Z" fill="#B2C0CC"/>
<defs>
<filter id="filter0_d_104_445" x="428.132" y="163.884" width="577.635" height="42.328" filterUnits="userSpaceOnUse" color-interpolation-filters="sRGB">
<feFlood flood-opacity="0" result="BackgroundImageFix"/>
<feColorMatrix in="SourceAlpha" type="matrix" values="0 0 0 0 0 0 0 0 0 0 0 0 0 0 0 0 0 0 127 0" result="hardAlpha"/>
<feOffset dy="4"/>
<feGaussianBlur stdDeviation="3.15"/>
<feComposite in2="hardAlpha" operator="out"/>
<feColorMatrix type="matrix" values="0 0 0 0 0 0 0 0 0 0 0 0 0 0 0 0 0 0 0.25 0"/>
<feBlend mode="normal" in2="BackgroundImageFix" result="effect1_dropShadow_104_445"/>
<feBlend mode="normal" in="SourceGraphic" in2="effect1_dropShadow_104_445" result="shape"/>
</filter>
</defs>
</svg>
