<svg width="1400" height="400" viewBox="0 0 1400 400" fill="none" xmlns="http://www.w3.org/2000/svg">
<rect x="0.5" y="0.5" width="1399" height="399" fill="#E9E9E9" stroke="#999999"/>
<path d="M164.844 140.031L161.622 136.875L159.156 115.77L159.016 115.633L149.996 124.842L145.683 120.618L161.077 104.901L164.59 108.343L167.337 128.579L167.476 128.716L176.571 119.431L180.884 123.655L164.844 140.031Z" fill="#202B3D"/>
<path d="M153.962 161.582L129.385 149.76L132.664 142.943L157.241 154.765L153.962 161.582ZM127.864 144.812C127.377 145.825 126.622 146.533 125.601 146.935C124.575 147.321 123.587 147.286 122.638 146.829C121.699 146.378 121.065 145.633 120.737 144.595C120.403 143.541 120.48 142.508 120.968 141.494C121.455 140.481 122.212 139.781 123.239 139.395C124.26 138.993 125.239 139.017 126.178 139.469C127.127 139.926 127.769 140.681 128.103 141.735C128.431 142.773 128.351 143.798 127.864 144.812Z" fill="#202B3D"/>
<path d="M135.295 188.903L119.718 187.296L120.494 179.772L147.623 182.571L146.877 189.795L141.95 189.286L141.92 189.569C143.447 190.345 144.619 191.495 145.438 193.02C146.257 194.532 146.562 196.307 146.352 198.344C146.165 200.157 145.588 201.71 144.622 203.003C143.655 204.296 142.373 205.252 140.773 205.872C139.176 206.481 137.316 206.682 135.196 206.475L117.922 204.692L118.699 197.169L134.63 198.812C136.232 198.966 137.542 198.667 138.56 197.915C139.578 197.163 140.16 196.075 140.307 194.65C140.401 193.744 140.282 192.875 139.951 192.043C139.609 191.21 139.051 190.51 138.276 189.942C137.503 189.363 136.509 189.016 135.295 188.903Z" fill="#202B3D"/>
<path d="M147.89 257.487L145.141 251.56L147.591 246.802L149.646 242.286L154.009 233.548L157.028 240.055L154.12 246.024L152.254 249.258L147.89 257.487ZM134.578 241.957C138.175 240.288 141.552 239.55 144.708 239.743C147.859 239.925 150.643 240.878 153.061 242.601C155.462 244.318 157.338 246.632 158.688 249.542C160.048 252.473 160.603 255.413 160.353 258.36C160.102 261.308 159.029 264.044 157.134 266.568C155.238 269.091 152.497 271.185 148.911 272.849C145.314 274.518 141.939 275.261 138.788 275.079C135.637 274.897 132.861 273.947 130.459 272.23C128.046 270.517 126.16 268.196 124.8 265.264C123.45 262.354 122.9 259.425 123.151 256.477C123.385 253.524 124.451 250.785 126.346 248.262C128.237 245.727 130.981 243.625 134.578 241.957ZM137.858 249.027C135.528 250.108 133.725 251.369 132.449 252.809C131.168 254.239 130.406 255.774 130.162 257.413C129.918 259.053 130.187 260.716 130.969 262.402C131.751 264.088 132.847 265.367 134.257 266.24C135.666 267.113 137.333 267.527 139.257 267.482C141.176 267.427 143.3 266.859 145.63 265.778C147.96 264.697 149.766 263.442 151.047 262.012C152.323 260.572 153.083 259.032 153.327 257.392C153.571 255.752 153.302 254.089 152.52 252.404C151.737 250.718 150.642 249.438 149.232 248.566C147.822 247.693 146.158 247.284 144.239 247.339C142.315 247.384 140.189 247.946 137.858 249.027Z" fill="#202B3D"/>
<path d="M210.828 296.361C213.386 297.512 215.355 299.022 216.735 300.888C218.099 302.761 218.847 304.877 218.981 307.234C219.109 309.602 218.583 312.098 217.403 314.721C216.251 317.279 214.744 319.301 212.882 320.787C211.019 322.272 208.944 323.149 206.655 323.417C204.356 323.68 201.987 323.263 199.547 322.165C197.906 321.427 196.498 320.475 195.322 319.31C194.13 318.15 193.241 316.809 192.654 315.286C192.057 313.758 191.818 312.067 191.939 310.213C192.054 308.37 192.588 306.39 193.54 304.275L194.393 302.38L215.393 311.831L213.47 316.106L198.962 309.577C198.515 310.57 198.335 311.547 198.422 312.507C198.509 313.468 198.838 314.337 199.41 315.114C199.967 315.896 200.747 316.513 201.751 316.965C202.798 317.436 203.835 317.611 204.864 317.49C205.876 317.374 206.791 317.014 207.609 316.408C208.422 315.813 209.055 315.027 209.507 314.05L211.336 309.986C211.89 308.755 212.142 307.59 212.092 306.49C212.031 305.385 211.689 304.4 211.065 303.536C210.442 302.671 209.553 301.979 208.398 301.459C207.631 301.114 206.881 300.906 206.147 300.836C205.413 300.765 204.722 300.844 204.074 301.071C203.427 301.299 202.843 301.673 202.324 302.192L196.134 298.9C197.148 297.513 198.414 296.473 199.933 295.781C201.436 295.094 203.119 294.787 204.981 294.859C206.828 294.938 208.777 295.438 210.828 296.361Z" fill="#202B3D"/>
<path d="M235.625 340.055L238.765 303.827L246.3 304.48L243.161 340.708L235.625 340.055Z" fill="#202B3D"/>
<path d="M290.448 286.421L300.2 322.631L293 324.57L291.808 320.147L291.482 320.234C291.353 321.029 291.084 321.874 290.676 322.769C290.258 323.678 289.625 324.511 288.774 325.267C287.915 326.038 286.748 326.621 285.274 327.019C283.354 327.536 281.447 327.51 279.553 326.941C277.662 326.384 275.96 325.231 274.446 323.481C272.936 321.742 271.775 319.364 270.962 316.347C270.171 313.409 269.977 310.801 270.381 308.522C270.776 306.258 271.645 304.388 272.988 302.91C274.323 301.448 275.99 300.447 277.99 299.908C279.408 299.527 280.677 299.436 281.797 299.637C282.907 299.841 283.871 300.212 284.69 300.752C285.513 301.302 286.188 301.899 286.717 302.541L286.94 302.481L283.144 288.388L290.448 286.421ZM289.505 311.389C289.083 309.823 288.498 308.516 287.749 307.467C287.001 306.418 286.128 305.679 285.129 305.249C284.134 304.83 283.048 304.78 281.87 305.097C280.682 305.417 279.764 306.014 279.116 306.887C278.472 307.771 278.095 308.854 277.986 310.133C277.869 311.428 278.017 312.841 278.429 314.372C278.839 315.892 279.41 317.173 280.144 318.213C280.878 319.254 281.744 319.989 282.742 320.419C283.741 320.848 284.84 320.902 286.04 320.579C287.229 320.258 288.15 319.673 288.804 318.823C289.446 317.976 289.829 316.916 289.952 315.645C290.076 314.374 289.926 312.955 289.505 311.389Z" fill="#202B3D"/>
<path d="M344.66 249.027L365.228 266.937L360.494 272.373L356.865 269.213L356.655 269.454C357.487 270.932 357.816 272.474 357.642 274.081C357.468 275.687 356.774 277.186 355.561 278.579C354.333 279.989 352.935 280.883 351.367 281.26C349.808 281.644 348.286 281.481 346.802 280.769L346.616 280.984C347.429 282.429 347.71 284.008 347.459 285.72C347.209 287.449 346.428 289.068 345.114 290.577C343.443 292.496 341.475 293.521 339.21 293.652C336.947 293.8 334.699 292.903 332.467 290.959L318.635 278.914L323.59 273.223L336.298 284.289C337.441 285.284 338.562 285.727 339.662 285.617C340.762 285.508 341.708 284.997 342.501 284.087C343.403 283.051 343.776 281.956 343.621 280.8C343.474 279.653 342.865 278.612 341.794 277.68L329.234 266.742L334.05 261.212L346.878 272.383C347.886 273.261 348.942 273.67 350.046 273.611C351.141 273.56 352.097 273.067 352.914 272.129C353.465 271.495 353.802 270.784 353.924 269.995C354.047 269.224 353.951 268.441 353.636 267.649C353.33 266.865 352.798 266.143 352.039 265.482L339.693 254.731L344.66 249.027Z" fill="#202B3D"/>
<path d="M350.723 222.084L377.082 229.087L375.139 236.397L348.781 229.395L350.723 222.084ZM379.504 233.662C379.792 232.575 380.401 231.738 381.328 231.152C382.264 230.58 383.241 230.429 384.259 230.7C385.266 230.967 386.028 231.58 386.545 232.538C387.07 233.51 387.189 234.54 386.9 235.627C386.611 236.713 385.999 237.543 385.063 238.115C384.136 238.701 383.169 238.861 382.162 238.593C381.144 238.323 380.372 237.701 379.846 236.729C379.329 235.771 379.215 234.749 379.504 233.662Z" fill="#202B3D"/>
<path d="M378.161 190.222C379.573 189.94 380.62 189.224 381.304 188.074C381.987 186.924 382.238 185.431 382.057 183.593C381.934 182.344 381.653 181.307 381.215 180.482C380.788 179.656 380.246 179.043 379.588 178.644C378.932 178.257 378.215 178.102 377.437 178.179C376.787 178.219 376.235 178.41 375.781 178.752C375.328 179.106 374.951 179.566 374.65 180.131C374.361 180.695 374.121 181.337 373.93 182.057C373.751 182.777 373.613 183.54 373.514 184.347L373.057 187.675C372.859 189.288 372.531 190.783 372.072 192.161C371.614 193.538 371.002 194.752 370.237 195.803C369.473 196.854 368.533 197.702 367.419 198.347C366.307 199.004 364.997 199.413 363.49 199.573C361.275 199.78 359.299 199.404 357.563 198.445C355.839 197.497 354.427 196.019 353.325 194.011C352.235 192.013 351.546 189.541 351.255 186.596C350.967 183.675 351.163 181.086 351.845 178.83C352.527 176.586 353.686 174.771 355.322 173.385C356.97 172.009 359.093 171.163 361.691 170.847L362.421 178.251C361.216 178.453 360.237 178.9 359.485 179.593C358.745 180.297 358.221 181.187 357.911 182.264C357.614 183.352 357.53 184.556 357.66 185.875C357.788 187.171 358.088 188.277 358.559 189.194C359.031 190.123 359.629 190.819 360.353 191.283C361.077 191.747 361.874 191.936 362.746 191.85C363.559 191.77 364.218 191.461 364.724 190.923C365.231 190.397 365.634 189.656 365.932 188.699C366.231 187.753 366.475 186.605 366.663 185.254L367.264 181.216C367.705 178.092 368.627 175.569 370.031 173.646C371.436 171.723 373.475 170.636 376.151 170.384C378.34 170.156 380.312 170.55 382.066 171.567C383.821 172.595 385.26 174.1 386.383 176.083C387.507 178.065 388.198 180.376 388.459 183.015C388.724 185.701 388.496 188.09 387.774 190.183C387.054 192.288 385.931 193.981 384.404 195.262C382.877 196.542 381.037 197.307 378.885 197.555L378.161 190.222Z" fill="#202B3D"/>
<path d="M350.753 118.287L324.401 130.131L318.537 123.946L331.77 98.2632L337.267 104.062L327.002 121.597L327.198 121.804L345.244 112.476L350.753 118.287Z" fill="#202B3D"/>
<path d="M281.948 103.642C279.321 102.657 277.259 101.277 275.763 99.5026C274.282 97.7211 273.399 95.6582 273.115 93.3141C272.835 90.9589 273.2 88.4346 274.21 85.7413C275.195 83.1144 276.569 81.0002 278.332 79.3985C280.096 77.7968 282.111 76.7888 284.378 76.3744C286.655 75.9642 289.047 76.2286 291.551 77.1678C293.236 77.7994 294.703 78.659 295.951 79.7465C297.215 80.827 298.188 82.1085 298.871 83.5909C299.565 85.0774 299.912 86.7496 299.91 88.6074C299.913 90.4542 299.508 92.4638 298.693 94.6362L297.964 96.5814L276.4 88.4967L278.046 84.1076L292.943 89.6927C293.325 88.673 293.442 87.6865 293.294 86.7334C293.145 85.7802 292.761 84.9344 292.14 84.196C291.535 83.4507 290.716 82.8848 289.686 82.4984C288.61 82.0953 287.564 81.9873 286.546 82.1744C285.542 82.3545 284.652 82.773 283.875 83.4297C283.102 84.0754 282.521 84.9005 282.132 85.9049L280.567 90.0779C280.093 91.3415 279.917 92.5205 280.037 93.615C280.169 94.7136 280.574 95.6744 281.251 96.4973C281.929 97.3202 282.861 97.954 284.047 98.3986C284.833 98.6936 285.595 98.8529 286.333 98.8764C287.07 98.8999 287.754 98.7773 288.386 98.5085C289.017 98.2397 289.576 97.8295 290.061 97.2781L296.449 100.166C295.526 101.616 294.329 102.734 292.858 103.523C291.402 104.304 289.742 104.719 287.879 104.766C286.031 104.806 284.054 104.431 281.948 103.642Z" fill="#202B3D"/>
<path d="M226.914 100.141L214.165 102.044L208.796 66.079L221.65 64.1598C225.268 63.6197 228.489 63.8747 231.315 64.9249C234.139 65.9635 236.454 67.7183 238.259 70.1896C240.076 72.659 241.263 75.7611 241.821 79.4958C242.38 83.2421 242.152 86.5674 241.138 89.4716C240.135 92.374 238.424 94.7419 236.005 96.5752C233.597 98.4067 230.567 99.5952 226.914 100.141ZM220.796 94.3936L225.626 93.6726C227.873 93.337 229.705 92.6566 231.12 91.6315C232.544 90.593 233.517 89.1731 234.038 87.3719C234.569 85.5572 234.634 83.3094 234.234 80.6284C233.837 77.9708 233.121 75.8577 232.085 74.2889C231.06 72.7184 229.722 71.6496 228.07 71.0825C226.417 70.5154 224.467 70.3996 222.219 70.7352L217.372 71.4589L220.796 94.3936Z" fill="#202B3D"/>
<g filter="url(#filter0_d_104_445)">
<path d="M457.28 181.48H462.64V218.64H457.28V181.48ZM461.44 195.2H468V199.56H461.44V195.2ZM435.04 205.32H438.16C444.4 205.32 449.32 205.12 454.76 204.16L455.28 208.56C449.68 209.56 444.6 209.72 438.16 209.72H435.04V205.32ZM435.04 184.92H452.32V189.2H440.32V207.44H435.04V184.92ZM497.517 186.08H503.917V190.4H497.517V186.08ZM497.517 194.12H503.917V198.44H497.517V194.12ZM480.317 183.52C486.037 183.52 490.397 187.28 490.397 192.52C490.397 197.72 486.037 201.48 480.317 201.48C474.597 201.48 470.237 197.72 470.237 192.52C470.237 187.28 474.597 183.52 480.317 183.52ZM480.317 187.96C477.517 187.96 475.437 189.68 475.437 192.52C475.437 195.4 477.517 197.04 480.317 197.04C483.117 197.04 485.197 195.4 485.197 192.52C485.197 189.68 483.117 187.96 480.317 187.96ZM493.837 181.52H499.157V203.12H493.837V181.52ZM487.077 203.92C494.717 203.92 499.597 206.68 499.597 211.24C499.597 215.84 494.717 218.56 487.077 218.56C479.397 218.56 474.517 215.84 474.517 211.24C474.517 206.68 479.397 203.92 487.077 203.92ZM487.077 208.12C482.357 208.12 479.797 209.12 479.797 211.24C479.797 213.4 482.357 214.4 487.077 214.4C491.797 214.4 494.317 213.4 494.317 211.24C494.317 209.12 491.797 208.12 487.077 208.12ZM530.234 181.56H535.554V209.24H530.234V181.56ZM534.034 192.84H540.474V197.2H534.034V192.84ZM506.394 185.4H528.194V189.56H506.394V185.4ZM517.314 190.88C522.634 190.88 526.394 193.8 526.394 198.04C526.394 202.28 522.634 205.16 517.314 205.16C511.954 205.16 508.194 202.28 508.194 198.04C508.194 193.8 511.954 190.88 517.314 190.88ZM517.314 194.92C514.954 194.92 513.314 196.04 513.314 198.04C513.314 200.04 514.954 201.12 517.314 201.12C519.674 201.12 521.314 200.04 521.314 198.04C521.314 196.04 519.674 194.92 517.314 194.92ZM514.634 181.48H519.954V187.44H514.634V181.48ZM511.674 213.68H536.874V217.92H511.674V213.68ZM511.674 207.16H516.994V215.52H511.674V207.16ZM554.488 183.92H570.328V188.16H554.488V183.92ZM567.928 183.92H573.128V186.24C573.128 189.52 573.128 193.96 571.728 200.56H566.408C567.928 194.04 567.928 189.48 567.928 186.24V183.92ZM568.568 191.32V195.12L554.248 196.32L553.568 191.92L568.568 191.32ZM560.648 201.56H566.008V216.6H560.648V201.56ZM577.848 181.52H583.168V218.56H577.848V181.52ZM552.088 204.24L551.448 199.92C558.808 199.92 567.768 199.8 575.768 198.92L576.168 202.8C567.968 204.04 559.328 204.24 552.088 204.24ZM588.085 209.8H621.605V214.12H588.085V209.8ZM602.005 186.64H606.485V188.76C606.485 196.52 600.885 202.76 591.445 204.48L589.365 200.24C597.605 198.96 602.005 193.88 602.005 188.76V186.64ZM603.085 186.64H607.565V188.76C607.565 193.88 611.965 198.8 620.405 200.04L618.365 204.28C608.765 202.6 603.085 196.52 603.085 188.76V186.64ZM590.845 184.6H618.725V188.84H590.845V184.6ZM624.442 198.12H658.002V202H624.442V198.12ZM628.202 203.84H654.002V212.64H633.562V215.8H628.282V209.28H648.762V207.44H628.202V203.84ZM628.282 214.68H655.042V218.28H628.282V214.68ZM628.562 182.16H653.922V190.88H633.882V193.92H628.602V187.56H648.682V185.72H628.562V182.16ZM628.602 192.8H654.602V196.4H628.602V192.8ZM672.617 182.36H700.217V186.32H672.617V182.36ZM672.897 190.88H699.937V194.84H672.897V190.88ZM677.337 183.92H682.657V193.6H677.337V183.92ZM690.177 183.92H695.497V193.6H690.177V183.92ZM669.697 196.76H703.177V200.92H669.697V196.76ZM683.737 199.28H689.057V204.44H683.737V199.28ZM673.537 203.28H699.137V212.48H678.817V215.92H673.577V208.92H693.897V207.08H673.537V203.28ZM673.577 214.44H700.097V218.32H673.577V214.44ZM716.254 184.08C721.774 184.08 725.814 189.2 725.814 197.28C725.814 205.44 721.774 210.56 716.254 210.56C710.694 210.56 706.694 205.44 706.694 197.28C706.694 189.2 710.694 184.08 716.254 184.08ZM716.254 188.92C713.574 188.92 711.774 191.84 711.774 197.28C711.774 202.8 713.574 205.76 716.254 205.76C718.974 205.76 720.734 202.8 720.734 197.28C720.734 191.84 718.974 188.92 716.254 188.92ZM731.894 181.48H737.174V218.64H731.894V181.48ZM724.254 194.84H734.134V199.12H724.254V194.84ZM742.531 209.96H776.051V214.28H742.531V209.96ZM756.571 202.04H761.891V211H756.571V202.04ZM746.051 183.88H751.331V189.56H767.131V183.88H772.411V203.16H746.051V183.88ZM751.331 193.72V198.92H767.131V193.72H751.331ZM782.328 184.64H805.808V188.92H782.328V184.64ZM778.928 209.8H812.408V214.12H778.928V209.8ZM790.768 197.08H796.088V211.92H790.768V197.08ZM803.888 184.64H809.208V188.2C809.208 192.84 809.208 198.04 807.728 205.96L802.408 205.36C803.888 198 803.888 192.64 803.888 188.2V184.64ZM850.662 181.52H855.702V204.12H850.662V181.52ZM846.262 190.56H852.102V194.8H846.262V190.56ZM842.742 182.2H847.702V202.92H842.742V182.2ZM825.622 198.16H828.182C833.502 198.16 836.942 198.04 841.022 197.32L841.462 201.48C837.262 202.28 833.662 202.36 828.182 202.36H825.622V198.16ZM825.582 184.04H839.622V195H830.782V201.52H825.622V191.12H834.502V188.2H825.582V184.04ZM843.142 204.56C850.902 204.56 855.902 207.2 855.902 211.56C855.902 215.92 850.902 218.56 843.142 218.56C835.342 218.56 830.422 215.92 830.422 211.56C830.422 207.2 835.342 204.56 843.142 204.56ZM843.142 208.6C838.382 208.6 835.702 209.6 835.702 211.56C835.702 213.56 838.382 214.52 843.142 214.52C847.902 214.52 850.542 213.56 850.542 211.56C850.542 209.6 847.902 208.6 843.142 208.6ZM874.859 183.72H880.379C880.379 194.04 875.579 200.8 863.139 204.36L861.139 200.16C871.619 197.32 874.859 192.4 874.859 186.04V183.72ZM863.019 183.72H877.979V187.92H863.019V183.72ZM875.099 190.64V194.28L861.899 195.24L861.139 191.12L875.099 190.64ZM885.979 181.56H891.339V203.36H885.979V181.56ZM878.819 203.96C886.579 203.96 891.499 206.68 891.499 211.28C891.499 215.88 886.579 218.56 878.819 218.56C871.019 218.56 866.139 215.88 866.139 211.28C866.139 206.68 871.019 203.96 878.819 203.96ZM878.819 208.12C873.979 208.12 871.459 209.12 871.459 211.28C871.459 213.4 873.979 214.48 878.819 214.48C883.619 214.48 886.179 213.4 886.179 211.28C886.179 209.12 883.619 208.12 878.819 208.12ZM911.736 195.16H917.816V199.44H911.736V195.16ZM923.696 181.52H928.776V218.56H923.696V181.52ZM916.136 182.08H921.136V216.88H916.136V182.08ZM905.256 184.12C910.176 184.12 913.336 189.2 913.336 197.56C913.336 205.96 910.176 211.04 905.256 211.04C900.376 211.04 897.256 205.96 897.256 197.56C897.256 189.2 900.376 184.12 905.256 184.12ZM905.256 189.12C903.256 189.12 902.096 191.92 902.096 197.56C902.096 203.24 903.256 206 905.256 206C907.336 206 908.496 203.24 908.496 197.56C908.496 191.92 907.336 189.12 905.256 189.12ZM956.231 193.24H961.511V198.16H956.231V193.24ZM958.951 181.88C967.391 181.88 972.351 184.08 972.351 188.16C972.351 192.24 967.391 194.48 958.951 194.48C950.471 194.48 945.551 192.24 945.551 188.16C945.551 184.08 950.471 181.88 958.951 181.88ZM958.951 185.76C953.591 185.76 951.071 186.52 951.071 188.16C951.071 189.88 953.591 190.6 958.951 190.6C964.311 190.6 966.831 189.88 966.831 188.16C966.831 186.52 964.311 185.76 958.951 185.76ZM942.191 196.52H975.671V200.72H942.191V196.52ZM946.031 202.68H971.631V212.2H951.311V215.48H946.071V208.52H966.391V206.64H946.031V202.68ZM946.071 214.32H972.591V218.32H946.071V214.32ZM1002.35 181.48H1007.63V218.64H1002.35V181.48ZM1006.43 195.48H1012.99V199.88H1006.43V195.48ZM980.107 205.68H983.227C989.507 205.68 994.387 205.48 999.827 204.52L1000.35 208.8C994.747 209.8 989.667 210.04 983.227 210.04H980.107V205.68ZM980.067 184.64H997.107V199H985.387V207.32H980.107V194.76H991.827V188.88H980.067V184.64ZM1015.02 209.96H1048.54V214.28H1015.02V209.96ZM1029.06 202.04H1034.38V211H1029.06V202.04ZM1018.54 183.88H1023.82V189.56H1039.62V183.88H1044.9V203.16H1018.54V183.88ZM1023.82 193.72V198.92H1039.62V193.72H1023.82ZM1065.98 193.96H1072.1V198.28H1065.98V193.96ZM1058.06 184.72H1062.14V190.96C1062.14 199.36 1059.82 207.56 1053.9 211.2L1050.7 207.2C1056.14 203.84 1058.06 197.24 1058.06 190.96V184.72ZM1059.22 184.72H1063.22V190.72C1063.22 196.76 1064.78 202.92 1069.82 206.2L1066.94 210.36C1061.06 206.72 1059.22 198.72 1059.22 190.72V184.72ZM1078.14 181.52H1083.22V218.56H1078.14V181.52ZM1070.62 182.08H1075.58V216.88H1070.62V182.08ZM1095.18 200.32H1100.46V210.72H1095.18V200.32ZM1108.62 200.32H1113.94V210.72H1108.62V200.32ZM1087.82 209.96H1121.34V214.28H1087.82V209.96ZM1104.54 183.32C1112.5 183.32 1118.38 187.24 1118.38 193.28C1118.38 199.32 1112.5 203.2 1104.54 203.2C1096.54 203.2 1090.7 199.32 1090.7 193.28C1090.7 187.24 1096.54 183.32 1104.54 183.32ZM1104.54 187.48C1099.38 187.48 1095.94 189.6 1095.94 193.28C1095.94 196.92 1099.38 199.08 1104.54 199.08C1109.7 199.08 1113.14 196.92 1113.14 193.28C1113.14 189.6 1109.7 187.48 1104.54 187.48ZM1141.08 185.909L1140.52 206.278H1135.32L1134.76 185.909H1141.08ZM1137.92 215.369C1136.99 215.369 1136.18 215.038 1135.51 214.375C1134.84 213.703 1134.51 212.898 1134.52 211.96C1134.51 211.032 1134.84 210.237 1135.51 209.574C1136.18 208.911 1136.99 208.58 1137.92 208.58C1138.82 208.58 1139.61 208.911 1140.3 209.574C1140.98 210.237 1141.32 211.032 1141.33 211.96C1141.32 212.585 1141.16 213.158 1140.84 213.679C1140.52 214.19 1140.11 214.602 1139.6 214.915C1139.09 215.218 1138.53 215.369 1137.92 215.369Z" fill="#202B3D"/>
</g>
<defs>
<filter id="filter0_d_104_445" x="428.74" y="179.18" width="718.893" height="49.7602" filterUnits="userSpaceOnUse" color-interpolation-filters="sRGB">
<feFlood flood-opacity="0" result="BackgroundImageFix"/>
<feColorMatrix in="SourceAlpha" type="matrix" values="0 0 0 0 0 0 0 0 0 0 0 0 0 0 0 0 0 0 127 0" result="hardAlpha"/>
<feOffset dy="4"/>
<feGaussianBlur stdDeviation="3.15"/>
<feComposite in2="hardAlpha" operator="out"/>
<feColorMatrix type="matrix" values="0 0 0 0 0 0 0 0 0 0 0 0 0 0 0 0 0 0 0.25 0"/>
<feBlend mode="normal" in2="BackgroundImageFix" result="effect1_dropShadow_104_445"/>
<feBlend mode="normal" in="SourceGraphic" in2="effect1_dropShadow_104_445" result="shape"/>
</filter>
</defs>
</svg>
