<svg width="1400" height="400" viewBox="0 0 1400 400" fill="none" xmlns="http://www.w3.org/2000/svg">
<rect width="1400" height="400" fill="#202B3D"/>
<g filter="url(#filter0_d_103_428)">
<path d="M471.48 189.52H476.84V210.88H471.48V189.52ZM475.28 198.28H481.68V202.6H475.28V198.28ZM464.68 211.56C472.28 211.56 477.2 214.4 477.2 219.08C477.2 223.8 472.28 226.6 464.68 226.6C457.04 226.6 452.12 223.8 452.12 219.08C452.12 214.4 457.04 211.56 464.68 211.56ZM464.68 215.8C459.96 215.8 457.36 216.84 457.36 219.08C457.36 221.28 459.96 222.36 464.68 222.36C469.36 222.36 471.96 221.28 471.96 219.08C471.96 216.84 469.36 215.8 464.68 215.8ZM448.88 204.72H451.96C460.12 204.72 464.16 204.52 468.6 203.56L469.12 207.8C464.6 208.8 460.32 208.96 451.96 208.96H448.88V204.72ZM448.88 192H465.44V196.24H454.16V207.6H448.88V192ZM509.437 189.56H514.797V216.56H509.437V189.56ZM490.117 221.68H515.717V225.92H490.117V221.68ZM490.117 213.96H495.437V223.88H490.117V213.96ZM492.677 191.56H497.077V195.16C497.077 202.4 493.757 209.08 486.557 211.6L483.877 207.36C490.077 205.24 492.677 200.08 492.677 195.16V191.56ZM493.757 191.56H498.117V195.16C498.117 200 500.637 204.76 506.717 206.72L503.997 210.96C496.997 208.6 493.757 202.32 493.757 195.16V191.56ZM532.314 191.96C538.154 191.96 542.514 195.76 542.514 201.08C542.514 206.44 538.154 210.24 532.314 210.24C526.514 210.24 522.074 206.44 522.074 201.08C522.074 195.76 526.514 191.96 532.314 191.96ZM532.314 196.52C529.474 196.52 527.314 198.2 527.314 201.08C527.314 204 529.474 205.68 532.314 205.68C535.154 205.68 537.314 204 537.314 201.08C537.314 198.2 535.154 196.52 532.314 196.52ZM545.994 189.48H551.314V226.64H545.994V189.48ZM521.194 219.12L520.554 214.84C527.074 214.84 536.154 214.76 543.954 213.6L544.354 217.44C536.314 219.04 527.594 219.12 521.194 219.12ZM575.808 192.08C581.328 192.08 585.368 197.2 585.368 205.28C585.368 213.44 581.328 218.56 575.808 218.56C570.248 218.56 566.248 213.44 566.248 205.28C566.248 197.2 570.248 192.08 575.808 192.08ZM575.808 196.92C573.128 196.92 571.328 199.84 571.328 205.28C571.328 210.8 573.128 213.76 575.808 213.76C578.528 213.76 580.288 210.8 580.288 205.28C580.288 199.84 578.528 196.92 575.808 196.92ZM591.448 189.48H596.728V226.64H591.448V189.48ZM583.808 202.84H593.688V207.12H583.808V202.84ZM611.405 214H616.725V225.96H611.405V214ZM627.765 189.56H633.045V226.6H627.765V189.56ZM602.845 216.6L602.245 212.4C609.325 212.4 618.085 212.36 625.765 211.52L626.125 215.32C618.125 216.52 609.765 216.6 602.845 216.6ZM603.245 193.04H624.925V197.08H603.245V193.04ZM614.085 198.12C619.405 198.12 623.125 200.64 623.125 204.4C623.125 208.16 619.405 210.72 614.085 210.72C608.725 210.72 605.005 208.16 605.005 204.4C605.005 200.64 608.725 198.12 614.085 198.12ZM614.085 202C611.645 202 610.045 202.8 610.045 204.4C610.045 206 611.645 206.8 614.085 206.8C616.485 206.8 618.085 206 618.085 204.4C618.085 202.8 616.485 202 614.085 202ZM611.405 189.24H616.725V195.6H611.405V189.24ZM651.54 198.72H677.1V202.96H651.54V198.72ZM651.54 190.12H656.82V200.64H651.54V190.12ZM647.34 206.12H680.86V210.36H647.34V206.12ZM663.98 212.72C671.98 212.72 676.82 215.2 676.82 219.6C676.82 223.96 671.98 226.48 663.98 226.48C655.98 226.48 651.1 223.96 651.1 219.6C651.1 215.2 655.98 212.72 663.98 212.72ZM663.98 216.8C659.02 216.8 656.5 217.68 656.5 219.6C656.5 221.48 659.02 222.4 663.98 222.4C668.94 222.4 671.46 221.48 671.46 219.6C671.46 217.68 668.94 216.8 663.98 216.8ZM685.097 207.16H687.937C694.817 207.16 698.417 207.04 702.617 206.28L703.137 210.48C698.817 211.28 695.017 211.4 687.937 211.4H685.097V207.16ZM685.057 191.64H701.337V203.32H690.377V209.96H685.097V199.36H696.057V195.84H685.057V191.64ZM709.377 189.56H714.697V212.36H709.377V189.56ZM703.457 194.64H710.337V198.88H703.457V194.64ZM703.457 202.52H710.337V206.76H703.457V202.52ZM689.337 214.04H714.697V226.6H709.377V218.28H689.337V214.04ZM748.992 198.04H756.032V202.36H748.992V198.04ZM754.632 189.52H759.952V210.92H754.632V189.52ZM735.272 212.44H759.952V226.16H735.272V212.44ZM754.752 216.6H740.512V221.96H754.752V216.6ZM737.512 192.96H741.832V195.28C741.832 202.28 738.552 208.68 731.432 211L728.752 206.8C734.872 204.8 737.512 199.96 737.512 195.28V192.96ZM738.632 192.96H742.912V195.28C742.912 199.6 745.432 204.16 751.272 206.12L748.672 210.32C741.792 208.04 738.632 201.88 738.632 195.28V192.96ZM730.192 191.4H750.112V195.6H730.192V191.4ZM779.308 190.6H783.988V192.32C783.988 199.44 778.388 205.48 768.668 206.92L766.588 202.64C775.108 201.52 779.308 196.68 779.308 192.32V190.6ZM780.308 190.6H784.948V192.32C784.948 196.64 789.188 201.52 797.668 202.64L795.628 206.92C785.908 205.48 780.308 199.44 780.308 192.32V190.6ZM779.348 213H784.628V226.56H779.348V213ZM765.388 209.64H798.868V213.96H765.388V209.64ZM805.905 199.52H831.585V203.72H805.905V199.52ZM801.745 207.56H835.305V211.8H801.745V207.56ZM805.905 190.84H811.185V201.6H805.905V190.84ZM805.545 221.52H831.785V225.76H805.545V221.52ZM805.545 214.76H810.865V222.64H805.545V214.76ZM853.014 214.278V213.795C853.023 212.138 853.17 210.817 853.454 209.832C853.748 208.848 854.174 208.052 854.732 207.446C855.291 206.84 855.963 206.291 856.749 205.798C857.337 205.42 857.862 205.027 858.326 204.619C858.79 204.212 859.159 203.762 859.434 203.27C859.709 202.768 859.846 202.209 859.846 201.594C859.846 200.94 859.69 200.367 859.377 199.875C859.065 199.383 858.643 199.004 858.113 198.739C857.592 198.473 857.015 198.341 856.38 198.341C855.765 198.341 855.182 198.478 854.633 198.753C854.084 199.018 853.634 199.416 853.284 199.946C852.933 200.467 852.744 201.116 852.715 201.892H846.92C846.967 199.998 847.422 198.436 848.284 197.205C849.145 195.964 850.286 195.041 851.707 194.435C853.127 193.819 854.695 193.511 856.409 193.511C858.293 193.511 859.96 193.824 861.409 194.449C862.857 195.064 863.994 195.959 864.818 197.134C865.641 198.308 866.053 199.723 866.053 201.381C866.053 202.489 865.869 203.473 865.499 204.335C865.14 205.187 864.633 205.945 863.98 206.608C863.326 207.261 862.554 207.853 861.664 208.384C860.916 208.829 860.301 209.293 859.818 209.776C859.344 210.259 858.989 210.817 858.752 211.452C858.525 212.086 858.407 212.867 858.397 213.795V214.278H853.014ZM855.826 223.369C854.879 223.369 854.07 223.038 853.397 222.375C852.734 221.703 852.408 220.898 852.417 219.96C852.408 219.032 852.734 218.237 853.397 217.574C854.07 216.911 854.879 216.58 855.826 216.58C856.726 216.58 857.516 216.911 858.198 217.574C858.88 218.237 859.226 219.032 859.235 219.96C859.226 220.585 859.06 221.158 858.738 221.679C858.426 222.19 858.014 222.602 857.502 222.915C856.991 223.218 856.432 223.369 855.826 223.369Z" fill="#B6B6B6"/>
</g>
<path d="M168.844 140.032L165.622 136.876L163.156 115.77L163.016 115.633L153.996 124.843L149.683 120.618L165.077 104.902L168.59 108.343L171.337 128.58L171.476 128.716L180.571 119.431L184.884 123.655L168.844 140.032Z" fill="#B6B6B6"/>
<path d="M157.962 161.582L133.385 149.76L136.664 142.944L161.241 154.766L157.962 161.582ZM131.864 144.812C131.377 145.825 130.622 146.533 129.601 146.935C128.575 147.322 127.587 147.286 126.638 146.83C125.699 146.378 125.065 145.633 124.737 144.595C124.403 143.542 124.48 142.508 124.968 141.495C125.455 140.481 126.212 139.782 127.239 139.395C128.26 138.993 129.239 139.018 130.178 139.469C131.127 139.926 131.769 140.681 132.103 141.735C132.431 142.773 132.351 143.799 131.864 144.812Z" fill="#B6B6B6"/>
<path d="M139.295 188.903L123.718 187.296L124.494 179.772L151.623 182.571L150.877 189.795L145.95 189.287L145.92 189.569C147.447 190.346 148.619 191.496 149.438 193.02C150.257 194.533 150.562 196.308 150.352 198.345C150.165 200.158 149.588 201.711 148.622 203.003C147.655 204.296 146.373 205.252 144.773 205.873C143.176 206.481 141.316 206.682 139.196 206.475L121.922 204.693L122.699 197.169L138.63 198.813C140.232 198.966 141.542 198.667 142.56 197.915C143.578 197.164 144.16 196.075 144.307 194.651C144.401 193.744 144.282 192.875 143.951 192.044C143.609 191.211 143.051 190.511 142.276 189.943C141.503 189.363 140.509 189.017 139.295 188.903Z" fill="#B6B6B6"/>
<path d="M151.89 257.488L149.141 251.561L151.591 246.802L153.646 242.287L158.009 233.549L161.028 240.056L158.12 246.024L156.254 249.258L151.89 257.488ZM138.578 241.957C142.175 240.288 145.552 239.55 148.708 239.743C151.859 239.925 154.643 240.878 157.061 242.601C159.462 244.318 161.338 246.632 162.688 249.542C164.048 252.473 164.603 255.413 164.353 258.361C164.102 261.309 163.029 264.044 161.134 266.568C159.238 269.092 156.497 271.186 152.911 272.85C149.314 274.518 145.939 275.262 142.788 275.08C139.637 274.897 136.861 273.948 134.459 272.23C132.046 270.518 130.16 268.196 128.8 265.265C127.45 262.355 126.9 259.426 127.151 256.478C127.385 253.524 128.451 250.786 130.346 248.262C132.237 245.728 134.981 243.626 138.578 241.957ZM141.858 249.028C139.528 250.109 137.725 251.37 136.449 252.81C135.168 254.239 134.406 255.774 134.162 257.414C133.918 259.054 134.187 260.717 134.969 262.403C135.751 264.088 136.847 265.368 138.257 266.24C139.666 267.113 141.333 267.527 143.257 267.483C145.176 267.428 147.3 266.86 149.63 265.779C151.96 264.698 153.766 263.442 155.047 262.013C156.323 260.573 157.083 259.033 157.327 257.393C157.571 255.753 157.302 254.09 156.52 252.404C155.737 250.718 154.642 249.439 153.232 248.566C151.822 247.694 150.158 247.285 148.239 247.34C146.315 247.384 144.189 247.947 141.858 249.028Z" fill="#B6B6B6"/>
<path d="M214.828 296.362C217.386 297.513 219.355 299.022 220.735 300.889C222.099 302.762 222.847 304.877 222.981 307.235C223.109 309.603 222.583 312.099 221.403 314.722C220.251 317.28 218.744 319.302 216.882 320.787C215.019 322.272 212.944 323.149 210.655 323.417C208.356 323.681 205.987 323.263 203.547 322.166C201.906 321.427 200.498 320.475 199.322 319.31C198.13 318.151 197.241 316.81 196.654 315.286C196.057 313.758 195.818 312.067 195.939 310.214C196.054 308.37 196.588 306.391 197.54 304.275L198.393 302.381L219.393 311.831L217.47 316.106L202.962 309.577C202.515 310.57 202.335 311.547 202.422 312.508C202.509 313.469 202.838 314.337 203.41 315.114C203.967 315.897 204.747 316.514 205.751 316.966C206.798 317.437 207.835 317.612 208.864 317.49C209.876 317.375 210.791 317.014 211.609 316.409C212.422 315.814 213.055 315.028 213.507 314.05L215.336 309.986C215.89 308.756 216.142 307.59 216.092 306.49C216.031 305.386 215.689 304.401 215.065 303.536C214.442 302.672 213.553 301.979 212.398 301.46C211.631 301.115 210.881 300.907 210.147 300.836C209.413 300.766 208.722 300.844 208.074 301.072C207.427 301.3 206.843 301.673 206.324 302.192L200.134 298.9C201.148 297.513 202.414 296.474 203.933 295.781C205.436 295.095 207.119 294.787 208.981 294.86C210.828 294.938 212.777 295.439 214.828 296.362Z" fill="#B6B6B6"/>
<path d="M239.625 340.055L242.765 303.827L250.3 304.48L247.161 340.708L239.625 340.055Z" fill="#B6B6B6"/>
<path d="M294.448 286.421L304.2 322.631L297 324.571L295.808 320.147L295.482 320.235C295.353 321.03 295.084 321.875 294.676 322.769C294.258 323.678 293.625 324.511 292.774 325.267C291.915 326.038 290.748 326.622 289.274 327.019C287.354 327.536 285.447 327.511 283.553 326.942C281.662 326.385 279.96 325.231 278.446 323.481C276.936 321.743 275.775 319.365 274.962 316.347C274.171 313.41 273.977 310.802 274.381 308.523C274.776 306.259 275.645 304.388 276.988 302.911C278.323 301.448 279.99 300.447 281.99 299.909C283.408 299.527 284.677 299.437 285.797 299.637C286.907 299.841 287.871 300.213 288.69 300.752C289.513 301.303 290.188 301.899 290.717 302.542L290.94 302.482L287.144 288.389L294.448 286.421ZM293.505 311.39C293.083 309.824 292.498 308.516 291.749 307.467C291.001 306.419 290.128 305.679 289.129 305.249C288.134 304.831 287.048 304.78 285.87 305.097C284.682 305.418 283.764 306.014 283.116 306.887C282.472 307.772 282.095 308.854 281.986 310.134C281.869 311.428 282.017 312.841 282.429 314.373C282.839 315.893 283.41 317.173 284.144 318.214C284.878 319.254 285.744 319.989 286.742 320.419C287.741 320.849 288.84 320.902 290.04 320.579C291.229 320.259 292.15 319.674 292.804 318.823C293.446 317.976 293.829 316.917 293.952 315.645C294.076 314.374 293.926 312.955 293.505 311.39Z" fill="#B6B6B6"/>
<path d="M348.66 249.027L369.228 266.937L364.494 272.374L360.865 269.214L360.655 269.455C361.487 270.933 361.816 272.475 361.642 274.081C361.468 275.687 360.774 277.187 359.561 278.579C358.333 279.99 356.935 280.883 355.367 281.26C353.808 281.645 352.286 281.481 350.802 280.77L350.616 280.984C351.429 282.43 351.71 284.009 351.459 285.721C351.209 287.45 350.428 289.068 349.114 290.577C347.443 292.496 345.475 293.522 343.21 293.653C340.947 293.801 338.699 292.903 336.467 290.96L322.635 278.915L327.59 273.224L340.298 284.289C341.441 285.284 342.562 285.727 343.662 285.618C344.762 285.508 345.708 284.998 346.501 284.087C347.403 283.052 347.776 281.956 347.621 280.801C347.474 279.653 346.865 278.613 345.794 277.68L333.234 266.743L338.05 261.213L350.878 272.383C351.886 273.261 352.942 273.671 354.046 273.611C355.141 273.561 356.097 273.067 356.914 272.13C357.465 271.496 357.802 270.785 357.924 269.996C358.047 269.224 357.951 268.442 357.636 267.65C357.33 266.866 356.798 266.143 356.039 265.482L343.693 254.732L348.66 249.027Z" fill="#B6B6B6"/>
<path d="M354.723 222.085L381.082 229.087L379.139 236.398L352.781 229.395L354.723 222.085ZM383.504 233.662C383.792 232.575 384.401 231.739 385.328 231.152C386.264 230.58 387.241 230.43 388.259 230.7C389.266 230.967 390.028 231.58 390.545 232.538C391.07 233.511 391.189 234.54 390.9 235.627C390.611 236.714 389.999 237.543 389.063 238.115C388.136 238.702 387.169 238.861 386.162 238.594C385.144 238.323 384.372 237.702 383.846 236.729C383.329 235.771 383.215 234.749 383.504 233.662Z" fill="#B6B6B6"/>
<path d="M382.161 190.222C383.573 189.94 384.62 189.224 385.304 188.075C385.987 186.925 386.238 185.431 386.057 183.593C385.934 182.345 385.653 181.308 385.215 180.483C384.788 179.657 384.246 179.044 383.588 178.645C382.932 178.258 382.215 178.102 381.437 178.179C380.787 178.22 380.235 178.411 379.781 178.753C379.328 179.107 378.951 179.566 378.65 180.131C378.361 180.695 378.121 181.337 377.93 182.058C377.751 182.777 377.613 183.54 377.514 184.347L377.057 187.675C376.859 189.288 376.531 190.784 376.072 192.161C375.614 193.539 375.002 194.753 374.237 195.804C373.473 196.855 372.533 197.702 371.419 198.348C370.307 199.005 368.997 199.413 367.49 199.574C365.275 199.781 363.299 199.405 361.563 198.446C359.839 197.498 358.427 196.02 357.325 194.011C356.235 192.013 355.546 189.542 355.255 186.597C354.967 183.675 355.163 181.087 355.845 178.831C356.527 176.587 357.686 174.772 359.322 173.385C360.97 172.009 363.093 171.163 365.691 170.848L366.421 178.251C365.216 178.453 364.237 178.901 363.485 179.594C362.745 180.297 362.221 181.187 361.911 182.265C361.614 183.353 361.53 184.556 361.66 185.876C361.788 187.171 362.088 188.278 362.559 189.195C363.031 190.124 363.629 190.82 364.353 191.284C365.077 191.748 365.874 191.936 366.746 191.85C367.559 191.77 368.218 191.461 368.724 190.924C369.231 190.398 369.634 189.656 369.932 188.699C370.231 187.754 370.475 186.606 370.663 185.255L371.264 181.217C371.705 178.093 372.627 175.569 374.031 173.647C375.436 171.724 377.475 170.636 380.151 170.384C382.34 170.156 384.312 170.551 386.066 171.567C387.821 172.595 389.26 174.101 390.383 176.083C391.507 178.066 392.198 180.377 392.459 183.015C392.724 185.701 392.496 188.091 391.774 190.184C391.054 192.289 389.931 193.982 388.404 195.262C386.877 196.543 385.037 197.307 382.885 197.555L382.161 190.222Z" fill="#B6B6B6"/>
<path d="M354.753 118.288L328.401 130.132L322.537 123.947L335.77 98.2636L341.267 104.062L331.002 121.598L331.198 121.804L349.244 112.476L354.753 118.288Z" fill="#B6B6B6"/>
<path d="M285.948 103.642C283.321 102.658 281.259 101.278 279.763 99.5031C278.282 97.7216 277.399 95.6587 277.115 93.3146C276.835 90.9594 277.2 88.4351 278.21 85.7417C279.195 83.1149 280.569 81.0006 282.332 79.399C284.096 77.7973 286.111 76.7893 288.378 76.3749C290.655 75.9647 293.047 76.2291 295.551 77.1683C297.236 77.7999 298.703 78.6595 299.951 79.747C301.215 80.8275 302.188 82.109 302.871 83.5914C303.565 85.0779 303.912 86.7501 303.91 88.6079C303.913 90.4547 303.508 92.4643 302.693 94.6367L301.964 96.5819L280.4 88.4972L282.046 84.1081L296.943 89.6932C297.325 88.6735 297.442 87.687 297.294 86.7339C297.145 85.7807 296.761 84.9349 296.14 84.1965C295.535 83.4512 294.716 82.8853 293.686 82.4988C292.61 82.0957 291.564 81.9878 290.546 82.1748C289.542 82.355 288.652 82.7735 287.875 83.4302C287.102 84.0759 286.521 84.9009 286.132 85.9054L284.567 90.0784C284.093 91.342 283.917 92.521 284.037 93.6155C284.169 94.7141 284.574 95.6749 285.251 96.4978C285.929 97.3207 286.861 97.9544 288.047 98.3991C288.833 98.6941 289.595 98.8534 290.333 98.8769C291.07 98.9004 291.754 98.7778 292.386 98.509C293.017 98.2401 293.576 97.83 294.061 97.2786L300.449 100.167C299.526 101.616 298.329 102.735 296.858 103.523C295.402 104.305 293.742 104.719 291.879 104.766C290.031 104.807 288.054 104.432 285.948 103.642Z" fill="#B6B6B6"/>
<path d="M230.914 100.141L218.165 102.044L212.796 66.0795L225.65 64.1603C229.268 63.6202 232.489 63.8752 235.315 64.9254C238.139 65.9639 240.454 67.7188 242.259 70.19C244.076 72.6595 245.263 75.7616 245.821 79.4962C246.38 83.2426 246.152 86.5679 245.138 89.4721C244.135 92.3745 242.424 94.7424 240.005 96.5757C237.597 98.4072 234.567 99.5956 230.914 100.141ZM224.796 94.3941L229.626 93.673C231.873 93.3374 233.705 92.6571 235.12 91.632C236.544 90.5935 237.517 89.1736 238.038 87.3724C238.569 85.5577 238.634 83.3099 238.234 80.6289C237.837 77.9713 237.121 75.8582 236.085 74.2894C235.06 72.7189 233.722 71.6501 232.07 71.083C230.417 70.5159 228.467 70.4001 226.219 70.7357L221.372 71.4594L224.796 94.3941Z" fill="#B6B6B6"/>
<defs>
<filter id="filter0_d_103_428" x="442.58" y="186.94" width="429.773" height="49.9999" filterUnits="userSpaceOnUse" color-interpolation-filters="sRGB">
<feFlood flood-opacity="0" result="BackgroundImageFix"/>
<feColorMatrix in="SourceAlpha" type="matrix" values="0 0 0 0 0 0 0 0 0 0 0 0 0 0 0 0 0 0 127 0" result="hardAlpha"/>
<feOffset dy="4"/>
<feGaussianBlur stdDeviation="3.15"/>
<feComposite in2="hardAlpha" operator="out"/>
<feColorMatrix type="matrix" values="0 0 0 0 0 0 0 0 0 0 0 0 0 0 0 0 0 0 0.25 0"/>
<feBlend mode="normal" in2="BackgroundImageFix" result="effect1_dropShadow_103_428"/>
<feBlend mode="normal" in="SourceGraphic" in2="effect1_dropShadow_103_428" result="shape"/>
</filter>
</defs>
</svg>
