<svg width="1400" height="400" viewBox="0 0 1400 400" fill="none" xmlns="http://www.w3.org/2000/svg">
<rect x="0.5" y="0.5" width="1399" height="399" fill="#E9E9E9" stroke="#999999"/>
<path d="M578.44 112.371L575.218 109.215L572.751 88.1094L572.612 87.9727L563.592 97.182L559.279 92.9578L574.673 77.2411L578.186 80.6826L580.933 100.919L581.072 101.056L590.167 91.7704L594.48 95.9946L578.44 112.371Z" fill="#202B3D"/>
<path d="M561.777 144.469L537.2 132.646L540.479 125.83L565.056 137.652L561.777 144.469ZM535.679 127.698C535.192 128.712 534.437 129.419 533.416 129.822C532.39 130.208 531.402 130.173 530.453 129.716C529.514 129.264 528.88 128.52 528.552 127.482C528.218 126.428 528.295 125.394 528.783 124.381C529.27 123.368 530.027 122.668 531.054 122.281C532.075 121.879 533.054 121.904 533.993 122.356C534.942 122.812 535.584 123.568 535.918 124.621C536.246 125.659 536.166 126.685 535.679 127.698Z" fill="#202B3D"/>
<path d="M539.372 190.454L523.795 188.847L524.571 181.323L551.7 184.122L550.954 191.346L546.027 190.837L545.997 191.12C547.524 191.896 548.696 193.047 549.515 194.571C550.335 196.084 550.639 197.858 550.429 199.895C550.242 201.709 549.665 203.262 548.699 204.554C547.732 205.847 546.45 206.803 544.851 207.424C543.253 208.032 541.393 208.233 539.273 208.026L521.999 206.244L522.776 198.72L538.707 200.364C540.309 200.517 541.62 200.218 542.637 199.466C543.655 198.714 544.237 197.626 544.384 196.201C544.478 195.295 544.359 194.426 544.029 193.594C543.686 192.762 543.128 192.062 542.353 191.494C541.58 190.914 540.586 190.568 539.372 190.454Z" fill="#202B3D"/>
<path d="M559.749 283.756L556.999 277.829L559.45 273.071L561.504 268.555L565.867 259.817L568.886 266.325L565.979 272.293L564.113 275.527L559.749 283.756ZM546.436 268.226C550.034 266.557 553.41 265.819 556.566 266.012C559.717 266.194 562.502 267.147 564.919 268.87C567.321 270.587 569.197 272.901 570.547 275.811C571.907 278.742 572.462 281.682 572.211 284.629C571.961 287.577 570.888 290.313 568.992 292.837C567.096 295.36 564.355 297.454 560.769 299.118C557.172 300.787 553.798 301.53 550.647 301.348C547.496 301.166 544.719 300.216 542.317 298.499C539.905 296.786 538.019 294.465 536.659 291.533C535.308 288.623 534.759 285.694 535.009 282.747C535.244 279.793 536.309 277.054 538.205 274.531C540.095 271.996 542.839 269.895 546.436 268.226ZM549.717 275.296C547.387 276.377 545.584 277.638 544.308 279.078C543.027 280.508 542.264 282.043 542.02 283.683C541.776 285.322 542.045 286.985 542.827 288.671C543.61 290.357 544.705 291.636 546.115 292.509C547.525 293.382 549.192 293.796 551.115 293.751C553.034 293.696 555.158 293.128 557.489 292.047C559.819 290.966 561.624 289.711 562.905 288.281C564.181 286.841 564.941 285.301 565.185 283.661C565.429 282.021 565.16 280.358 564.378 278.673C563.596 276.987 562.5 275.708 561.09 274.835C559.681 273.962 558.016 273.553 556.098 273.608C554.174 273.653 552.047 274.215 549.717 275.296Z" fill="#202B3D"/>
<path d="M647.384 340.506C649.942 341.657 651.911 343.166 653.29 345.033C654.654 346.906 655.403 349.021 655.536 351.379C655.664 353.747 655.138 356.243 653.958 358.866C652.807 361.424 651.3 363.446 649.437 364.931C647.575 366.416 645.499 367.293 643.211 367.561C640.911 367.825 638.542 367.407 636.102 366.31C634.462 365.571 633.053 364.619 631.877 363.454C630.685 362.295 629.796 360.954 629.21 359.43C628.612 357.902 628.374 356.212 628.494 354.358C628.61 352.514 629.143 350.535 630.095 348.419L630.948 346.525L651.949 355.975L650.025 360.25L635.517 353.721C635.07 354.714 634.89 355.691 634.977 356.652C635.064 357.613 635.394 358.481 635.966 359.258C636.522 360.041 637.302 360.658 638.306 361.11C639.353 361.581 640.391 361.756 641.419 361.634C642.432 361.519 643.347 361.158 644.164 360.553C644.977 359.958 645.61 359.172 646.063 358.194L647.892 354.13C648.446 352.9 648.697 351.734 648.647 350.635C648.586 349.53 648.244 348.545 647.621 347.68C646.997 346.816 646.108 346.123 644.953 345.604C644.187 345.259 643.436 345.051 642.702 344.98C641.968 344.91 641.278 344.988 640.63 345.216C639.982 345.444 639.399 345.817 638.88 346.336L632.689 343.044C633.703 341.657 634.969 340.618 636.488 339.925C637.991 339.239 639.674 338.932 641.537 339.004C643.384 339.082 645.333 339.583 647.384 340.506Z" fill="#202B3D"/>
<path d="M684.29 385.9L687.43 349.673L694.966 350.326L691.826 386.554L684.29 385.9Z" fill="#202B3D"/>
<path d="M758.163 329.056L767.915 365.266L760.714 367.205L759.523 362.782L759.197 362.87C759.068 363.665 758.799 364.509 758.39 365.404C757.973 366.313 757.339 367.146 756.489 367.902C755.63 368.673 754.463 369.257 752.989 369.654C751.069 370.171 749.162 370.145 747.268 369.577C745.377 369.019 743.675 367.866 742.161 366.116C740.651 364.377 739.49 361.999 738.677 358.982C737.886 356.044 737.692 353.436 738.096 351.158C738.491 348.894 739.36 347.023 740.703 345.546C742.038 344.083 743.705 343.082 745.705 342.543C747.123 342.162 748.392 342.071 749.512 342.272C750.621 342.476 751.586 342.848 752.405 343.387C753.228 343.938 753.903 344.534 754.432 345.176L754.655 345.116L750.859 331.023L758.163 329.056ZM757.219 354.024C756.798 352.458 756.213 351.151 755.464 350.102C754.716 349.053 753.843 348.314 752.844 347.884C751.849 347.466 750.763 347.415 749.585 347.732C748.397 348.052 747.478 348.649 746.831 349.522C746.187 350.407 745.81 351.489 745.701 352.769C745.584 354.063 745.731 355.476 746.144 357.007C746.553 358.528 747.125 359.808 747.859 360.848C748.593 361.889 749.459 362.624 750.457 363.054C751.456 363.484 752.555 363.537 753.755 363.214C754.944 362.894 755.865 362.308 756.519 361.458C757.161 360.611 757.544 359.552 757.667 358.28C757.79 357.009 757.641 355.59 757.219 354.024Z" fill="#202B3D"/>
<path d="M834.757 272.551L855.324 290.461L850.59 295.897L846.962 292.737L846.752 292.978C847.584 294.456 847.913 295.998 847.738 297.604C847.564 299.211 846.871 300.71 845.658 302.103C844.43 303.513 843.032 304.407 841.463 304.783C839.904 305.168 838.383 305.005 836.899 304.293L836.712 304.508C837.525 305.953 837.806 307.532 837.556 309.244C837.306 310.973 836.524 312.592 835.21 314.1C833.539 316.02 831.571 317.045 829.306 317.176C827.043 317.324 824.795 316.427 822.564 314.483L808.731 302.438L813.687 296.747L826.394 307.813C827.537 308.808 828.658 309.251 829.758 309.141C830.858 309.031 831.805 308.521 832.597 307.611C833.499 306.575 833.872 305.48 833.717 304.324C833.571 303.177 832.962 302.136 831.891 301.204L819.33 290.266L824.146 284.736L836.974 295.906C837.983 296.785 839.039 297.194 840.142 297.135C841.238 297.084 842.194 296.591 843.01 295.653C843.562 295.019 843.899 294.308 844.02 293.519C844.143 292.747 844.047 291.965 843.733 291.173C843.427 290.389 842.894 289.666 842.136 289.006L829.789 278.255L834.757 272.551Z" fill="#202B3D"/>
<path d="M845.384 231.497L871.742 238.499L869.8 245.81L843.441 238.807L845.384 231.497ZM874.164 243.074C874.453 241.987 875.061 241.151 875.988 240.564C876.924 239.992 877.901 239.842 878.919 240.112C879.926 240.38 880.688 240.992 881.205 241.95C881.731 242.923 881.849 243.952 881.56 245.039C881.272 246.126 880.659 246.955 879.723 247.527C878.796 248.114 877.829 248.273 876.822 248.006C875.804 247.735 875.032 247.114 874.507 246.142C873.99 245.184 873.875 244.161 874.164 243.074Z" fill="#202B3D"/>
<path d="M872.834 179.723C874.246 179.441 875.293 178.725 875.977 177.576C876.66 176.426 876.911 174.932 876.73 173.094C876.607 171.846 876.326 170.809 875.888 169.984C875.461 169.157 874.919 168.545 874.261 168.146C873.604 167.759 872.887 167.603 872.11 167.68C871.46 167.721 870.908 167.912 870.454 168.254C870.001 168.608 869.624 169.067 869.323 169.632C869.034 170.196 868.794 170.838 868.603 171.559C868.424 172.278 868.285 173.041 868.187 173.848L867.73 177.176C867.532 178.789 867.204 180.285 866.745 181.662C866.286 183.04 865.675 184.254 864.91 185.305C864.145 186.355 863.206 187.203 862.092 187.849C860.98 188.506 859.67 188.914 858.163 189.075C855.947 189.282 853.971 188.906 852.235 187.947C850.512 186.999 849.1 185.521 847.997 183.512C846.908 181.514 846.218 179.043 845.928 176.098C845.64 173.176 845.836 170.588 846.518 168.332C847.2 166.088 848.359 164.273 849.995 162.886C851.643 161.51 853.766 160.664 856.364 160.349L857.094 167.752C855.889 167.954 854.91 168.402 854.158 169.095C853.418 169.798 852.894 170.688 852.584 171.766C852.287 172.854 852.203 174.057 852.333 175.377C852.461 176.672 852.761 177.779 853.232 178.696C853.704 179.624 854.302 180.321 855.026 180.785C855.749 181.248 856.547 181.437 857.419 181.351C858.232 181.271 858.891 180.962 859.397 180.425C859.904 179.899 860.307 179.157 860.605 178.2C860.904 177.255 861.148 176.107 861.336 174.756L861.936 170.718C862.378 167.594 863.3 165.07 864.704 163.148C866.108 161.225 868.148 160.137 870.823 159.885C873.013 159.657 874.985 160.052 876.739 161.068C878.493 162.096 879.933 163.602 881.056 165.584C882.179 167.567 882.871 169.877 883.132 172.516C883.397 175.202 883.169 177.592 882.447 179.685C881.727 181.79 880.604 183.483 879.077 184.763C877.55 186.044 875.71 186.808 873.558 187.056L872.834 179.723Z" fill="#202B3D"/>
<path d="M829.889 83.1187L803.537 94.9629L797.673 88.7779L810.906 63.0947L816.403 68.8932L806.138 86.4289L806.334 86.6351L824.38 77.3074L829.889 83.1187Z" fill="#202B3D"/>
<path d="M742.517 59.244C739.89 58.2591 737.828 56.8793 736.332 55.1047C734.851 53.3231 733.968 51.2603 733.684 48.9161C733.404 46.5609 733.769 44.0366 734.778 41.3433C735.763 38.7165 737.138 36.6022 738.901 35.0005C740.665 33.3989 742.68 32.3908 744.946 31.9764C747.224 31.5662 749.615 31.8307 752.12 32.7698C753.805 33.4015 755.271 34.2611 756.52 35.3485C757.783 36.4291 758.757 37.7105 759.44 39.1929C760.134 40.6794 760.48 42.3516 760.479 44.2095C760.482 46.0563 760.076 48.0659 759.262 50.2383L758.532 52.1835L736.969 44.0988L738.615 39.7096L753.511 45.2947C753.893 44.275 754.01 43.2886 753.862 42.3354C753.714 41.3823 753.329 40.5365 752.709 39.7981C752.103 39.0528 751.285 38.4869 750.254 38.1004C749.179 37.6973 748.132 37.5893 747.114 37.7764C746.111 37.9566 745.221 38.375 744.444 39.0318C743.671 39.6774 743.09 40.5025 742.7 41.507L741.136 45.68C740.662 46.9435 740.485 48.1225 740.606 49.217C740.738 50.3157 741.142 51.2764 741.82 52.0993C742.497 52.9222 743.429 53.556 744.615 54.0007C745.402 54.2957 746.164 54.455 746.901 54.4785C747.638 54.502 748.323 54.3793 748.954 54.1105C749.586 53.8417 750.144 53.4316 750.629 52.8801L757.018 55.7684C756.095 57.2176 754.898 58.3364 753.427 59.1248C751.971 59.9063 750.311 60.3206 748.448 60.3678C746.599 60.4081 744.622 60.0335 742.517 59.244Z" fill="#202B3D"/>
<path d="M663.235 56.4032L650.486 58.3067L645.117 22.3417L657.971 20.4225C661.589 19.8824 664.81 20.1374 667.636 21.1876C670.46 22.2261 672.775 23.981 674.58 26.4523C676.397 28.9217 677.584 32.0238 678.142 35.7585C678.701 39.5048 678.473 42.8301 677.459 45.7343C676.456 48.6367 674.745 51.0046 672.326 52.8379C669.918 54.6694 666.888 55.8579 663.235 56.4032ZM657.117 50.6563L661.947 49.9353C664.194 49.5997 666.026 48.9193 667.441 47.8942C668.865 46.8557 669.838 45.4358 670.359 43.6346C670.89 41.8199 670.956 39.5721 670.555 36.8911C670.158 34.2335 669.442 32.1204 668.406 30.5516C667.382 28.9811 666.043 27.9123 664.391 27.3452C662.738 26.7781 660.788 26.6623 658.54 26.9979L653.693 27.7216L657.117 50.6563Z" fill="#202B3D"/>
</svg>
