<svg width="1400" height="400" viewBox="0 0 1400 400" fill="none" xmlns="http://www.w3.org/2000/svg">
<rect x="0.5" y="0.5" width="1399" height="399" fill="#E9E9E9" stroke="#999999"/>
<path d="M164.844 140.031L161.622 136.875L159.156 115.77L159.016 115.633L149.996 124.842L145.683 120.618L161.077 104.901L164.59 108.343L167.337 128.579L167.476 128.716L176.571 119.431L180.884 123.655L164.844 140.031Z" fill="#202B3D"/>
<path d="M153.962 161.582L129.385 149.76L132.664 142.943L157.241 154.765L153.962 161.582ZM127.864 144.812C127.377 145.825 126.622 146.533 125.601 146.935C124.575 147.321 123.587 147.286 122.638 146.829C121.699 146.378 121.065 145.633 120.737 144.595C120.403 143.541 120.48 142.508 120.968 141.494C121.455 140.481 122.212 139.781 123.239 139.395C124.26 138.993 125.239 139.017 126.178 139.469C127.127 139.926 127.769 140.681 128.103 141.735C128.431 142.773 128.351 143.798 127.864 144.812Z" fill="#202B3D"/>
<path d="M135.295 188.903L119.718 187.296L120.494 179.772L147.623 182.571L146.877 189.795L141.95 189.286L141.92 189.569C143.447 190.345 144.619 191.495 145.438 193.02C146.257 194.532 146.562 196.307 146.352 198.344C146.165 200.157 145.588 201.71 144.622 203.003C143.655 204.296 142.373 205.252 140.773 205.872C139.176 206.481 137.316 206.682 135.196 206.475L117.922 204.692L118.699 197.169L134.63 198.812C136.232 198.966 137.542 198.667 138.56 197.915C139.578 197.163 140.16 196.075 140.307 194.65C140.401 193.744 140.282 192.875 139.951 192.043C139.609 191.21 139.051 190.51 138.276 189.942C137.503 189.363 136.509 189.016 135.295 188.903Z" fill="#202B3D"/>
<path d="M147.89 257.487L145.141 251.56L147.591 246.802L149.646 242.286L154.009 233.548L157.028 240.055L154.12 246.024L152.254 249.258L147.89 257.487ZM134.578 241.957C138.175 240.288 141.552 239.55 144.708 239.743C147.859 239.925 150.643 240.878 153.061 242.601C155.462 244.318 157.338 246.632 158.688 249.542C160.048 252.473 160.603 255.413 160.353 258.36C160.102 261.308 159.029 264.044 157.134 266.568C155.238 269.091 152.497 271.185 148.911 272.849C145.314 274.518 141.939 275.261 138.788 275.079C135.637 274.897 132.861 273.947 130.459 272.23C128.046 270.517 126.16 268.196 124.8 265.264C123.45 262.354 122.9 259.425 123.151 256.477C123.385 253.524 124.451 250.785 126.346 248.262C128.237 245.727 130.981 243.625 134.578 241.957ZM137.858 249.027C135.528 250.108 133.725 251.369 132.449 252.809C131.168 254.239 130.406 255.774 130.162 257.413C129.918 259.053 130.187 260.716 130.969 262.402C131.751 264.088 132.847 265.367 134.257 266.24C135.666 267.113 137.333 267.527 139.257 267.482C141.176 267.427 143.3 266.859 145.63 265.778C147.96 264.697 149.766 263.442 151.047 262.012C152.323 260.572 153.083 259.032 153.327 257.392C153.571 255.752 153.302 254.089 152.52 252.404C151.737 250.718 150.642 249.438 149.232 248.566C147.822 247.693 146.158 247.284 144.239 247.339C142.315 247.384 140.189 247.946 137.858 249.027Z" fill="#202B3D"/>
<path d="M210.828 296.361C213.386 297.512 215.355 299.022 216.735 300.888C218.099 302.761 218.847 304.877 218.981 307.234C219.109 309.602 218.583 312.098 217.403 314.721C216.251 317.279 214.744 319.301 212.882 320.787C211.019 322.272 208.944 323.149 206.655 323.417C204.356 323.68 201.987 323.263 199.547 322.165C197.906 321.427 196.498 320.475 195.322 319.31C194.13 318.15 193.241 316.809 192.654 315.286C192.057 313.758 191.818 312.067 191.939 310.213C192.054 308.37 192.588 306.39 193.54 304.275L194.393 302.38L215.393 311.831L213.47 316.106L198.962 309.577C198.515 310.57 198.335 311.547 198.422 312.507C198.509 313.468 198.838 314.337 199.41 315.114C199.967 315.896 200.747 316.513 201.751 316.965C202.798 317.436 203.835 317.611 204.864 317.49C205.876 317.374 206.791 317.014 207.609 316.408C208.422 315.813 209.055 315.027 209.507 314.05L211.336 309.986C211.89 308.755 212.142 307.59 212.092 306.49C212.031 305.385 211.689 304.4 211.065 303.536C210.442 302.671 209.553 301.979 208.398 301.459C207.631 301.114 206.881 300.906 206.147 300.836C205.413 300.765 204.722 300.844 204.074 301.071C203.427 301.299 202.843 301.673 202.324 302.192L196.134 298.9C197.148 297.513 198.414 296.473 199.933 295.781C201.436 295.094 203.119 294.787 204.981 294.859C206.828 294.938 208.777 295.438 210.828 296.361Z" fill="#202B3D"/>
<path d="M235.625 340.055L238.765 303.827L246.3 304.48L243.161 340.708L235.625 340.055Z" fill="#202B3D"/>
<path d="M290.448 286.421L300.2 322.631L293 324.57L291.808 320.147L291.482 320.234C291.353 321.029 291.084 321.874 290.676 322.769C290.258 323.678 289.625 324.511 288.774 325.267C287.915 326.038 286.748 326.621 285.274 327.019C283.354 327.536 281.447 327.51 279.553 326.941C277.662 326.384 275.96 325.231 274.446 323.481C272.936 321.742 271.775 319.364 270.962 316.347C270.171 313.409 269.977 310.801 270.381 308.522C270.776 306.258 271.645 304.388 272.988 302.91C274.323 301.448 275.99 300.447 277.99 299.908C279.408 299.527 280.677 299.436 281.797 299.637C282.907 299.841 283.871 300.212 284.69 300.752C285.513 301.302 286.188 301.899 286.717 302.541L286.94 302.481L283.144 288.388L290.448 286.421ZM289.505 311.389C289.083 309.823 288.498 308.516 287.749 307.467C287.001 306.418 286.128 305.679 285.129 305.249C284.134 304.83 283.048 304.78 281.87 305.097C280.682 305.417 279.764 306.014 279.116 306.887C278.472 307.771 278.095 308.854 277.986 310.133C277.869 311.428 278.017 312.841 278.429 314.372C278.839 315.892 279.41 317.173 280.144 318.213C280.878 319.254 281.744 319.989 282.742 320.419C283.741 320.848 284.84 320.902 286.04 320.579C287.229 320.258 288.15 319.673 288.804 318.823C289.446 317.976 289.829 316.916 289.952 315.645C290.076 314.374 289.926 312.955 289.505 311.389Z" fill="#202B3D"/>
<path d="M344.66 249.027L365.228 266.937L360.494 272.373L356.865 269.213L356.655 269.454C357.487 270.932 357.816 272.474 357.642 274.081C357.468 275.687 356.774 277.186 355.561 278.579C354.333 279.989 352.935 280.883 351.367 281.26C349.808 281.644 348.286 281.481 346.802 280.769L346.616 280.984C347.429 282.429 347.71 284.008 347.459 285.72C347.209 287.449 346.428 289.068 345.114 290.577C343.443 292.496 341.475 293.521 339.21 293.652C336.947 293.8 334.699 292.903 332.467 290.959L318.635 278.914L323.59 273.223L336.298 284.289C337.441 285.284 338.562 285.727 339.662 285.617C340.762 285.508 341.708 284.997 342.501 284.087C343.403 283.051 343.776 281.956 343.621 280.8C343.474 279.653 342.865 278.612 341.794 277.68L329.234 266.742L334.05 261.212L346.878 272.383C347.886 273.261 348.942 273.67 350.046 273.611C351.141 273.56 352.097 273.067 352.914 272.129C353.465 271.495 353.802 270.784 353.924 269.995C354.047 269.224 353.951 268.441 353.636 267.649C353.33 266.865 352.798 266.143 352.039 265.482L339.693 254.731L344.66 249.027Z" fill="#202B3D"/>
<path d="M350.723 222.084L377.082 229.087L375.139 236.397L348.781 229.395L350.723 222.084ZM379.504 233.662C379.792 232.575 380.401 231.738 381.328 231.152C382.264 230.58 383.241 230.429 384.259 230.7C385.266 230.967 386.028 231.58 386.545 232.538C387.07 233.51 387.189 234.54 386.9 235.627C386.611 236.713 385.999 237.543 385.063 238.115C384.136 238.701 383.169 238.861 382.162 238.593C381.144 238.323 380.372 237.701 379.846 236.729C379.329 235.771 379.215 234.749 379.504 233.662Z" fill="#202B3D"/>
<path d="M378.161 190.222C379.573 189.94 380.62 189.224 381.304 188.074C381.987 186.924 382.238 185.431 382.057 183.593C381.934 182.344 381.653 181.307 381.215 180.482C380.788 179.656 380.246 179.043 379.588 178.644C378.932 178.257 378.215 178.102 377.437 178.179C376.787 178.219 376.235 178.41 375.781 178.752C375.328 179.106 374.951 179.566 374.65 180.131C374.361 180.695 374.121 181.337 373.93 182.057C373.751 182.777 373.613 183.54 373.514 184.347L373.057 187.675C372.859 189.288 372.531 190.783 372.072 192.161C371.614 193.538 371.002 194.752 370.237 195.803C369.473 196.854 368.533 197.702 367.419 198.347C366.307 199.004 364.997 199.413 363.49 199.573C361.275 199.78 359.299 199.404 357.563 198.445C355.839 197.497 354.427 196.019 353.325 194.011C352.235 192.013 351.546 189.541 351.255 186.596C350.967 183.675 351.163 181.086 351.845 178.83C352.527 176.586 353.686 174.771 355.322 173.385C356.97 172.009 359.093 171.163 361.691 170.847L362.421 178.251C361.216 178.453 360.237 178.9 359.485 179.593C358.745 180.297 358.221 181.187 357.911 182.264C357.614 183.352 357.53 184.556 357.66 185.875C357.788 187.171 358.088 188.277 358.559 189.194C359.031 190.123 359.629 190.819 360.353 191.283C361.077 191.747 361.874 191.936 362.746 191.85C363.559 191.77 364.218 191.461 364.724 190.923C365.231 190.397 365.634 189.656 365.932 188.699C366.231 187.753 366.475 186.605 366.663 185.254L367.264 181.216C367.705 178.092 368.627 175.569 370.031 173.646C371.436 171.723 373.475 170.636 376.151 170.384C378.34 170.156 380.312 170.55 382.066 171.567C383.821 172.595 385.26 174.1 386.383 176.083C387.507 178.065 388.198 180.376 388.459 183.015C388.724 185.701 388.496 188.09 387.774 190.183C387.054 192.288 385.931 193.981 384.404 195.262C382.877 196.542 381.037 197.307 378.885 197.555L378.161 190.222Z" fill="#202B3D"/>
<path d="M350.753 118.287L324.401 130.131L318.537 123.946L331.77 98.2632L337.267 104.062L327.002 121.597L327.198 121.804L345.244 112.476L350.753 118.287Z" fill="#202B3D"/>
<path d="M281.948 103.642C279.321 102.657 277.259 101.277 275.763 99.5026C274.282 97.7211 273.399 95.6582 273.115 93.3141C272.835 90.9589 273.2 88.4346 274.21 85.7413C275.195 83.1144 276.569 81.0002 278.332 79.3985C280.096 77.7968 282.111 76.7888 284.378 76.3744C286.655 75.9642 289.047 76.2286 291.551 77.1678C293.236 77.7994 294.703 78.659 295.951 79.7465C297.215 80.827 298.188 82.1085 298.871 83.5909C299.565 85.0774 299.912 86.7496 299.91 88.6074C299.913 90.4542 299.508 92.4638 298.693 94.6362L297.964 96.5814L276.4 88.4967L278.046 84.1076L292.943 89.6927C293.325 88.673 293.442 87.6865 293.294 86.7334C293.145 85.7802 292.761 84.9344 292.14 84.196C291.535 83.4507 290.716 82.8848 289.686 82.4984C288.61 82.0953 287.564 81.9873 286.546 82.1744C285.542 82.3545 284.652 82.773 283.875 83.4297C283.102 84.0754 282.521 84.9005 282.132 85.9049L280.567 90.0779C280.093 91.3415 279.917 92.5205 280.037 93.615C280.169 94.7136 280.574 95.6744 281.251 96.4973C281.929 97.3202 282.861 97.954 284.047 98.3986C284.833 98.6936 285.595 98.8529 286.333 98.8764C287.07 98.8999 287.754 98.7773 288.386 98.5085C289.017 98.2397 289.576 97.8295 290.061 97.2781L296.449 100.166C295.526 101.616 294.329 102.734 292.858 103.523C291.402 104.304 289.742 104.719 287.879 104.766C286.031 104.806 284.054 104.431 281.948 103.642Z" fill="#202B3D"/>
<path d="M226.914 100.141L214.165 102.044L208.796 66.079L221.65 64.1598C225.268 63.6197 228.489 63.8747 231.315 64.9249C234.139 65.9635 236.454 67.7183 238.259 70.1896C240.076 72.659 241.263 75.7611 241.821 79.4958C242.38 83.2421 242.152 86.5674 241.138 89.4716C240.135 92.374 238.424 94.7419 236.005 96.5752C233.597 98.4067 230.567 99.5952 226.914 100.141ZM220.796 94.3936L225.626 93.6726C227.873 93.337 229.705 92.6566 231.12 91.6315C232.544 90.593 233.517 89.1731 234.038 87.3719C234.569 85.5572 234.634 83.3094 234.234 80.6284C233.837 77.9708 233.121 75.8577 232.085 74.2889C231.06 72.7184 229.722 71.6496 228.07 71.0825C226.417 70.5154 224.467 70.3996 222.219 70.7352L217.372 71.4589L220.796 94.3936Z" fill="#202B3D"/>
<g filter="url(#filter0_d_108_883)">
<path d="M461.24 203.52H467.76V207.88H461.24V203.52ZM457.28 189.48H462.64V226.52H457.28V189.48ZM434.72 193.04H440.04V216.04H434.72V193.04ZM434.72 213.08H437.92C443.2 213.08 448.92 212.72 454.88 211.52L455.44 215.88C449.32 217.16 443.36 217.48 437.92 217.48H434.72V213.08ZM481.917 191.96C487.757 191.96 492.117 195.76 492.117 201.08C492.117 206.44 487.757 210.24 481.917 210.24C476.117 210.24 471.677 206.44 471.677 201.08C471.677 195.76 476.117 191.96 481.917 191.96ZM481.917 196.52C479.077 196.52 476.917 198.2 476.917 201.08C476.917 204 479.077 205.68 481.917 205.68C484.757 205.68 486.917 204 486.917 201.08C486.917 198.2 484.757 196.52 481.917 196.52ZM495.597 189.48H500.917V226.64H495.597V189.48ZM470.797 219.12L470.157 214.84C476.677 214.84 485.757 214.76 493.557 213.6L493.957 217.44C485.917 219.04 477.197 219.12 470.797 219.12ZM525.412 192.08C530.932 192.08 534.972 197.2 534.972 205.28C534.972 213.44 530.932 218.56 525.412 218.56C519.852 218.56 515.852 213.44 515.852 205.28C515.852 197.2 519.852 192.08 525.412 192.08ZM525.412 196.92C522.732 196.92 520.932 199.84 520.932 205.28C520.932 210.8 522.732 213.76 525.412 213.76C528.132 213.76 529.892 210.8 529.892 205.28C529.892 199.84 528.132 196.92 525.412 196.92ZM541.052 189.48H546.332V226.64H541.052V189.48ZM533.412 202.84H543.292V207.12H533.412V202.84ZM561.008 214H566.328V225.96H561.008V214ZM577.368 189.56H582.648V226.6H577.368V189.56ZM552.448 216.6L551.848 212.4C558.928 212.4 567.688 212.36 575.368 211.52L575.728 215.32C567.728 216.52 559.368 216.6 552.448 216.6ZM552.848 193.04H574.528V197.08H552.848V193.04ZM563.688 198.12C569.008 198.12 572.728 200.64 572.728 204.4C572.728 208.16 569.008 210.72 563.688 210.72C558.328 210.72 554.608 208.16 554.608 204.4C554.608 200.64 558.328 198.12 563.688 198.12ZM563.688 202C561.248 202 559.648 202.8 559.648 204.4C559.648 206 561.248 206.8 563.688 206.8C566.088 206.8 567.688 206 567.688 204.4C567.688 202.8 566.088 202 563.688 202ZM561.008 189.24H566.328V195.6H561.008V189.24ZM616.943 198.04H623.983V202.36H616.943V198.04ZM622.583 189.52H627.903V210.92H622.583V189.52ZM603.223 212.44H627.903V226.16H603.223V212.44ZM622.703 216.6H608.463V221.96H622.703V216.6ZM605.463 192.96H609.783V195.28C609.783 202.28 606.503 208.68 599.383 211L596.703 206.8C602.823 204.8 605.463 199.96 605.463 195.28V192.96ZM606.583 192.96H610.863V195.28C610.863 199.6 613.383 204.16 619.223 206.12L616.623 210.32C609.743 208.04 606.583 201.88 606.583 195.28V192.96ZM598.143 191.4H618.063V195.6H598.143V191.4ZM647.26 190.6H651.94V192.32C651.94 199.44 646.34 205.48 636.62 206.92L634.54 202.64C643.06 201.52 647.26 196.68 647.26 192.32V190.6ZM648.26 190.6H652.9V192.32C652.9 196.64 657.14 201.52 665.62 202.64L663.58 206.92C653.86 205.48 648.26 199.44 648.26 192.32V190.6ZM647.3 213H652.58V226.56H647.3V213ZM633.34 209.64H666.82V213.96H633.34V209.64ZM669.697 206.12H703.257V210H669.697V206.12ZM673.457 211.84H699.257V220.64H678.817V223.8H673.537V217.28H694.017V215.44H673.457V211.84ZM673.537 222.68H700.297V226.28H673.537V222.68ZM673.817 190.16H699.177V198.88H679.137V201.92H673.857V195.56H693.937V193.72H673.817V190.16ZM673.857 200.8H699.857V204.4H673.857V200.8ZM730.032 203H736.592V207.28H730.032V203ZM716.032 214.16H718.552C723.752 214.16 727.112 214.08 731.152 213.4L731.592 217.64C727.432 218.36 723.872 218.44 718.552 218.44H716.032V214.16ZM716.032 193.6H729.792V197.8H721.072V215.72H716.032V193.6ZM719.632 203.56H728.392V207.64H719.632V203.56ZM741.712 189.52H746.792V226.56H741.712V189.52ZM734.072 190.16H739.032V224.92H734.072V190.16ZM765.108 191.64H769.748V194.32C769.748 202.36 764.028 209.48 754.428 211.36L752.148 206.96C760.508 205.52 765.108 199.64 765.108 194.32V191.64ZM766.188 191.64H770.788V194.32C770.788 199.76 775.348 205.52 783.748 206.96L781.468 211.36C771.868 209.48 766.188 202.48 766.188 194.32V191.64ZM751.388 217.72H784.908V222.04H751.388V217.72ZM791.705 208.6H817.745V212.76H791.705V208.6ZM787.785 218H821.305V222.32H787.785V218ZM791.705 192.2H817.425V196.48H797.105V209.76H791.705V192.2ZM795.465 200.36H816.585V204.48H795.465V200.36ZM832.96 195.08H850.68V199.32H832.96V195.08ZM841.88 200.96C846.6 200.96 850 204.6 850 209.8C850 214.96 846.6 218.6 841.88 218.6C837.2 218.6 833.76 214.96 833.76 209.8C833.76 204.6 837.2 200.96 841.88 200.96ZM841.88 205.4C839.88 205.4 838.48 207 838.48 209.8C838.48 212.6 839.88 214.16 841.88 214.16C843.88 214.16 845.32 212.6 845.32 209.8C845.32 207 843.88 205.4 841.88 205.4ZM859.76 189.52H864.84V226.56H859.76V189.52ZM855.32 204.56H861.44V208.84H855.32V204.56ZM852 190.2H856.96V225H852V190.2ZM839.28 190.52H844.52V197.76H839.28V190.52ZM869.437 217.96H902.957V222.28H869.437V217.96ZM883.477 210.04H888.797V219H883.477V210.04ZM872.957 191.88H878.237V197.56H894.037V191.88H899.317V211.16H872.957V191.88ZM878.237 201.72V206.92H894.037V201.72H878.237ZM920.394 201.96H926.514V206.28H920.394V201.96ZM912.474 192.72H916.554V198.96C916.554 207.36 914.234 215.56 908.314 219.2L905.114 215.2C910.554 211.84 912.474 205.24 912.474 198.96V192.72ZM913.634 192.72H917.634V198.72C917.634 204.76 919.194 210.92 924.234 214.2L921.354 218.36C915.474 214.72 913.634 206.72 913.634 198.72V192.72ZM932.554 189.52H937.634V226.56H932.554V189.52ZM925.034 190.08H929.994V224.88H925.034V190.08ZM949.591 208.32H954.871V218.72H949.591V208.32ZM963.031 208.32H968.351V218.72H963.031V208.32ZM942.231 217.96H975.751V222.28H942.231V217.96ZM958.951 191.32C966.911 191.32 972.791 195.24 972.791 201.28C972.791 207.32 966.911 211.2 958.951 211.2C950.951 211.2 945.111 207.32 945.111 201.28C945.111 195.24 950.951 191.32 958.951 191.32ZM958.951 195.48C953.791 195.48 950.351 197.6 950.351 201.28C950.351 204.92 953.791 207.08 958.951 207.08C964.111 207.08 967.551 204.92 967.551 201.28C967.551 197.6 964.111 195.48 958.951 195.48ZM986.632 193.909L986.078 214.278H980.88L980.311 193.909H986.632ZM983.479 223.369C982.541 223.369 981.737 223.038 981.064 222.375C980.392 221.703 980.06 220.898 980.07 219.96C980.06 219.032 980.392 218.237 981.064 217.574C981.737 216.911 982.541 216.58 983.479 216.58C984.379 216.58 985.169 216.911 985.851 217.574C986.533 218.237 986.879 219.032 986.888 219.96C986.879 220.585 986.713 221.158 986.391 221.679C986.078 222.19 985.666 222.602 985.155 222.915C984.644 223.218 984.085 223.369 983.479 223.369Z" fill="#202B3D"/>
</g>
<defs>
<filter id="filter0_d_108_883" x="428.42" y="186.94" width="564.768" height="49.9999" filterUnits="userSpaceOnUse" color-interpolation-filters="sRGB">
<feFlood flood-opacity="0" result="BackgroundImageFix"/>
<feColorMatrix in="SourceAlpha" type="matrix" values="0 0 0 0 0 0 0 0 0 0 0 0 0 0 0 0 0 0 127 0" result="hardAlpha"/>
<feOffset dy="4"/>
<feGaussianBlur stdDeviation="3.15"/>
<feComposite in2="hardAlpha" operator="out"/>
<feColorMatrix type="matrix" values="0 0 0 0 0 0 0 0 0 0 0 0 0 0 0 0 0 0 0.25 0"/>
<feBlend mode="normal" in2="BackgroundImageFix" result="effect1_dropShadow_108_883"/>
<feBlend mode="normal" in="SourceGraphic" in2="effect1_dropShadow_108_883" result="shape"/>
</filter>
</defs>
</svg>
