<svg width="1400" height="400" viewBox="0 0 1400 400" fill="none" xmlns="http://www.w3.org/2000/svg">
<rect x="0.5" y="0.5" width="1399" height="399" fill="#E9E9E9" stroke="#999999"/>
<path d="M164.844 140.031L161.622 136.875L159.156 115.77L159.016 115.633L149.996 124.842L145.683 120.618L161.077 104.901L164.59 108.343L167.337 128.579L167.476 128.716L176.571 119.431L180.884 123.655L164.844 140.031Z" fill="#202B3D"/>
<path d="M153.962 161.582L129.385 149.76L132.664 142.943L157.241 154.765L153.962 161.582ZM127.864 144.812C127.377 145.825 126.622 146.533 125.601 146.935C124.575 147.321 123.587 147.286 122.638 146.829C121.699 146.378 121.065 145.633 120.737 144.595C120.403 143.541 120.48 142.508 120.968 141.494C121.455 140.481 122.212 139.781 123.239 139.395C124.26 138.993 125.239 139.017 126.178 139.469C127.127 139.926 127.769 140.681 128.103 141.735C128.431 142.773 128.351 143.798 127.864 144.812Z" fill="#202B3D"/>
<path d="M135.295 188.903L119.718 187.296L120.494 179.772L147.623 182.571L146.877 189.795L141.95 189.286L141.92 189.569C143.447 190.345 144.619 191.495 145.438 193.02C146.257 194.532 146.562 196.307 146.352 198.344C146.165 200.157 145.588 201.71 144.622 203.003C143.655 204.296 142.373 205.252 140.773 205.872C139.176 206.481 137.316 206.682 135.196 206.475L117.922 204.692L118.699 197.169L134.63 198.812C136.232 198.966 137.542 198.667 138.56 197.915C139.578 197.163 140.16 196.075 140.307 194.65C140.401 193.744 140.282 192.875 139.951 192.043C139.609 191.21 139.051 190.51 138.276 189.942C137.503 189.363 136.509 189.016 135.295 188.903Z" fill="#202B3D"/>
<path d="M147.89 257.487L145.141 251.56L147.591 246.802L149.646 242.286L154.009 233.548L157.028 240.055L154.12 246.024L152.254 249.258L147.89 257.487ZM134.578 241.957C138.175 240.288 141.552 239.55 144.708 239.743C147.859 239.925 150.643 240.878 153.061 242.601C155.462 244.318 157.338 246.632 158.688 249.542C160.048 252.473 160.603 255.413 160.353 258.36C160.102 261.308 159.029 264.044 157.134 266.568C155.238 269.091 152.497 271.185 148.911 272.849C145.314 274.518 141.939 275.261 138.788 275.079C135.637 274.897 132.861 273.947 130.459 272.23C128.046 270.517 126.16 268.196 124.8 265.264C123.45 262.354 122.9 259.425 123.151 256.477C123.385 253.524 124.451 250.785 126.346 248.262C128.237 245.727 130.981 243.625 134.578 241.957ZM137.858 249.027C135.528 250.108 133.725 251.369 132.449 252.809C131.168 254.239 130.406 255.774 130.162 257.413C129.918 259.053 130.187 260.716 130.969 262.402C131.751 264.088 132.847 265.367 134.257 266.24C135.666 267.113 137.333 267.527 139.257 267.482C141.176 267.427 143.3 266.859 145.63 265.778C147.96 264.697 149.766 263.442 151.047 262.012C152.323 260.572 153.083 259.032 153.327 257.392C153.571 255.752 153.302 254.089 152.52 252.404C151.737 250.718 150.642 249.438 149.232 248.566C147.822 247.693 146.158 247.284 144.239 247.339C142.315 247.384 140.189 247.946 137.858 249.027Z" fill="#202B3D"/>
<path d="M210.828 296.361C213.386 297.512 215.355 299.022 216.735 300.888C218.099 302.761 218.847 304.877 218.981 307.234C219.109 309.602 218.583 312.098 217.403 314.721C216.251 317.279 214.744 319.301 212.882 320.787C211.019 322.272 208.944 323.149 206.655 323.417C204.356 323.68 201.987 323.263 199.547 322.165C197.906 321.427 196.498 320.475 195.322 319.31C194.13 318.15 193.241 316.809 192.654 315.286C192.057 313.758 191.818 312.067 191.939 310.213C192.054 308.37 192.588 306.39 193.54 304.275L194.393 302.38L215.393 311.831L213.47 316.106L198.962 309.577C198.515 310.57 198.335 311.547 198.422 312.507C198.509 313.468 198.838 314.337 199.41 315.114C199.967 315.896 200.747 316.513 201.751 316.965C202.798 317.436 203.835 317.611 204.864 317.49C205.876 317.374 206.791 317.014 207.609 316.408C208.422 315.813 209.055 315.027 209.507 314.05L211.336 309.986C211.89 308.755 212.142 307.59 212.092 306.49C212.031 305.385 211.689 304.4 211.065 303.536C210.442 302.671 209.553 301.979 208.398 301.459C207.631 301.114 206.881 300.906 206.147 300.836C205.413 300.765 204.722 300.844 204.074 301.071C203.427 301.299 202.843 301.673 202.324 302.192L196.134 298.9C197.148 297.513 198.414 296.473 199.933 295.781C201.436 295.094 203.119 294.787 204.981 294.859C206.828 294.938 208.777 295.438 210.828 296.361Z" fill="#202B3D"/>
<path d="M235.625 340.055L238.765 303.827L246.3 304.48L243.161 340.708L235.625 340.055Z" fill="#202B3D"/>
<path d="M290.448 286.421L300.2 322.631L293 324.57L291.808 320.147L291.482 320.234C291.353 321.029 291.084 321.874 290.676 322.769C290.258 323.678 289.625 324.511 288.774 325.267C287.915 326.038 286.748 326.621 285.274 327.019C283.354 327.536 281.447 327.51 279.553 326.941C277.662 326.384 275.96 325.231 274.446 323.481C272.936 321.742 271.775 319.364 270.962 316.347C270.171 313.409 269.977 310.801 270.381 308.522C270.776 306.258 271.645 304.388 272.988 302.91C274.323 301.448 275.99 300.447 277.99 299.908C279.408 299.527 280.677 299.436 281.797 299.637C282.907 299.841 283.871 300.212 284.69 300.752C285.513 301.302 286.188 301.899 286.717 302.541L286.94 302.481L283.144 288.388L290.448 286.421ZM289.505 311.389C289.083 309.823 288.498 308.516 287.749 307.467C287.001 306.418 286.128 305.679 285.129 305.249C284.134 304.83 283.048 304.78 281.87 305.097C280.682 305.417 279.764 306.014 279.116 306.887C278.472 307.771 278.095 308.854 277.986 310.133C277.869 311.428 278.017 312.841 278.429 314.372C278.839 315.892 279.41 317.173 280.144 318.213C280.878 319.254 281.744 319.989 282.742 320.419C283.741 320.848 284.84 320.902 286.04 320.579C287.229 320.258 288.15 319.673 288.804 318.823C289.446 317.976 289.829 316.916 289.952 315.645C290.076 314.374 289.926 312.955 289.505 311.389Z" fill="#202B3D"/>
<path d="M344.66 249.027L365.228 266.937L360.494 272.373L356.865 269.213L356.655 269.454C357.487 270.932 357.816 272.474 357.642 274.081C357.468 275.687 356.774 277.186 355.561 278.579C354.333 279.989 352.935 280.883 351.367 281.26C349.808 281.644 348.286 281.481 346.802 280.769L346.616 280.984C347.429 282.429 347.71 284.008 347.459 285.72C347.209 287.449 346.428 289.068 345.114 290.577C343.443 292.496 341.475 293.521 339.21 293.652C336.947 293.8 334.699 292.903 332.467 290.959L318.635 278.914L323.59 273.223L336.298 284.289C337.441 285.284 338.562 285.727 339.662 285.617C340.762 285.508 341.708 284.997 342.501 284.087C343.403 283.051 343.776 281.956 343.621 280.8C343.474 279.653 342.865 278.612 341.794 277.68L329.234 266.742L334.05 261.212L346.878 272.383C347.886 273.261 348.942 273.67 350.046 273.611C351.141 273.56 352.097 273.067 352.914 272.129C353.465 271.495 353.802 270.784 353.924 269.995C354.047 269.224 353.951 268.441 353.636 267.649C353.33 266.865 352.798 266.143 352.039 265.482L339.693 254.731L344.66 249.027Z" fill="#202B3D"/>
<path d="M350.723 222.084L377.082 229.087L375.139 236.397L348.781 229.395L350.723 222.084ZM379.504 233.662C379.792 232.575 380.401 231.738 381.328 231.152C382.264 230.58 383.241 230.429 384.259 230.7C385.266 230.967 386.028 231.58 386.545 232.538C387.07 233.51 387.189 234.54 386.9 235.627C386.611 236.713 385.999 237.543 385.063 238.115C384.136 238.701 383.169 238.861 382.162 238.593C381.144 238.323 380.372 237.701 379.846 236.729C379.329 235.771 379.215 234.749 379.504 233.662Z" fill="#202B3D"/>
<path d="M378.161 190.222C379.573 189.94 380.62 189.224 381.304 188.074C381.987 186.924 382.238 185.431 382.057 183.593C381.934 182.344 381.653 181.307 381.215 180.482C380.788 179.656 380.246 179.043 379.588 178.644C378.932 178.257 378.215 178.102 377.437 178.179C376.787 178.219 376.235 178.41 375.781 178.752C375.328 179.106 374.951 179.566 374.65 180.131C374.361 180.695 374.121 181.337 373.93 182.057C373.751 182.777 373.613 183.54 373.514 184.347L373.057 187.675C372.859 189.288 372.531 190.783 372.072 192.161C371.614 193.538 371.002 194.752 370.237 195.803C369.473 196.854 368.533 197.702 367.419 198.347C366.307 199.004 364.997 199.413 363.49 199.573C361.275 199.78 359.299 199.404 357.563 198.445C355.839 197.497 354.427 196.019 353.325 194.011C352.235 192.013 351.546 189.541 351.255 186.596C350.967 183.675 351.163 181.086 351.845 178.83C352.527 176.586 353.686 174.771 355.322 173.385C356.97 172.009 359.093 171.163 361.691 170.847L362.421 178.251C361.216 178.453 360.237 178.9 359.485 179.593C358.745 180.297 358.221 181.187 357.911 182.264C357.614 183.352 357.53 184.556 357.66 185.875C357.788 187.171 358.088 188.277 358.559 189.194C359.031 190.123 359.629 190.819 360.353 191.283C361.077 191.747 361.874 191.936 362.746 191.85C363.559 191.77 364.218 191.461 364.724 190.923C365.231 190.397 365.634 189.656 365.932 188.699C366.231 187.753 366.475 186.605 366.663 185.254L367.264 181.216C367.705 178.092 368.627 175.569 370.031 173.646C371.436 171.723 373.475 170.636 376.151 170.384C378.34 170.156 380.312 170.55 382.066 171.567C383.821 172.595 385.26 174.1 386.383 176.083C387.507 178.065 388.198 180.376 388.459 183.015C388.724 185.701 388.496 188.09 387.774 190.183C387.054 192.288 385.931 193.981 384.404 195.262C382.877 196.542 381.037 197.307 378.885 197.555L378.161 190.222Z" fill="#202B3D"/>
<path d="M350.753 118.287L324.401 130.131L318.537 123.946L331.77 98.2632L337.267 104.062L327.002 121.597L327.198 121.804L345.244 112.476L350.753 118.287Z" fill="#202B3D"/>
<path d="M281.948 103.642C279.321 102.657 277.259 101.277 275.763 99.5026C274.282 97.7211 273.399 95.6582 273.115 93.3141C272.835 90.9589 273.2 88.4346 274.21 85.7413C275.195 83.1144 276.569 81.0002 278.332 79.3985C280.096 77.7968 282.111 76.7888 284.378 76.3744C286.655 75.9642 289.047 76.2286 291.551 77.1678C293.236 77.7994 294.703 78.659 295.951 79.7465C297.215 80.827 298.188 82.1085 298.871 83.5909C299.565 85.0774 299.912 86.7496 299.91 88.6074C299.913 90.4542 299.508 92.4638 298.693 94.6362L297.964 96.5814L276.4 88.4967L278.046 84.1076L292.943 89.6927C293.325 88.673 293.442 87.6865 293.294 86.7334C293.145 85.7802 292.761 84.9344 292.14 84.196C291.535 83.4507 290.716 82.8848 289.686 82.4984C288.61 82.0953 287.564 81.9873 286.546 82.1744C285.542 82.3545 284.652 82.773 283.875 83.4297C283.102 84.0754 282.521 84.9005 282.132 85.9049L280.567 90.0779C280.093 91.3415 279.917 92.5205 280.037 93.615C280.169 94.7136 280.574 95.6744 281.251 96.4973C281.929 97.3202 282.861 97.954 284.047 98.3986C284.833 98.6936 285.595 98.8529 286.333 98.8764C287.07 98.8999 287.754 98.7773 288.386 98.5085C289.017 98.2397 289.576 97.8295 290.061 97.2781L296.449 100.166C295.526 101.616 294.329 102.734 292.858 103.523C291.402 104.304 289.742 104.719 287.879 104.766C286.031 104.806 284.054 104.431 281.948 103.642Z" fill="#202B3D"/>
<path d="M226.914 100.141L214.165 102.044L208.796 66.079L221.65 64.1598C225.268 63.6197 228.489 63.8747 231.315 64.9249C234.139 65.9635 236.454 67.7183 238.259 70.1896C240.076 72.659 241.263 75.7611 241.821 79.4958C242.38 83.2421 242.152 86.5674 241.138 89.4716C240.135 92.374 238.424 94.7419 236.005 96.5752C233.597 98.4067 230.567 99.5952 226.914 100.141ZM220.796 94.3936L225.626 93.6726C227.873 93.337 229.705 92.6566 231.12 91.6315C232.544 90.593 233.517 89.1731 234.038 87.3719C234.569 85.5572 234.634 83.3094 234.234 80.6284C233.837 77.9708 233.121 75.8577 232.085 74.2889C231.06 72.7184 229.722 71.6496 228.07 71.0825C226.417 70.5154 224.467 70.3996 222.219 70.7352L217.372 71.4589L220.796 94.3936Z" fill="#202B3D"/>
<g filter="url(#filter0_d_104_445)">
<path d="M457.28 184.48H462.64V221.64H457.28V184.48ZM461.44 198.2H468V202.56H461.44V198.2ZM435.04 208.32H438.16C444.4 208.32 449.32 208.12 454.76 207.16L455.28 211.56C449.68 212.56 444.6 212.72 438.16 212.72H435.04V208.32ZM435.04 187.92H452.32V192.2H440.32V210.44H435.04V187.92ZM497.517 189.08H503.917V193.4H497.517V189.08ZM497.517 197.12H503.917V201.44H497.517V197.12ZM480.317 186.52C486.037 186.52 490.397 190.28 490.397 195.52C490.397 200.72 486.037 204.48 480.317 204.48C474.597 204.48 470.237 200.72 470.237 195.52C470.237 190.28 474.597 186.52 480.317 186.52ZM480.317 190.96C477.517 190.96 475.437 192.68 475.437 195.52C475.437 198.4 477.517 200.04 480.317 200.04C483.117 200.04 485.197 198.4 485.197 195.52C485.197 192.68 483.117 190.96 480.317 190.96ZM493.837 184.52H499.157V206.12H493.837V184.52ZM487.077 206.92C494.717 206.92 499.597 209.68 499.597 214.24C499.597 218.84 494.717 221.56 487.077 221.56C479.397 221.56 474.517 218.84 474.517 214.24C474.517 209.68 479.397 206.92 487.077 206.92ZM487.077 211.12C482.357 211.12 479.797 212.12 479.797 214.24C479.797 216.4 482.357 217.4 487.077 217.4C491.797 217.4 494.317 216.4 494.317 214.24C494.317 212.12 491.797 211.12 487.077 211.12ZM530.234 184.56H535.554V212.24H530.234V184.56ZM534.034 195.84H540.474V200.2H534.034V195.84ZM506.394 188.4H528.194V192.56H506.394V188.4ZM517.314 193.88C522.634 193.88 526.394 196.8 526.394 201.04C526.394 205.28 522.634 208.16 517.314 208.16C511.954 208.16 508.194 205.28 508.194 201.04C508.194 196.8 511.954 193.88 517.314 193.88ZM517.314 197.92C514.954 197.92 513.314 199.04 513.314 201.04C513.314 203.04 514.954 204.12 517.314 204.12C519.674 204.12 521.314 203.04 521.314 201.04C521.314 199.04 519.674 197.92 517.314 197.92ZM514.634 184.48H519.954V190.44H514.634V184.48ZM511.674 216.68H536.874V220.92H511.674V216.68ZM511.674 210.16H516.994V218.52H511.674V210.16ZM561.808 187.08C567.328 187.08 571.368 192.2 571.368 200.28C571.368 208.44 567.328 213.56 561.808 213.56C556.248 213.56 552.248 208.44 552.248 200.28C552.248 192.2 556.248 187.08 561.808 187.08ZM561.808 191.92C559.128 191.92 557.328 194.84 557.328 200.28C557.328 205.8 559.128 208.76 561.808 208.76C564.528 208.76 566.288 205.8 566.288 200.28C566.288 194.84 564.528 191.92 561.808 191.92ZM577.448 184.48H582.728V221.64H577.448V184.48ZM569.808 197.84H579.688V202.12H569.808V197.84ZM597.405 209H602.725V220.96H597.405V209ZM613.765 184.56H619.045V221.6H613.765V184.56ZM588.845 211.6L588.245 207.4C595.325 207.4 604.085 207.36 611.765 206.52L612.125 210.32C604.125 211.52 595.765 211.6 588.845 211.6ZM589.245 188.04H610.925V192.08H589.245V188.04ZM600.085 193.12C605.405 193.12 609.125 195.64 609.125 199.4C609.125 203.16 605.405 205.72 600.085 205.72C594.725 205.72 591.005 203.16 591.005 199.4C591.005 195.64 594.725 193.12 600.085 193.12ZM600.085 197C597.645 197 596.045 197.8 596.045 199.4C596.045 201 597.645 201.8 600.085 201.8C602.485 201.8 604.085 201 604.085 199.4C604.085 197.8 602.485 197 600.085 197ZM597.405 184.24H602.725V190.6H597.405V184.24ZM636.14 186.92H651.98V191.16H636.14V186.92ZM649.58 186.92H654.78V189.24C654.78 192.52 654.78 196.96 653.38 203.56H648.06C649.58 197.04 649.58 192.48 649.58 189.24V186.92ZM650.22 194.32V198.12L635.9 199.32L635.22 194.92L650.22 194.32ZM642.3 204.56H647.66V219.6H642.3V204.56ZM659.5 184.52H664.82V221.56H659.5V184.52ZM633.74 207.24L633.1 202.92C640.46 202.92 649.42 202.8 657.42 201.92L657.82 205.8C649.62 207.04 640.98 207.24 633.74 207.24ZM669.737 212.8H703.257V217.12H669.737V212.8ZM683.657 189.64H688.137V191.76C688.137 199.52 682.537 205.76 673.097 207.48L671.017 203.24C679.257 201.96 683.657 196.88 683.657 191.76V189.64ZM684.737 189.64H689.217V191.76C689.217 196.88 693.617 201.8 702.057 203.04L700.017 207.28C690.417 205.6 684.737 199.52 684.737 191.76V189.64ZM672.497 187.6H700.377V191.84H672.497V187.6ZM706.094 201.12H739.654V205H706.094V201.12ZM709.854 206.84H735.654V215.64H715.214V218.8H709.934V212.28H730.414V210.44H709.854V206.84ZM709.934 217.68H736.694V221.28H709.934V217.68ZM710.214 185.16H735.574V193.88H715.534V196.92H710.254V190.56H730.334V188.72H710.214V185.16ZM710.254 195.8H736.254V199.4H710.254V195.8ZM754.268 185.36H781.868V189.32H754.268V185.36ZM754.548 193.88H781.588V197.84H754.548V193.88ZM758.988 186.92H764.308V196.6H758.988V186.92ZM771.828 186.92H777.148V196.6H771.828V186.92ZM751.348 199.76H784.828V203.92H751.348V199.76ZM765.388 202.28H770.708V207.44H765.388V202.28ZM755.188 206.28H780.788V215.48H760.468V218.92H755.228V211.92H775.548V210.08H755.188V206.28ZM755.228 217.44H781.748V221.32H755.228V217.44ZM797.905 187.08C803.425 187.08 807.465 192.2 807.465 200.28C807.465 208.44 803.425 213.56 797.905 213.56C792.345 213.56 788.345 208.44 788.345 200.28C788.345 192.2 792.345 187.08 797.905 187.08ZM797.905 191.92C795.225 191.92 793.425 194.84 793.425 200.28C793.425 205.8 795.225 208.76 797.905 208.76C800.625 208.76 802.385 205.8 802.385 200.28C802.385 194.84 800.625 191.92 797.905 191.92ZM813.545 184.48H818.825V221.64H813.545V184.48ZM805.905 197.84H815.785V202.12H805.905V197.84ZM824.182 212.96H857.702V217.28H824.182V212.96ZM838.222 205.04H843.542V214H838.222V205.04ZM827.702 186.88H832.982V192.56H848.782V186.88H854.062V206.16H827.702V186.88ZM832.982 196.72V201.92H848.782V196.72H832.982ZM863.979 187.64H887.459V191.92H863.979V187.64ZM860.579 212.8H894.059V217.12H860.579V212.8ZM872.419 200.08H877.739V214.92H872.419V200.08ZM885.539 187.64H890.859V191.2C890.859 195.84 890.859 201.04 889.379 208.96L884.059 208.36C885.539 201 885.539 195.64 885.539 191.2V187.64ZM932.314 184.52H937.354V207.12H932.314V184.52ZM927.914 193.56H933.754V197.8H927.914V193.56ZM924.394 185.2H929.354V205.92H924.394V185.2ZM907.274 201.16H909.834C915.154 201.16 918.594 201.04 922.674 200.32L923.114 204.48C918.914 205.28 915.314 205.36 909.834 205.36H907.274V201.16ZM907.234 187.04H921.274V198H912.434V204.52H907.274V194.12H916.154V191.2H907.234V187.04ZM924.794 207.56C932.554 207.56 937.554 210.2 937.554 214.56C937.554 218.92 932.554 221.56 924.794 221.56C916.994 221.56 912.074 218.92 912.074 214.56C912.074 210.2 916.994 207.56 924.794 207.56ZM924.794 211.6C920.034 211.6 917.354 212.6 917.354 214.56C917.354 216.56 920.034 217.52 924.794 217.52C929.554 217.52 932.194 216.56 932.194 214.56C932.194 212.6 929.554 211.6 924.794 211.6ZM956.511 186.72H962.031C962.031 197.04 957.231 203.8 944.791 207.36L942.791 203.16C953.271 200.32 956.511 195.4 956.511 189.04V186.72ZM944.671 186.72H959.631V190.92H944.671V186.72ZM956.751 193.64V197.28L943.551 198.24L942.791 194.12L956.751 193.64ZM967.631 184.56H972.991V206.36H967.631V184.56ZM960.471 206.96C968.231 206.96 973.151 209.68 973.151 214.28C973.151 218.88 968.231 221.56 960.471 221.56C952.671 221.56 947.791 218.88 947.791 214.28C947.791 209.68 952.671 206.96 960.471 206.96ZM960.471 211.12C955.631 211.12 953.111 212.12 953.111 214.28C953.111 216.4 955.631 217.48 960.471 217.48C965.271 217.48 967.831 216.4 967.831 214.28C967.831 212.12 965.271 211.12 960.471 211.12ZM993.387 198.16H999.467V202.44H993.387V198.16ZM1005.35 184.52H1010.43V221.56H1005.35V184.52ZM997.787 185.08H1002.79V219.88H997.787V185.08ZM986.907 187.12C991.827 187.12 994.987 192.2 994.987 200.56C994.987 208.96 991.827 214.04 986.907 214.04C982.027 214.04 978.907 208.96 978.907 200.56C978.907 192.2 982.027 187.12 986.907 187.12ZM986.907 192.12C984.907 192.12 983.747 194.92 983.747 200.56C983.747 206.24 984.907 209 986.907 209C988.987 209 990.147 206.24 990.147 200.56C990.147 194.92 988.987 192.12 986.907 192.12ZM1037.88 196.24H1043.16V201.16H1037.88V196.24ZM1040.6 184.88C1049.04 184.88 1054 187.08 1054 191.16C1054 195.24 1049.04 197.48 1040.6 197.48C1032.12 197.48 1027.2 195.24 1027.2 191.16C1027.2 187.08 1032.12 184.88 1040.6 184.88ZM1040.6 188.76C1035.24 188.76 1032.72 189.52 1032.72 191.16C1032.72 192.88 1035.24 193.6 1040.6 193.6C1045.96 193.6 1048.48 192.88 1048.48 191.16C1048.48 189.52 1045.96 188.76 1040.6 188.76ZM1023.84 199.52H1057.32V203.72H1023.84V199.52ZM1027.68 205.68H1053.28V215.2H1032.96V218.48H1027.72V211.52H1048.04V209.64H1027.68V205.68ZM1027.72 217.32H1054.24V221.32H1027.72V217.32ZM1084 184.48H1089.28V221.64H1084V184.48ZM1088.08 198.48H1094.64V202.88H1088.08V198.48ZM1061.76 208.68H1064.88C1071.16 208.68 1076.04 208.48 1081.48 207.52L1082 211.8C1076.4 212.8 1071.32 213.04 1064.88 213.04H1061.76V208.68ZM1061.72 187.64H1078.76V202H1067.04V210.32H1061.76V197.76H1073.48V191.88H1061.72V187.64ZM1096.68 212.96H1130.2V217.28H1096.68V212.96ZM1110.72 205.04H1116.04V214H1110.72V205.04ZM1100.2 186.88H1105.48V192.56H1121.28V186.88H1126.56V206.16H1100.2V186.88ZM1105.48 196.72V201.92H1121.28V196.72H1105.48ZM1147.63 196.96H1153.75V201.28H1147.63V196.96ZM1139.71 187.72H1143.79V193.96C1143.79 202.36 1141.47 210.56 1135.55 214.2L1132.35 210.2C1137.79 206.84 1139.71 200.24 1139.71 193.96V187.72ZM1140.87 187.72H1144.87V193.72C1144.87 199.76 1146.43 205.92 1151.47 209.2L1148.59 213.36C1142.71 209.72 1140.87 201.72 1140.87 193.72V187.72ZM1159.79 184.52H1164.87V221.56H1159.79V184.52ZM1152.27 185.08H1157.23V219.88H1152.27V185.08ZM1176.83 203.32H1182.11V213.72H1176.83V203.32ZM1190.27 203.32H1195.59V213.72H1190.27V203.32ZM1169.47 212.96H1202.99V217.28H1169.47V212.96ZM1186.19 186.32C1194.15 186.32 1200.03 190.24 1200.03 196.28C1200.03 202.32 1194.15 206.2 1186.19 206.2C1178.19 206.2 1172.35 202.32 1172.35 196.28C1172.35 190.24 1178.19 186.32 1186.19 186.32ZM1186.19 190.48C1181.03 190.48 1177.59 192.6 1177.59 196.28C1177.59 199.92 1181.03 202.08 1186.19 202.08C1191.35 202.08 1194.79 199.92 1194.79 196.28C1194.79 192.6 1191.35 190.48 1186.19 190.48ZM1222.73 188.909L1222.18 209.278H1216.98L1216.41 188.909H1222.73ZM1219.58 218.369C1218.64 218.369 1217.83 218.038 1217.16 217.375C1216.49 216.703 1216.16 215.898 1216.17 214.96C1216.16 214.032 1216.49 213.237 1217.16 212.574C1217.83 211.911 1218.64 211.58 1219.58 211.58C1220.48 211.58 1221.27 211.911 1221.95 212.574C1222.63 213.237 1222.98 214.032 1222.98 214.96C1222.98 215.585 1222.81 216.158 1222.49 216.679C1222.18 217.19 1221.76 217.602 1221.25 217.915C1220.74 218.218 1220.18 218.369 1219.58 218.369Z" fill="#202B3D"/>
</g>
<defs>
<filter id="filter0_d_104_445" x="428.74" y="181.94" width="800.545" height="49.9999" filterUnits="userSpaceOnUse" color-interpolation-filters="sRGB">
<feFlood flood-opacity="0" result="BackgroundImageFix"/>
<feColorMatrix in="SourceAlpha" type="matrix" values="0 0 0 0 0 0 0 0 0 0 0 0 0 0 0 0 0 0 127 0" result="hardAlpha"/>
<feOffset dy="4"/>
<feGaussianBlur stdDeviation="3.15"/>
<feComposite in2="hardAlpha" operator="out"/>
<feColorMatrix type="matrix" values="0 0 0 0 0 0 0 0 0 0 0 0 0 0 0 0 0 0 0.25 0"/>
<feBlend mode="normal" in2="BackgroundImageFix" result="effect1_dropShadow_104_445"/>
<feBlend mode="normal" in="SourceGraphic" in2="effect1_dropShadow_104_445" result="shape"/>
</filter>
</defs>
</svg>
