<svg width="1400" height="400" viewBox="0 0 1400 400" fill="none" xmlns="http://www.w3.org/2000/svg">
<rect x="0.5" y="0.5" width="1399" height="399" fill="#E9E9E9" stroke="#999999"/>
<path d="M164.844 140.031L161.622 136.875L159.156 115.77L159.016 115.633L149.996 124.842L145.683 120.618L161.077 104.901L164.59 108.343L167.337 128.579L167.476 128.716L176.571 119.431L180.884 123.655L164.844 140.031Z" fill="#202B3D"/>
<path d="M153.962 161.582L129.385 149.76L132.664 142.943L157.241 154.765L153.962 161.582ZM127.864 144.812C127.377 145.825 126.622 146.533 125.601 146.935C124.575 147.321 123.587 147.286 122.638 146.829C121.699 146.378 121.065 145.633 120.737 144.595C120.403 143.541 120.48 142.508 120.968 141.494C121.455 140.481 122.212 139.781 123.239 139.395C124.26 138.993 125.239 139.017 126.178 139.469C127.127 139.926 127.769 140.681 128.103 141.735C128.431 142.773 128.351 143.798 127.864 144.812Z" fill="#202B3D"/>
<path d="M135.295 188.903L119.718 187.296L120.494 179.772L147.623 182.571L146.877 189.795L141.95 189.286L141.92 189.569C143.447 190.345 144.619 191.495 145.438 193.02C146.257 194.532 146.562 196.307 146.352 198.344C146.165 200.157 145.588 201.71 144.622 203.003C143.655 204.296 142.373 205.252 140.773 205.872C139.176 206.481 137.316 206.682 135.196 206.475L117.922 204.692L118.699 197.169L134.63 198.812C136.232 198.966 137.542 198.667 138.56 197.915C139.578 197.163 140.16 196.075 140.307 194.65C140.401 193.744 140.282 192.875 139.951 192.043C139.609 191.21 139.051 190.51 138.276 189.942C137.503 189.363 136.509 189.016 135.295 188.903Z" fill="#202B3D"/>
<path d="M147.89 257.487L145.141 251.56L147.591 246.802L149.646 242.286L154.009 233.548L157.028 240.055L154.12 246.024L152.254 249.258L147.89 257.487ZM134.578 241.957C138.175 240.288 141.552 239.55 144.708 239.743C147.859 239.925 150.643 240.878 153.061 242.601C155.462 244.318 157.338 246.632 158.688 249.542C160.048 252.473 160.603 255.413 160.353 258.36C160.102 261.308 159.029 264.044 157.134 266.568C155.238 269.091 152.497 271.185 148.911 272.849C145.314 274.518 141.939 275.261 138.788 275.079C135.637 274.897 132.861 273.947 130.459 272.23C128.046 270.517 126.16 268.196 124.8 265.264C123.45 262.354 122.9 259.425 123.151 256.477C123.385 253.524 124.451 250.785 126.346 248.262C128.237 245.727 130.981 243.625 134.578 241.957ZM137.858 249.027C135.528 250.108 133.725 251.369 132.449 252.809C131.168 254.239 130.406 255.774 130.162 257.413C129.918 259.053 130.187 260.716 130.969 262.402C131.751 264.088 132.847 265.367 134.257 266.24C135.666 267.113 137.333 267.527 139.257 267.482C141.176 267.427 143.3 266.859 145.63 265.778C147.96 264.697 149.766 263.442 151.047 262.012C152.323 260.572 153.083 259.032 153.327 257.392C153.571 255.752 153.302 254.089 152.52 252.404C151.737 250.718 150.642 249.438 149.232 248.566C147.822 247.693 146.158 247.284 144.239 247.339C142.315 247.384 140.189 247.946 137.858 249.027Z" fill="#202B3D"/>
<path d="M210.828 296.361C213.386 297.512 215.355 299.022 216.735 300.888C218.099 302.761 218.847 304.877 218.981 307.234C219.109 309.602 218.583 312.098 217.403 314.721C216.251 317.279 214.744 319.301 212.882 320.787C211.019 322.272 208.944 323.149 206.655 323.417C204.356 323.68 201.987 323.263 199.547 322.165C197.906 321.427 196.498 320.475 195.322 319.31C194.13 318.15 193.241 316.809 192.654 315.286C192.057 313.758 191.818 312.067 191.939 310.213C192.054 308.37 192.588 306.39 193.54 304.275L194.393 302.38L215.393 311.831L213.47 316.106L198.962 309.577C198.515 310.57 198.335 311.547 198.422 312.507C198.509 313.468 198.838 314.337 199.41 315.114C199.967 315.896 200.747 316.513 201.751 316.965C202.798 317.436 203.835 317.611 204.864 317.49C205.876 317.374 206.791 317.014 207.609 316.408C208.422 315.813 209.055 315.027 209.507 314.05L211.336 309.986C211.89 308.755 212.142 307.59 212.092 306.49C212.031 305.385 211.689 304.4 211.065 303.536C210.442 302.671 209.553 301.979 208.398 301.459C207.631 301.114 206.881 300.906 206.147 300.836C205.413 300.765 204.722 300.844 204.074 301.071C203.427 301.299 202.843 301.673 202.324 302.192L196.134 298.9C197.148 297.513 198.414 296.473 199.933 295.781C201.436 295.094 203.119 294.787 204.981 294.859C206.828 294.938 208.777 295.438 210.828 296.361Z" fill="#202B3D"/>
<path d="M235.625 340.055L238.765 303.827L246.3 304.48L243.161 340.708L235.625 340.055Z" fill="#202B3D"/>
<path d="M290.448 286.421L300.2 322.631L293 324.57L291.808 320.147L291.482 320.234C291.353 321.029 291.084 321.874 290.676 322.769C290.258 323.678 289.625 324.511 288.774 325.267C287.915 326.038 286.748 326.621 285.274 327.019C283.354 327.536 281.447 327.51 279.553 326.941C277.662 326.384 275.96 325.231 274.446 323.481C272.936 321.742 271.775 319.364 270.962 316.347C270.171 313.409 269.977 310.801 270.381 308.522C270.776 306.258 271.645 304.388 272.988 302.91C274.323 301.448 275.99 300.447 277.99 299.908C279.408 299.527 280.677 299.436 281.797 299.637C282.907 299.841 283.871 300.212 284.69 300.752C285.513 301.302 286.188 301.899 286.717 302.541L286.94 302.481L283.144 288.388L290.448 286.421ZM289.505 311.389C289.083 309.823 288.498 308.516 287.749 307.467C287.001 306.418 286.128 305.679 285.129 305.249C284.134 304.83 283.048 304.78 281.87 305.097C280.682 305.417 279.764 306.014 279.116 306.887C278.472 307.771 278.095 308.854 277.986 310.133C277.869 311.428 278.017 312.841 278.429 314.372C278.839 315.892 279.41 317.173 280.144 318.213C280.878 319.254 281.744 319.989 282.742 320.419C283.741 320.848 284.84 320.902 286.04 320.579C287.229 320.258 288.15 319.673 288.804 318.823C289.446 317.976 289.829 316.916 289.952 315.645C290.076 314.374 289.926 312.955 289.505 311.389Z" fill="#202B3D"/>
<path d="M344.66 249.027L365.228 266.937L360.494 272.373L356.865 269.213L356.655 269.454C357.487 270.932 357.816 272.474 357.642 274.081C357.468 275.687 356.774 277.186 355.561 278.579C354.333 279.989 352.935 280.883 351.367 281.26C349.808 281.644 348.286 281.481 346.802 280.769L346.616 280.984C347.429 282.429 347.71 284.008 347.459 285.72C347.209 287.449 346.428 289.068 345.114 290.577C343.443 292.496 341.475 293.521 339.21 293.652C336.947 293.8 334.699 292.903 332.467 290.959L318.635 278.914L323.59 273.223L336.298 284.289C337.441 285.284 338.562 285.727 339.662 285.617C340.762 285.508 341.708 284.997 342.501 284.087C343.403 283.051 343.776 281.956 343.621 280.8C343.474 279.653 342.865 278.612 341.794 277.68L329.234 266.742L334.05 261.212L346.878 272.383C347.886 273.261 348.942 273.67 350.046 273.611C351.141 273.56 352.097 273.067 352.914 272.129C353.465 271.495 353.802 270.784 353.924 269.995C354.047 269.224 353.951 268.441 353.636 267.649C353.33 266.865 352.798 266.143 352.039 265.482L339.693 254.731L344.66 249.027Z" fill="#202B3D"/>
<path d="M350.723 222.084L377.082 229.087L375.139 236.397L348.781 229.395L350.723 222.084ZM379.504 233.662C379.792 232.575 380.401 231.738 381.328 231.152C382.264 230.58 383.241 230.429 384.259 230.7C385.266 230.967 386.028 231.58 386.545 232.538C387.07 233.51 387.189 234.54 386.9 235.627C386.611 236.713 385.999 237.543 385.063 238.115C384.136 238.701 383.169 238.861 382.162 238.593C381.144 238.323 380.372 237.701 379.846 236.729C379.329 235.771 379.215 234.749 379.504 233.662Z" fill="#202B3D"/>
<path d="M378.161 190.222C379.573 189.94 380.62 189.224 381.304 188.074C381.987 186.924 382.238 185.431 382.057 183.593C381.934 182.344 381.653 181.307 381.215 180.482C380.788 179.656 380.246 179.043 379.588 178.644C378.932 178.257 378.215 178.102 377.437 178.179C376.787 178.219 376.235 178.41 375.781 178.752C375.328 179.106 374.951 179.566 374.65 180.131C374.361 180.695 374.121 181.337 373.93 182.057C373.751 182.777 373.613 183.54 373.514 184.347L373.057 187.675C372.859 189.288 372.531 190.783 372.072 192.161C371.614 193.538 371.002 194.752 370.237 195.803C369.473 196.854 368.533 197.702 367.419 198.347C366.307 199.004 364.997 199.413 363.49 199.573C361.275 199.78 359.299 199.404 357.563 198.445C355.839 197.497 354.427 196.019 353.325 194.011C352.235 192.013 351.546 189.541 351.255 186.596C350.967 183.675 351.163 181.086 351.845 178.83C352.527 176.586 353.686 174.771 355.322 173.385C356.97 172.009 359.093 171.163 361.691 170.847L362.421 178.251C361.216 178.453 360.237 178.9 359.485 179.593C358.745 180.297 358.221 181.187 357.911 182.264C357.614 183.352 357.53 184.556 357.66 185.875C357.788 187.171 358.088 188.277 358.559 189.194C359.031 190.123 359.629 190.819 360.353 191.283C361.077 191.747 361.874 191.936 362.746 191.85C363.559 191.77 364.218 191.461 364.724 190.923C365.231 190.397 365.634 189.656 365.932 188.699C366.231 187.753 366.475 186.605 366.663 185.254L367.264 181.216C367.705 178.092 368.627 175.569 370.031 173.646C371.436 171.723 373.475 170.636 376.151 170.384C378.34 170.156 380.312 170.55 382.066 171.567C383.821 172.595 385.26 174.1 386.383 176.083C387.507 178.065 388.198 180.376 388.459 183.015C388.724 185.701 388.496 188.09 387.774 190.183C387.054 192.288 385.931 193.981 384.404 195.262C382.877 196.542 381.037 197.307 378.885 197.555L378.161 190.222Z" fill="#202B3D"/>
<path d="M350.753 118.287L324.401 130.131L318.537 123.946L331.77 98.2632L337.267 104.062L327.002 121.597L327.198 121.804L345.244 112.476L350.753 118.287Z" fill="#202B3D"/>
<path d="M281.948 103.642C279.321 102.657 277.259 101.277 275.763 99.5026C274.282 97.7211 273.399 95.6582 273.115 93.3141C272.835 90.9589 273.2 88.4346 274.21 85.7413C275.195 83.1144 276.569 81.0002 278.332 79.3985C280.096 77.7968 282.111 76.7888 284.378 76.3744C286.655 75.9642 289.047 76.2286 291.551 77.1678C293.236 77.7994 294.703 78.659 295.951 79.7465C297.215 80.827 298.188 82.1085 298.871 83.5909C299.565 85.0774 299.912 86.7496 299.91 88.6074C299.913 90.4542 299.508 92.4638 298.693 94.6362L297.964 96.5814L276.4 88.4967L278.046 84.1076L292.943 89.6927C293.325 88.673 293.442 87.6865 293.294 86.7334C293.145 85.7802 292.761 84.9344 292.14 84.196C291.535 83.4507 290.716 82.8848 289.686 82.4984C288.61 82.0953 287.564 81.9873 286.546 82.1744C285.542 82.3545 284.652 82.773 283.875 83.4297C283.102 84.0754 282.521 84.9005 282.132 85.9049L280.567 90.0779C280.093 91.3415 279.917 92.5205 280.037 93.615C280.169 94.7136 280.574 95.6744 281.251 96.4973C281.929 97.3202 282.861 97.954 284.047 98.3986C284.833 98.6936 285.595 98.8529 286.333 98.8764C287.07 98.8999 287.754 98.7773 288.386 98.5085C289.017 98.2397 289.576 97.8295 290.061 97.2781L296.449 100.166C295.526 101.616 294.329 102.734 292.858 103.523C291.402 104.304 289.742 104.719 287.879 104.766C286.031 104.806 284.054 104.431 281.948 103.642Z" fill="#202B3D"/>
<path d="M226.914 100.141L214.165 102.044L208.796 66.079L221.65 64.1598C225.268 63.6197 228.489 63.8747 231.315 64.9249C234.139 65.9635 236.454 67.7183 238.259 70.1896C240.076 72.659 241.263 75.7611 241.821 79.4958C242.38 83.2421 242.152 86.5674 241.138 89.4716C240.135 92.374 238.424 94.7419 236.005 96.5752C233.597 98.4067 230.567 99.5952 226.914 100.141ZM220.796 94.3936L225.626 93.6726C227.873 93.337 229.705 92.6566 231.12 91.6315C232.544 90.593 233.517 89.1731 234.038 87.3719C234.569 85.5572 234.634 83.3094 234.234 80.6284C233.837 77.9708 233.121 75.8577 232.085 74.2889C231.06 72.7184 229.722 71.6496 228.07 71.0825C226.417 70.5154 224.467 70.3996 222.219 70.7352L217.372 71.4589L220.796 94.3936Z" fill="#202B3D"/>
<g filter="url(#filter0_d_108_883)">
<path d="M433.6 201.24H467.16V205.48H433.6V201.24ZM447.6 203.96H452.88V217.56H447.6V203.96ZM437.48 182.32H463.16V197.28H437.48V182.32ZM457.92 186.52H442.72V193.08H457.92V186.52ZM493.837 180.56H499.157V208.24H493.837V180.56ZM497.637 191.84H504.077V196.2H497.637V191.84ZM469.997 184.4H491.797V188.56H469.997V184.4ZM480.917 189.88C486.237 189.88 489.997 192.8 489.997 197.04C489.997 201.28 486.237 204.16 480.917 204.16C475.557 204.16 471.797 201.28 471.797 197.04C471.797 192.8 475.557 189.88 480.917 189.88ZM480.917 193.92C478.557 193.92 476.917 195.04 476.917 197.04C476.917 199.04 478.557 200.12 480.917 200.12C483.277 200.12 484.917 199.04 484.917 197.04C484.917 195.04 483.277 193.92 480.917 193.92ZM478.237 180.48H483.557V186.44H478.237V180.48ZM475.277 212.68H500.477V216.92H475.277V212.68ZM475.277 206.16H480.597V214.52H475.277V206.16ZM527.16 203.886H532.387L535.015 207.267L537.6 210.278L542.473 216.386H536.734L533.382 212.267L531.663 209.824L527.16 203.886ZM542.913 199.455C542.913 202.627 542.312 205.326 541.109 207.551C539.916 209.777 538.287 211.476 536.223 212.651C534.168 213.815 531.857 214.398 529.291 214.398C526.706 214.398 524.385 213.811 522.331 212.636C520.276 211.462 518.652 209.762 517.458 207.537C516.265 205.312 515.669 202.617 515.669 199.455C515.669 196.282 516.265 193.583 517.458 191.358C518.652 189.133 520.276 187.437 522.331 186.273C524.385 185.098 526.706 184.511 529.291 184.511C531.857 184.511 534.168 185.098 536.223 186.273C538.287 187.437 539.916 189.133 541.109 191.358C542.312 193.583 542.913 196.282 542.913 199.455ZM536.677 199.455C536.677 197.4 536.369 195.667 535.754 194.256C535.148 192.845 534.291 191.775 533.183 191.045C532.075 190.316 530.778 189.952 529.291 189.952C527.804 189.952 526.507 190.316 525.399 191.045C524.291 191.775 523.429 192.845 522.813 194.256C522.207 195.667 521.904 197.4 521.904 199.455C521.904 201.509 522.207 203.242 522.813 204.653C523.429 206.064 524.291 207.134 525.399 207.864C526.507 208.593 527.804 208.957 529.291 208.957C530.778 208.957 532.075 208.593 533.183 207.864C534.291 207.134 535.148 206.064 535.754 204.653C536.369 203.242 536.677 201.509 536.677 199.455ZM565.038 184.909H571.188V203.801C571.188 205.922 570.682 207.778 569.668 209.369C568.665 210.96 567.258 212.201 565.45 213.091C563.641 213.972 561.534 214.412 559.129 214.412C556.714 214.412 554.602 213.972 552.793 213.091C550.985 212.201 549.579 210.96 548.575 209.369C547.571 207.778 547.069 205.922 547.069 203.801V184.909H553.22V203.276C553.22 204.384 553.461 205.368 553.944 206.23C554.436 207.092 555.128 207.769 556.018 208.261C556.908 208.754 557.945 209 559.129 209C560.322 209 561.359 208.754 562.239 208.261C563.13 207.769 563.816 207.092 564.299 206.23C564.792 205.368 565.038 204.384 565.038 203.276V184.909ZM581.999 184.909V214H575.849V184.909H581.999ZM586.347 214V210.349L600.864 189.98H586.319V184.909H608.591V188.56L594.06 208.929H608.62V214H586.347ZM627.509 187.16H631.429V187.72C631.429 192.84 628.829 198 623.109 200L620.789 196.04C625.309 194.32 627.509 190.88 627.509 187.72V187.16ZM628.589 187.16H632.509V187.72C632.509 190.8 634.709 194 639.229 195.44L636.989 199.36C631.189 197.56 628.589 192.76 628.589 187.72V187.16ZM621.869 184H638.109V188.12H621.869V184ZM627.509 180.68H632.509V186.76H627.509V180.68ZM647.389 180.56H652.429V199.96H647.389V180.56ZM642.909 188.16H648.789V192.36H642.909V188.16ZM639.669 181.24H644.629V199.68H639.669V181.24ZM627.269 201.28H652.429V211H632.589V215.68H627.309V207.28H647.229V205.24H627.269V201.28ZM627.309 213.24H653.629V217.2H627.309V213.24ZM682.706 180.56H688.066V207.84H682.706V180.56ZM663.266 212.68H688.946V216.92H663.266V212.68ZM663.266 205.56H668.586V214.84H663.266V205.56ZM659.186 198.88H662.426C670.146 198.88 674.666 198.68 679.706 197.72L680.266 201.96C675.066 202.96 670.346 203.16 662.426 203.16H659.186V198.88ZM659.146 182.96H676.186V194.8H664.426V200.08H659.186V190.88H670.946V187.2H659.146V182.96ZM702.583 186.36H706.823V190.52C706.823 199.08 703.343 207.44 696.383 210.6L693.382 206.4C699.583 203.64 702.583 196.8 702.583 190.52V186.36ZM703.783 186.36H707.983V190.52C707.983 196.52 710.943 202.92 717.143 205.48L714.263 209.68C707.223 206.64 703.783 198.76 703.783 190.52V186.36ZM694.863 184.08H715.623V188.44H694.863V184.08ZM719.063 180.52H724.423V217.56H719.063V180.52ZM744.859 194.16H750.939V198.44H744.859V194.16ZM756.819 180.52H761.899V217.56H756.819V180.52ZM749.259 181.08H754.259V215.88H749.259V181.08ZM738.379 183.12C743.299 183.12 746.459 188.2 746.459 196.56C746.459 204.96 743.299 210.04 738.379 210.04C733.499 210.04 730.379 204.96 730.379 196.56C730.379 188.2 733.499 183.12 738.379 183.12ZM738.379 188.12C736.379 188.12 735.219 190.92 735.219 196.56C735.219 202.24 736.379 205 738.379 205C740.459 205 741.619 202.24 741.619 196.56C741.619 190.92 740.459 188.12 738.379 188.12ZM779.234 197.04H805.274V201.28H779.234V197.04ZM775.354 209.04H808.874V213.4H775.354V209.04ZM789.394 198.96H794.714V210.44H789.394V198.96ZM779.234 183.04H804.994V187.32H784.554V198.88H779.234V183.04ZM831.551 190.08H840.191V194.36H831.551V190.08ZM837.391 180.56H842.711V207.56H837.391V180.56ZM818.271 212.68H843.551V216.92H818.271V212.68ZM818.271 205.28H823.591V215.2H818.271V205.28ZM820.271 185.4H824.591V187.72C824.591 194.68 821.311 201.12 814.191 203.48L811.511 199.24C817.631 197.24 820.271 192.4 820.271 187.72V185.4ZM821.391 185.4H825.671V187.72C825.671 192.04 828.191 196.64 834.031 198.6L831.431 202.76C824.551 200.48 821.391 194.32 821.391 187.72V185.4ZM812.951 183.04H832.871V187.24H812.951V183.04ZM848.068 186.08H865.788V190.32H848.068V186.08ZM856.988 191.96C861.708 191.96 865.108 195.6 865.108 200.8C865.108 205.96 861.708 209.6 856.988 209.6C852.308 209.6 848.868 205.96 848.868 200.8C848.868 195.6 852.308 191.96 856.988 191.96ZM856.988 196.4C854.988 196.4 853.588 198 853.588 200.8C853.588 203.6 854.988 205.16 856.988 205.16C858.988 205.16 860.428 203.6 860.428 200.8C860.428 198 858.988 196.4 856.988 196.4ZM874.868 180.52H879.948V217.56H874.868V180.52ZM870.428 195.56H876.548V199.84H870.428V195.56ZM867.108 181.2H872.068V216H867.108V181.2ZM854.388 181.52H859.628V188.76H854.388V181.52ZM884.545 208.96H918.065V213.28H884.545V208.96ZM898.585 201.04H903.905V210H898.585V201.04ZM888.065 182.88H893.345V188.56H909.145V182.88H914.425V202.16H888.065V182.88ZM893.345 192.72V197.92H909.145V192.72H893.345ZM935.502 192.96H941.622V197.28H935.502V192.96ZM927.582 183.72H931.662V189.96C931.662 198.36 929.342 206.56 923.422 210.2L920.222 206.2C925.662 202.84 927.582 196.24 927.582 189.96V183.72ZM928.742 183.72H932.742V189.72C932.742 195.76 934.302 201.92 939.342 205.2L936.462 209.36C930.582 205.72 928.742 197.72 928.742 189.72V183.72ZM947.662 180.52H952.742V217.56H947.662V180.52ZM940.142 181.08H945.102V215.88H940.142V181.08ZM964.698 199.32H969.978V209.72H964.698V199.32ZM978.138 199.32H983.458V209.72H978.138V199.32ZM957.338 208.96H990.858V213.28H957.338V208.96ZM974.058 182.32C982.018 182.32 987.898 186.24 987.898 192.28C987.898 198.32 982.018 202.2 974.058 202.2C966.058 202.2 960.218 198.32 960.218 192.28C960.218 186.24 966.058 182.32 974.058 182.32ZM974.058 186.48C968.898 186.48 965.458 188.6 965.458 192.28C965.458 195.92 968.898 198.08 974.058 198.08C979.218 198.08 982.658 195.92 982.658 192.28C982.658 188.6 979.218 186.48 974.058 186.48ZM1010.6 184.909L1010.04 205.278H1004.85L1004.28 184.909H1010.6ZM1007.44 214.369C1006.51 214.369 1005.7 214.038 1005.03 213.375C1004.36 212.703 1004.03 211.898 1004.04 210.96C1004.03 210.032 1004.36 209.237 1005.03 208.574C1005.7 207.911 1006.51 207.58 1007.44 207.58C1008.34 207.58 1009.13 207.911 1009.82 208.574C1010.5 209.237 1010.84 210.032 1010.85 210.96C1010.84 211.585 1010.68 212.158 1010.36 212.679C1010.04 213.19 1009.63 213.602 1009.12 213.915C1008.61 214.218 1008.05 214.369 1007.44 214.369Z" fill="#202B3D"/>
</g>
<defs>
<filter id="filter0_d_108_883" x="427.3" y="178.18" width="589.854" height="49.6801" filterUnits="userSpaceOnUse" color-interpolation-filters="sRGB">
<feFlood flood-opacity="0" result="BackgroundImageFix"/>
<feColorMatrix in="SourceAlpha" type="matrix" values="0 0 0 0 0 0 0 0 0 0 0 0 0 0 0 0 0 0 127 0" result="hardAlpha"/>
<feOffset dy="4"/>
<feGaussianBlur stdDeviation="3.15"/>
<feComposite in2="hardAlpha" operator="out"/>
<feColorMatrix type="matrix" values="0 0 0 0 0 0 0 0 0 0 0 0 0 0 0 0 0 0 0.25 0"/>
<feBlend mode="normal" in2="BackgroundImageFix" result="effect1_dropShadow_108_883"/>
<feBlend mode="normal" in="SourceGraphic" in2="effect1_dropShadow_108_883" result="shape"/>
</filter>
</defs>
</svg>
